<svg id="Layer_1" data-name="Layer 1" xmlns="http://www.w3.org/2000/svg" viewBox="0 0 50 50"><defs><style>.cls-1{fill:#fff;}.cls-2{fill:#e8b23b;}.cls-3{fill:#f4d99d;}</style></defs><rect class="cls-1" x="6.60932" y="22.01643" width="36.9864" height="24.63354"/><polygon class="cls-2" points="24.809 3.241 42.878 22.016 38.575 26.293 11.151 25.704 6.813 22.406 24.809 3.241"/><rect class="cls-1" x="11.48892" y="8.92512" width="26.73444" height="17.36747"/><path class="cls-1" d="M16.27522,17.36188a31.906,31.906,0,0,1,3.22-2.00958,35.72423,35.72423,0,0,0,3.39386-2.22769c.5386-.40423,1.06239-.82846,1.56535-1.27636.22481-.20021,1.13764-1.35278,1.38284-1.35278a2.182,2.182,0,0,0,.47911-.68476.80289.80289,0,0,0-.09387-.79587,1.05419,1.05419,0,0,0-.95394-.23322c-.89542.12051-1.77887-.03545-2.6818.004-.99448.04346-1.98248.18754-2.97833.20664-2.23555.04288-4.45859-.18527-6.68692-.18527a1.27894,1.27894,0,0,0-.50505.12166c-.589.32473-.45484,1.67112-.47692,2.23308-.03867.98388-.01164,1.96882.02351,2.95236.07,1.95923-.12642,3.8791-.20889,5.82866a.53151.53151,0,0,0,.06184.33934.35931.35931,0,0,0,.37832.10793,1.05492,1.05492,0,0,0,.36087-.205c1.22383-.92873,2.45073-1.85357,3.67155-2.78625Z"/><path class="cls-3" d="M11.9167,25.52456q-.01033-.04-.0196-.0809c-.13959-.616-.01417-1.25037-.093-1.87221a4.1077,4.1077,0,0,1,.28057-2.06085c.25672-.66239.34323-1.392.59859-2.064a17.18408,17.18408,0,0,1,9.5939-9.259,19.00724,19.00724,0,0,1,7.79755-1.05131c1.86555.05782,3.75984-.0554,5.63457-.05987a21.05626,21.05626,0,0,1,2.53071.062l.20884,16.65629-5.19747,5.30182s-9.05122-4.67917-16.20038-.19771c-.85693.53716-2.17482-1.8807-2.55351-2.312C13.61977,27.58711,12.27825,26.92444,11.9167,25.52456Z"/><path d="M44.14787,24.39573a5.50376,5.50376,0,0,0-.02652-1.44635,1.57824,1.57824,0,0,0-.331-.6502,4.41356,4.41356,0,0,1-.33963-.67046,1.40785,1.40785,0,0,0-.18113-.26338c-.05628-.0645-.19406-.14252-.22812-.21478a1.57511,1.57511,0,0,0-.37366-.48481c-.08244-.21581-.24875-.3057-.38395-.47021-.124-.15089-.1975-.3649-.30762-.52917a2.937,2.937,0,0,0-.87842-.77066,6.09757,6.09757,0,0,1-.93533-1.01845,2.08227,2.08227,0,0,0-.51-.43911,1.61631,1.61631,0,0,1-.26371-.11728c-.08545-.07624-.10784-.24809-.16989-.34522-.07672-.12011-.17624-.22477-.264-.33661-.16846-.21466-.11666-.45115-.11653-.708q.00019-.35936-.00019-.71872-.001-.76285-.00729-1.52569c-.00884-.95708-.02455-1.91469-.07267-2.87072-.10806-.29806.02936-.59323.00969-.91016a1.593,1.593,0,0,0-.79008-1.38988,3.32911,3.32911,0,0,0-1.38-.06006,9.58757,9.58757,0,0,0-1.84-.19982,5.80638,5.80638,0,0,0-1.21.08,13.38837,13.38837,0,0,1-2.75028-.24267.35887.35887,0,0,1-.14122-.06894c-.10719-.09884-.1131-.30455-.21155-.42871-.10418-.1314-.24164-.23256-.34027-.36906-.19025-.26328-.38708-.52855-.58979-.78716l-.09035-.11527a3.34464,3.34464,0,0,0-.60152-.6618c-.23556-.17662-.33582-.47312-.55208-.66848-.12424-.11223-.27-.19909-.391-.31481a4.20772,4.20772,0,0,1-.35165-.43616,2.11107,2.11107,0,0,0-.51415-.39519,1.19917,1.19917,0,0,1-.39116-.377,1.22139,1.22139,0,0,0-.2594-.42666,1.85332,1.85332,0,0,0-.79446-.41555,2.03884,2.03884,0,0,0-1.72638.18344c-.42571.395-1.00909.592-1.30416,1.12464-.19163.251-.24958.57677-.51055.76918a3.91357,3.91357,0,0,0-1.15233,1.379.40255.40255,0,0,1-.25052.20371c-.42905.22286-.69429.67839-1.10514.93645a4.11125,4.11125,0,0,0-.80752.76456c-.18918.1824-.18556.27547-.47417.30276a6.937,6.937,0,0,1-.69687-.00025c-.37321-.00234-.74567-.02993-1.11783-.05556a8.13252,8.13252,0,0,0-2.20563.04943c-1.102.04241-2.89381-.46992-3.07725,1.1056-.08188.53985.06371.86212.06086,1.9857a2.83,2.83,0,0,1,.09289,1.37119c.00687,1.35532-.19628,1.18438-.10645,2.2174a3.3678,3.3678,0,0,0-.09068.68706c.0034.18026.11373.478-.02282.624-.68182.4558-1.23007,1.28018-1.76646,1.63891-.19008.17011-.25008.43012-.43015.60009a1.3392,1.3392,0,0,0-.59411.632.64226.64226,0,0,1-.07552.16453c-.04189.05525-.10579.091-.146.1475-.11284.15848-.112.29-.34431.29589-.11112.00282-.26425.22036-.32032.30015a5.98688,5.98688,0,0,1-.85507,1.29523,1.37237,1.37237,0,0,0-.35911.61809,5.59911,5.59911,0,0,0-.30952,1.42441,1.40478,1.40478,0,0,1,.0023.57524c-.07542,2.7076.00827,5.47964-.05911,8.20933a8.02629,8.02629,0,0,1,.11067,1.47748,2.12593,2.12593,0,0,1,.04015,1.3701.892.892,0,0,1-.02.67992c-.16159.436.04228.88653-.10989,1.31006.05286,3.12631-.06637,6.32138.07,9.45.03647.59122.658.7228,1.14.71989.53474.08518,1.08059.02483,1.61225.12013a2.92284,2.92284,0,0,0,1.07771.04981,1.73383,1.73383,0,0,0,.98.03029c2.4366.0521,4.93086.02424,7.38756.05237.60514-.16346,1.22837.01263,1.81815-.23583.45457-.03194.91559.09469,1.3785.04669a11.44193,11.44193,0,0,0,1.59585.1665,13.5279,13.5279,0,0,1,2-.00982c1.361.04621,2.74293.053,4.08.0098.73224.06821,1.43841-.09789,2.16.02016.20691-.01333.36978-.1505.58337-.11082a1.37909,1.37909,0,0,0,.706-.01328c1.00648-.271,2.02689.14058,3.043.04858a2.79055,2.79055,0,0,0,1.2462-.00889,36.07608,36.07608,0,0,0,4.46137.04441,9.56946,9.56946,0,0,0,2.2-.05986,1.58564,1.58564,0,0,0,.63894-1.99431,2.38789,2.38789,0,0,0-.10635-1.18119,4.716,4.716,0,0,1,.05653-1.05968c.00832-.21213-.06093-.40122.04092-.60493.15976-.42525-.03624-.89079.09989-1.31006.11878-.36394-.10061-.71783-.07-1.08008.15327-2.45.08046-4.90394.05713-7.34867-.19684-.46665.09693-.66208-.13364-1.264a18.49243,18.49243,0,0,1,.14637-3.1871A38.42412,38.42412,0,0,1,44.14787,24.39573Zm-5.53-1.07983a8.75761,8.75761,0,0,1,.1218-1.638c.1171-.42987-.06723-.86923.06822-1.29189A5.61791,5.61791,0,0,0,38.737,19.0673c-.00443-.0734-.051-.36407.03154-.39281.1338-.04655.28227.20559.36418.28752a14.21591,14.21591,0,0,1,1.1852,1.16364c.5373.57751,1.06957,1.19348,1.64816,1.70239.07308.15641-.103.19066-.19855.26469a9.24275,9.24275,0,0,0-1.53972,1.533,1.388,1.388,0,0,0-.56.49026,1.28791,1.28791,0,0,1-.37679.53553c-.092.08233-.391.393-.50772.25688-.08435-.09834-.02972-.23218-.01918-.34581C38.83105,24.12718,38.44337,23.75386,38.61784,23.3159ZM20.7979,7.99733c.30911-.36571.69665-.68518,1.0319-1.02834q.53175-.54429,1.04846-1.103.50443-.5452.99492-1.10308c.16792-.19088.33788-.38075.50061-.57616.1261-.15142.38469-.41015.6032-.36075a1.60985,1.60985,0,0,1,.73548.42282c.15263.23719.361.43691.49537.687a.84914.84914,0,0,1,.44.51,2.69369,2.69369,0,0,0,.68006.77,1.67235,1.67235,0,0,0,.64.73,2.87822,2.87822,0,0,1,.62154.63784c.13679.17367.61382.61818.15127.67759a8.39566,8.39566,0,0,1-1.28738.01631,9.89219,9.89219,0,0,0-2.55541.08846,2.72952,2.72952,0,0,0-1.42.13c-.764-.15346-1.2492-.00775-1.51625-.08929a3.61173,3.61173,0,0,0-.95675-.10493c-.08676-.00032-.31441.06923-.335-.062C20.6573,8.15976,20.75127,8.05249,20.7979,7.99733ZM12.42784,18.866c.22077-.6325.04039-1.35431.2385-2.0009a14.67471,14.67471,0,0,1,.07075-2.09407,2.82218,2.82218,0,0,1-.054-1.07942c.08616-.38767-.1441-.75188-.11437-1.13962-.03779-.13934-.09029-.28169.02417-.3967.2492-.58216-.19295-1.18491-.135-1.77951-.09176-.87327.52036-.46129,1.05007-.57983a8.1639,8.1639,0,0,1,2.46985-.12021c.23135.04968.34392-.1619.53005-.17991a5.879,5.879,0,0,0,1.6.22006,7.62505,7.62505,0,0,0,1.77.08,13.22271,13.22271,0,0,0,1.7717.00664c.419.14072.81617-.06374,1.22471-.09062.1445.02238.293-.0957.42583-.02835.73708.33077,1.4913-.24371,2.25574-.07333.925.04724,1.86851.42852,2.772.06557.747-.11543,1.614.09267,2.37-.03.1-.04979.18-.1599.29-.14989a11.75253,11.75253,0,0,0,2.04.27c1.25908.15975,2.43393-.05137,3.69.09.11659.01062.18877-.08424.29156-.111.27458-.07161.32207.14744.37718.35838a4.32272,4.32272,0,0,1,.07024,1.39081,5.86888,5.86888,0,0,0-.03142,2.76049c.01827.5107-.08752,1.0179-.02525,1.53068a2.48142,2.48142,0,0,0,.03312.52046c.054.16379.1733.24425.09643.42851a3.89885,3.89885,0,0,0-.151,1.07755c-.04183.42511-.07817.85082-.10348,1.27725a16.67022,16.67022,0,0,0,.02269,2.55679,1.61266,1.61266,0,0,0,.06006,1.18016c-.06158.39734.20863.46259-.06009.75-.14257.77117.34515,1.53149.23776,2.30221a1.86463,1.86463,0,0,1,.01223.1978,1.07848,1.07848,0,0,1-.39.29979c-1.17576,1.37526-2.75846,2.43561-3.86619,3.88726-.2657.15324-.45456-.292-.73378-.26707a17.59381,17.59381,0,0,1-1.90854-.94c-.763-.38862-1.38956-.17137-2.07146-.34a13.55475,13.55475,0,0,0-1.49188-.24869c-.34187-.04771-.63585.1951-.962.00135-.6399-.19842-1.3275-.0639-1.96617-.25279a12.95882,12.95882,0,0,0-2.82994.35019,1.58555,1.58555,0,0,0-1.16.30009,1.51316,1.51316,0,0,1-.6398.15787,1.28758,1.28758,0,0,0-.35217.01042,5.71951,5.71951,0,0,0-1.11246.592,1.08117,1.08117,0,0,0-.4503.25606c-.126.12118-.41156.14375-.56754.2361-.23971.14193-.38215.27408-.563.02071a2.63791,2.63791,0,0,0-.56485-.58326c-.197-.455-.6315-.64515-.97-.96-.44147-.41044-.83006-.89561-1.24337-1.33485-.26514-.28178-.53831-.55583-.80622-.835-.21715-.22624-.50606-.43281-.489-.77469.03339-.65632.07445-1.30307.1717-1.95335A4.24737,4.24737,0,0,0,12.5457,21.67c-.13051-.67945.06029-1.39391-.008-2.084C12.59522,19.28764,12.21309,19.13835,12.42784,18.866Zm-4.72531,2.9401c.20867-.24481.55861-.38491.69535-.6901a1.00976,1.00976,0,0,1,.43-.6301c.40089-.28169.62934-.74118.93993-.86016.26412-.10117.45517-.39617.63518-.59859a2.24214,2.24214,0,0,1,.404-.3896c.27384-.18285.27974.00122.2803.25526.00132.60023.00765,1.20044.01479,1.80062.01443,1.213.03336,2.426.02559,3.63914-.0004.06153.035.313-.00312.35525-.10659.11827-.33227-.192-.40055-.25807-.14081-.13618-.27964-.27438-.4203-.41072-.36019-.34912-.78768-.60684-1.13052-.96734a3.18965,3.18965,0,0,0-.71428-.43748,4.36025,4.36025,0,0,1-.44257-.37516C7.88984,22.139,7.57514,22.00667,7.70253,21.80605Zm34.98286,4.19841c-.01448.13223-.03076.26429-.04651.39629a10.25972,10.25972,0,0,0-.09051,1.16574,4.31006,4.31006,0,0,1-.04055,1.11928c-.03.24.1.49.09.73a1.25507,1.25507,0,0,0,.06009,1.05c-.069.41734.211.39417-.06007.67017-.1548.50392.227,1.02025.18,1.52979-.05867.12235-.00808.29309-.02.41016a1.09366,1.09366,0,0,0-.04.59986,2.39423,2.39423,0,0,0-.03,1.78c.12372.39451-.04275.77812.01006,1.18012a5.15412,5.15412,0,0,0,.13134,1.11181.25.25,0,0,1,.0168.06791.26914.26914,0,0,1-.0256.10755,3.30033,3.30033,0,0,0-.12252.96281,7.23085,7.23085,0,0,0-.12,1.93992,4.54637,4.54637,0,0,0,.02,1.48c-.199.61613.03565.87183.10333,1.44a.26838.26838,0,0,1-.08344.26341c-.23555.544.30966,1.18385.13917,1.73734-.23232.26591-.64854.04419-.94915.1291-.4777.274-.96833.09945-1.49.13006-.29575.01736-.70974-.10891-.97225.062a1.22926,1.22926,0,0,1-.13738.0942c-.11824.05583-.30447-.07555-.42508-.10428a2.90087,2.90087,0,0,0-.534-.063,3.464,3.464,0,0,1-1.10121-.13915c-.32766.07011-.675-.07075-1.01.03037-.31451.05588-.65041-.0844-.97489-.05649a1.58819,1.58819,0,0,1-.89861-.00806c-.17061-.0766-.36931.045-.52757.09527a1.20443,1.20443,0,0,1-.6853.05215c-.08774-.02431-.17093-.0638-.25955-.08469a1.01275,1.01275,0,0,0-.46495.06706,5.17282,5.17282,0,0,1-.64788.08775,7.66878,7.66878,0,0,1-1.3069-.0292,1.52215,1.52215,0,0,0-.7697-.1483c-.70046-.05792-1.3447.28506-2.05035.1502a2.08969,2.08969,0,0,0-1.30931.16359,3.22606,3.22606,0,0,1-.34981-.11679,2.70428,2.70428,0,0,0-.40371-.05147c-.28563-.01774-.56778-.05087-.85433-.07764-.60644-.05663-1.21579-.07057-1.82438-.08461a5.64736,5.64736,0,0,0-.59118.007,3.55506,3.55506,0,0,1-.49842.03209c-.16075-.00951-.31907-.0546-.48-.04926-.34519.01146-.64735.22066-.99813.14827a1.51717,1.51717,0,0,0-.87326-.04752,4.44708,4.44708,0,0,1-2.06366.0223c-.34951-.20682-.77974-.06271-1.16717-.0871-.2978.00734-.53405.23729-.851.16528a3.91773,3.91773,0,0,0-1.88731.12632,6.47612,6.47612,0,0,0-1.45266-.20637c-.40717.01838-.38328-.12628-.85-.08a9.86318,9.86318,0,0,1-1.47-.06c-.25-.02995-.49.09993-.74.08992-.21-.01-.41-.12988-.62-.08984-.34116.17-1.17079.369-1.09006-.27A5.32193,5.32193,0,0,1,7.372,44.16353a3.14131,3.14131,0,0,0-.05119-1.27624.94468.94468,0,0,1-.093-.59143,6.327,6.327,0,0,0,.03108-.80253c-.03065-.30175.0699-.62069-.06968-.8962a.31481.31481,0,0,1-.01531-.42531c.11471-.52371.04293-1.11584.18387-1.61594.12437-.44121-.04659-1.43721.07386-1.98117a3.41515,3.41515,0,0,1,.00965-1.21262,7.21324,7.21324,0,0,1-.19928-.95515,1.10493,1.10493,0,0,0,.09578-.868,2.56258,2.56258,0,0,1-.16-.88318c.06-.13989,0-.3.02006-.40991a1.22107,1.22107,0,0,0,.03991-.6001,1.52353,1.52353,0,0,0,.15-.93995c.12187-.45606-.23837-.84318-.16-1.29A5.51757,5.51757,0,0,0,7.281,28.23328a2.51568,2.51568,0,0,0-.10613-.4705,1.41949,1.41949,0,0,1,.02906-.53834,15.55365,15.55365,0,0,1,.15392-1.54869c.09831-.139-.01448-.29628.03-.44993.10087-.41835-.078-.892.02315-1.31889.01714-.07231-.01138-.25045.06016-.30027.10355-.0721.32687.2078.43608.25657a2.56937,2.56937,0,0,1,1.08055.78257c.24492.40227.43971.318.62.85009.53195.65128,1.01667.69594,1.42019,1.10971.26421.329.72463.70882,1.01987,1.02012.10686.18595.33119.0983.46006.20015.19932.59246.81334.94,1.09995,1.47.23721.42426,1.03085.9211,1.28,1.41993.16.18993.42.27.58.45995a1.28662,1.28662,0,0,0,.77008.69988c.21383.32942.434.1489.41.52008.22978.45832.85764.59112,1.17.98.03558.14575.20216.228.26.32007a1.11251,1.11251,0,0,0,.36.46994,1.49589,1.49589,0,0,0,.49.8c.19435.4179.69092.4898.9.88013.11732.219.43475.55284.43162.81038-.00224.1838-.24613.2832-.37343.37943a5.501,5.501,0,0,0-.45367.37982,2.628,2.628,0,0,1-.8046.59029c-.18834.26787-.5253.404-.71.69a2.53335,2.53335,0,0,1-.6.4299c-.2.14014-.29.40015-.49.55a1.23092,1.23092,0,0,0-.74992.72c-.34872.16928-.17123.41275-.56006.37a1.69655,1.69655,0,0,0-.62367.62487,2.212,2.212,0,0,1-.29287.35793,1.9688,1.9688,0,0,0-.17264.12371c-.04316.05137-.04174.11842-.07839.17311a.664.664,0,0,1-.1825.15031c-.24555.0863-.34409.34223-.45995.56005-.08.15992-.2.23-.13.46.08709.21187.14978.33645.42006.29.40739-.00991.68652-.36188.98933-.58526.32173-.23735.81688-.34915,1.03062-.71476a1.57206,1.57206,0,0,1,.31-.44994,3.24832,3.24832,0,0,0,.96-.74c1.36088-.65755,2.28992-1.90622,3.41-2.89013a1.89316,1.89316,0,0,0,.67989-2.56983,21.066,21.066,0,0,0-2.82984-3.19c-.08471-.06406-.14467-.24865-.2308-.33358-.20073-.19791-.81373-.51565-.554-.8565.36087-.47362,1.0292-.34585,1.49478-.64a2.07225,2.07225,0,0,1,1.16-.41989c.22525.05447.39913-.08444.6-.14018a4.10776,4.10776,0,0,0,1.17-.06005,19.68339,19.68339,0,0,1,8.14161.6691,6.52984,6.52984,0,0,0,1.23249.319,1.14236,1.14236,0,0,1,.73858.21437c.09168.17027-.20816.38319-.31242.4911a4.46786,4.46786,0,0,0-.93028,1.13649c-.5734.29809-.47988.87355-.93993,1.2a3.25936,3.25936,0,0,0-.63849.768,3.65817,3.65817,0,0,0-1.18485,1.68335c-.06986.73939.57651,1.241,1.03758,1.72688a33.87664,33.87664,0,0,0,4.65954,4.24833c.40092.43508,1.01114.48658,1.45615.87351a.89626.89626,0,0,1,.291.19057c.24633.11527.60837.07252.659-.25069a1.29765,1.29765,0,0,0-.5908-1.02668c-.242-.15648-.38477-.41432-.61921-.57312a1.29979,1.29979,0,0,0-.44-.41013c-.20178-.319-.25789-.506-.63-.70995-.27155-.37624-.79393-.35777-1.08-.7a5.91646,5.91646,0,0,0-1.26467-1.059c-.1482-.04051-.28922-.07447-.33524-.24118-.08-.29-.40005-.4399-.57-.67988-.09322-.20672-.296-.33389-.41788-.5175-.065-.26614-.22428-.2827-.3743-.55812-.17481-.117-.07472-.29074-.00583-.4396a1.17492,1.17492,0,0,1,.23384-.41322c.12645-.12731.27515-.20892.34687-.38163.04372-.10527.06927-.21812.12221-.31907.06114-.1166.15664-.21305.213-.332A.37132.37132,0,0,1,31.074,34.68a.51863.51863,0,0,1,.1733-.05792c.47555-.14916.533-.9352.89053-1.236a7.50286,7.50286,0,0,0,.75549-.70844c1.01136-.43038,1.05616-1.24144,1.50454-1.60169.32389-.24769.71679-.72033,1.03009-1,.12446-.07929.12855-.22911.15834-.36066a.17891.17891,0,0,1,.031-.07756.187.187,0,0,1,.06963-.04438,3.23179,3.23179,0,0,0,.82229-.57689c.11588-.10523.22447-.21692.348-.31292.11639-.09049.31233-.14964.41073-.24764a7.84107,7.84107,0,0,1,1.27992-1.19c.2-.14989.28-.41014.47-.57005.18126-.15256.37044-.21457.51246-.42053.14551-.211.28613-.42278.43889-.62975a.34387.34387,0,0,1,.09466-.09779c.06953-.04118.15841-.02887.23434-.05652a.39886.39886,0,0,0,.131-.08923c.32856-.30668.4617-.77874.81865-1.056A3.47462,3.47462,0,0,1,42.51,23.55025c.2325-.05018.17925.2623.18016.39692a4.61963,4.61963,0,0,1-.00236.52865c-.02531.1189.044.198.10008.29281.11824.19991-.05071.50063-.06029.71862C42.72,25.66015,42.70422,25.83246,42.68539,26.00446Z"/><path d="M31.01787,21.23582c-.03986-.47244.07986-1.04791-.38-1.38989-.19-.18018-.43-.2002-.6-.33008a1.94918,1.94918,0,0,0-1.15-.53,2.21793,2.21793,0,0,0-1.26-.36981,8.74268,8.74268,0,0,0-1.91245-.2068,8.53659,8.53659,0,0,1-.00912-1.61992c-.01752-.3138-.22853-1.04509.02358-1.29679.20581-.20546.94713-.01088,1.20557.03708a8.80051,8.80051,0,0,1,1.31247.33632c.28539.30834.7306.15534,1.03068.41609.87782.861,1.25-.21256.64577-.8964a3.3572,3.3572,0,0,1-.57-.46492c-.29689-.10706-.492-.367-.82645-.40477a1.89331,1.89331,0,0,0-1.68-.43,2.44336,2.44336,0,0,1-.71928-.08228c-.2231-.04109-.60988.09363-.60926-.23789a7.62958,7.62958,0,0,0-.09136-.87981c-.01748-.15558.05269-.28343-.11011-.42011-.1215-.21691-.29671-.18075-.49-.12984-.22.06977-.2.18989-.28016.34007-.20619.28215-.14452.59587-.20565.9177-.04169.21411-.01363.32706-.26609.37932a9.08663,9.08663,0,0,1-1.39811-.03726c-1.00834.18-.84868.26877-1.72.41016-.25.06979-.43.30978-.67.4299a1.16249,1.16249,0,0,0-.87994.80011c-.26881.23175-.15038.54723-.48.68988-.47168.74906.20551,1.8509.79993,2.29006.29422.36937.5839.27388.94.68.83478.35923,1.129.10023,1.76008.19975a10.60313,10.60313,0,0,0,1.33006.1803c.12307.04037.27253-.1089.38463-.02337.09619.0734.02625.07585.01764.15258a15.10258,15.10258,0,0,1-.08229,1.64078c-.02005.21.11.41993.08994.62989-.01149.21978-.17457.42819-.04.62988a1.771,1.771,0,0,1-.9-.11992c-.21-.05-.43.06011-.64.00005-.17-.04-.30993-.18988-.48993-.17994a2.43429,2.43429,0,0,1-.62558.02663c-.2225-.04645-.28576-.24851-.48287-.32434-.33738-.15266-.984-.00453-1.18168-.39245-.03927-.16531-.22032-.199-.34-.30984-.22533-.37013-.8801-.5743-.86.22a2.2804,2.2804,0,0,0,.8007,1.22456,1.38673,1.38673,0,0,0,.81935.53541,1.09779,1.09779,0,0,1,.75.17c.50884.25941.91807.18551,1.19.39007a2.26953,2.26953,0,0,0,.97.18993,1.58012,1.58012,0,0,0,1.09.06987,3.21692,3.21692,0,0,1,.2,1.06007c-.07515.21879.0631.41872.15.6201.08.13989.06.26.29.32983.37459.16589.656-.20406.59991-.55011.04134-.11214.1541-1.43005.1601-1.42987C27.60332,24.17636,30.63656,23.53407,31.01787,21.23582Zm-6.73136-3.082a11.55675,11.55675,0,0,1-3.82447-.60321c-1.4002-1.51892,2.1885-2.05659,3.14811-2.22224a.54564.54564,0,0,1,.45266.09789c.1163.12608.08366.33727.13677.491.20484.49078.01345,1.02852.0696,1.54633C24.23745,17.70051,24.35294,17.937,24.28651,18.15382Zm5.35625,3.0829c-.1729.26538-.18364.35754-.51492.37918-.459.27652-.89871.78248-1.10995.77987-.52306.15226-1.177.13939-1.57.4902-.26892-.17513-.60387-.023-.86508-.12372-.145-.11558-.068-.40544-.025-.552.19033-.37087-.01789-.78442.13-1.15434.18507-.30678-.40337-1.18641.14306-1.15012a7.44606,7.44606,0,0,1,1.667.25c.21.05007.44-.05.64022.01014a1.10555,1.10555,0,0,0,.54316.19263c.19817-.00177.50191-.05167.64755.13328.06289.07987.04561.14439.1483.21859A.38838.38838,0,0,1,29.64276,21.23672Z"/></svg>