<svg id="Layer_1" data-name="Layer 1" xmlns="http://www.w3.org/2000/svg" viewBox="0 0 50 50"><defs><style>.cls-1{fill:#fff;}.cls-2{fill:#f79f92;}</style></defs><path class="cls-1" d="M25.19254,48.01884a.49643.49643,0,0,1-.41622,0c-1.89781-.8411-16.17153-7.4047-17.74983-15.22519C5.73405,26.38958,5.98489,10.33172,5.99564,9.68594c.00017-.01017.00876-.00916.01872-.00716,11.74837,2.36251,17.491-5.64842,18.71673-7.63717a.29456.29456,0,0,1,.50667,0c1.22577,1.98875,6.96837,9.99968,18.71674,7.63717.01-.002.01855-.003.01872.00716.01075.64578.26159,16.70364-1.03086,23.10771C41.36406,40.61414,27.09034,47.17774,25.19254,48.01884Z"/><path class="cls-2" d="M6.08659,23.26478c.1593,4.66688-.02755,9.32206,2.8122,13.29351a29.44784,29.44784,0,0,0,6.71358,6.31411c2.7113,1.99752,6.89113,5.65547,10.563,4.51235a7.915,7.915,0,0,0,1.22755-.54093l2.34863-1.19793c1.97392-1.00681,4.28055-2.06139,5.62462-3.87738a17.10746,17.10746,0,0,0,2.89888-6.30112A55.113,55.113,0,0,0,39.55218,26.035c.08982-1.62121.12526-3.24509.12545-4.86866a54.00522,54.00522,0,0,0-.87771-9.79859c-.34334-1.85185-1.648-1.72365-3.17228-1.96492a11.90229,11.90229,0,0,1-4.68949-1.81629A23.66678,23.66678,0,0,1,27.57748,4.7012C26.839,3.982,26.006,2.49054,24.95479,2.18051c-.368-.10852-.71224.21-.96308.50027a39.23822,39.23822,0,0,1-4.31181,4.566c-1.83368,1.53752-3.885,1.88811-6.19723,2.31582a13.092,13.092,0,0,1-5.3086.23767c-1.04917-.244-1.791-.26572-2.07351.90749a22.45507,22.45507,0,0,0-.23383,6.11622Q5.97667,20.04437,6.08659,23.26478Z"/><path class="cls-1" d="M35.99373,23.26325v5.93553a.03157.03157,0,0,1-.03157.03156H28.011a.03157.03157,0,0,0-.03156.03157v7.95114a.03158.03158,0,0,1-.03157.03157H22.01237a.03157.03157,0,0,1-.03157-.03157V29.26191a.03158.03158,0,0,0-.03157-.03157h-7.939a.03156.03156,0,0,1-.03157-.03156V23.26325a.03156.03156,0,0,1,.03157-.03156h7.939a.03158.03158,0,0,0,.03157-.03157V15.249a.03157.03157,0,0,1,.03157-.03157h5.93552a.03158.03158,0,0,1,.03157.03157v7.95114a.03157.03157,0,0,0,.03156.03157h7.95114A.03157.03157,0,0,1,35.99373,23.26325Z"/><path class="cls-1" d="M31.73693,23.41359a19.20049,19.20049,0,0,1,2.604-.36418,2.249,2.249,0,0,1,1.38086.33774,2.27557,2.27557,0,0,1,.50955,1.99175L36.03,28.32164c-.02861.41844-.1101.91676-.49346,1.0869a1.13884,1.13884,0,0,1-.53282.05482c-1.2401-.075-2.72248-.62092-3.929-.47114a23.64518,23.64518,0,0,1-3.06369.23812.03157.03157,0,0,0-.03156.03157v7.95114a.03158.03158,0,0,1-.03157.03157H22.01237a.03157.03157,0,0,1-.03157-.03157V29.26191a.03158.03158,0,0,0-.03157-.03157h-7.939a.03156.03156,0,0,1-.03157-.03156V23.26325a.03156.03156,0,0,1,.03157-.03156h7.939a.03158.03158,0,0,0,.03157-.03157V15.249a.03157.03157,0,0,1,.03157-.03157h5.93552a.03158.03158,0,0,1,.03157.03157v7.95114a.03156.03156,0,0,0,.03151.03157c.55158.00083,1.12283-.15267,1.6711-.10724.395.03273.7093.24384,1.08253.29639A3.787,3.787,0,0,0,31.73693,23.41359Z"/><path d="M44.79412,10.99242c.21365-2.63682-.76972-2.07392-2.79549-1.78268-.409.17082-.84995-.05594-1.23283.13348-.29867.14656-.60878-.064-.94044.08316-.56978.30924-1.05283-.11842-1.634.03136a3.03691,3.03691,0,0,0-1.251-.30275c-.6502-.29311-1.43381-.16385-2.06831-.52659A16.602,16.602,0,0,1,29.7699,5.88527c-.146-.0851-.33936-.11917-.47139-.21242-.21607-.39294-.63215-.4849-.97638-.69914a3.44671,3.44671,0,0,0-.76775-.847c-.24195-.66909-.614-.78379-.83922-1.30646-.14347-.32947-.42427-.46579-.64468-.76244a6.54608,6.54608,0,0,0-.65965-.76137.75165.75165,0,0,0-1.06956.19373c-.65212.578-1.07256,1.37989-1.70144,1.98115a11.59682,11.59682,0,0,1-1.95776,2.09364,1.74134,1.74134,0,0,0-.71162.67167c-.45187.09234-.6184.49992-.90527.78713a4.54382,4.54382,0,0,0-.5457.24739c-.31159.03781-.42707.393-.76932.36021a2.36784,2.36784,0,0,0-.89426.37806,3.51912,3.51912,0,0,0-1.17307.47462,15.4006,15.4006,0,0,1-3.29984.634,3.36355,3.36355,0,0,1-1.30519.18385,8.74946,8.74946,0,0,1-2.02464-.04134c-.16826.01669-.34913.10351-.511.10534A2.38766,2.38766,0,0,0,7.33636,9.345a4.90757,4.90757,0,0,0-.803-.18648.80262.80262,0,0,0-.80952.03955c-.56615.18637-.43165.964-.46443,1.446a.9531.9531,0,0,1-.04929.5298c-.10916.35339.08957.70193.06939,1.05451a41.92815,41.92815,0,0,0-.05069,4.91931,15.03965,15.03965,0,0,0,.05336,1.62274,1.77275,1.77275,0,0,0,.09788,1.01837c-.16838.44493.07417.81845.15977,1.233a3.10681,3.10681,0,0,0-.006,1.18267,2.48134,2.48134,0,0,0-.10932,1.08155c.05283.49609-.128.91756.09628,1.42387.02814.9943.01044,1.95769.07139,2.95375-.04576.74474.24231,1.41049.23472,2.14471a13.91182,13.91182,0,0,0,.37234,2.4003c.19346.30674-.01015.65692.23646.99a1.74456,1.74456,0,0,1,.30664.48492c.11115.583.08042.83.39111,1.18474a2.8089,2.8089,0,0,0,.37212,1.08814,1.24783,1.24783,0,0,1,.26409.49172c.323.59682.914,1.04579,1.22653,1.65177a11.64237,11.64237,0,0,0,2.39627,2.44817A13.08344,13.08344,0,0,0,13.2,42.04415a1.82874,1.82874,0,0,0,.86667.56843c.30345.51354.92671.37814,1.262.79126a3.28334,3.28334,0,0,1,.46794.39519.892.892,0,0,1,.54906.38795,2.40837,2.40837,0,0,0,.84259.58483,1.97548,1.97548,0,0,0,1.0132.6011,34.83008,34.83008,0,0,0,5.47387,2.97615c.5351.1378,1.04821.74609,1.6926.36852L25.3117,48.494h0l.05615.22357c.35827-.27056.66863-.20672,1.00319-.48761a1.00588,1.00588,0,0,1,.62818-.42453,2.7,2.7,0,0,0,.85738-.42255c.6789-.06218.94275-.40734,1.52415-.57577.36711-.07811.57685-.4151.898-.57377.50981-.25126.97863-.50326,1.46824-.77071A20.98787,20.98787,0,0,0,34.5521,43.696c.626-.36043,1.125-.89578,1.76572-1.22849.12466-.13007.21035-.31832.3386-.4324.45652-.13519.629-.54709.90375-.87983.2533-.13845.45362-.346.71125-.47471a.90842.90842,0,0,1,.52567-.4291,2.32841,2.32841,0,0,0,.77118-.69776,2.56465,2.56465,0,0,0,.93379-.99456,9.95421,9.95421,0,0,0,2.504-3.65754,7.63934,7.63934,0,0,0,.822-3.39175c.2341-.41135.05177-.83727.03032-1.2593a2.95352,2.95352,0,0,0,.16565-1.17851,2.67622,2.67622,0,0,0,.244-1.32455c.27582-.71492-.04157-1.50886.20256-2.2412.03119-.86251.13985-1.75037.204-2.62348a5.911,5.911,0,0,1-.02768-1.38756c.09341-.70746-.05627-1.41845.08344-2.119-.0212-.17522-.11316-.35742-.12137-.52539.18722-.42675-.04133-.83031-.109-1.24a3.04659,3.04659,0,0,0,.05871-1.18025c.25771-.59769.07557-1.0765.20568-1.6036.109-.35093-.092-.7034-.07218-1.054C44.72973,12.83614,44.78142,11.93384,44.79412,10.99242Zm-1.342.708c-.16806.32109-.03457,1.24591-.24737,1.78044a7.5153,7.5153,0,0,1-.04874,1.71052c-.02445.24182.10568.4787.0881.72126a1.21158,1.21158,0,0,0,.05406,1.02061c-.07724.34139.19648.4142-.07187.65284-.15835.48369.20812,1.00431.16088,1.49335l-.00489-.00012c-.06787.29.00734.28346-.10823.73644.08516.25657-.05967.44717-.15426.66908-.01213.33471-.02147.67936-.00932,1.01666a1.27524,1.27524,0,0,1,.13263.74262c-.07415.40471-.05277.99187-.09009,1.40978-.05494.1959.14822.3097.16364.46814a2.11388,2.11388,0,0,0-.22727,1.01968,5.41954,5.41954,0,0,1-.20373.89169c.04828.32327-.10213.652-.037.98317a4.38579,4.38579,0,0,0-.08975,1.43183,1.18983,1.18983,0,0,0-.03372,1.01262c-.10877.34465.16612.42386-.13143.63647-.21354.4558.10609,1.00983-.01,1.48109l-.00464-.00073c-.08227.12414-.05566.28412-.08716.38348a1.0582,1.0582,0,0,0-.1369.56008c-.03131.14811-.18829.22874-.26227.34812a1.63356,1.63356,0,0,0-.1167.43457,1.28523,1.28523,0,0,0-.10931.76143,8.2979,8.2979,0,0,1-.81221,1.54435c-.14606.13425-.02572.32883-.09333.46725-.3545.1292-.44959.45771-.71386.71044-.22517.12766-.3101.36576-.53958.48292a5.53327,5.53327,0,0,0-.75274.81579c-.4841.48635-.51926.31848-.97448,1.00673a1.15435,1.15435,0,0,0-.708.70512c-.30409.16788-.17134.41891-.522.37353-.46163.19211-.632.7817-1.03567,1.05383l-.00293-.00384c-.144.03631-.23364.1745-.324.22711a1.14108,1.14108,0,0,0-.49582.30706,1.36935,1.36935,0,0,0-.82689.401,1.39875,1.39875,0,0,0-.60109.5608,14.87394,14.87394,0,0,1-1.54123.99174c-.19262.06322-.17224.29417-.29471.39467-.37039-.02044-.63474.2257-.96876.37437a5.32572,5.32572,0,0,1-.85428.31262c-.24261.217-.60071.26456-.843.498a4.80874,4.80874,0,0,0-1.25435.68746,1.2205,1.2205,0,0,0-.87354.51376c-.34152.08471-.277.36025-.60942.228-.462.06252-.75674.56057-1.17067.74944l.0188.07495h0l-.02-.07971c-.07309-.04309-.13514.03466-.15405-.08155-.085-.10735-.2594-.09838-.3733-.16222-.13037-.07539-.19165-.23493-.3081-.3299-.29857-.14366-.6054-.29309-.91549-.41884a1.208,1.208,0,0,1-.72537-.18653c-.33221-.23847-.87052-.46652-1.22924-.679-.1517-.13434-.3417-.00042-.49026-.05536-.17054-.32657-.51418-.43884-.81132-.65063-.22667-.21773-.51227-.32128-.70279-.57669-.31011-.099-.52753-.38949-.85285-.47874a4.99691,4.99691,0,0,0-1.22148-.73753,1.18271,1.18271,0,0,0-.87888-.49844c-.24178-.2437-.4528-.06423-.496-.41762-.30359-.40165-.93615-.387-1.30664-.70387l.00293-.00385c-.19174-.22806-.22478-.1563-.51874-.521-.25343-.08254-.318-.31036-.43509-.51579-.26037-.20122-.51046-.42246-.77512-.62437a1.23218,1.23218,0,0,1-.648-.359c-.26851-.29979-.69333-.67819-.97167-.98247-.10493-.17035-.32605-.09674-.45073-.19154a5.74125,5.74125,0,0,0-.7204-1.16565c-.194-.141-.15616-.426-.35939-.54107a10.70234,10.70234,0,0,1-.77857-1.28094A2.42412,2.42412,0,0,1,8.375,34.209c-.08116-.10841-.25279-.16468-.29918-.29133-.02291-.33678-.30067-.29946-.11158-.59477-.0023-.46454-.48075-.82981-.508-1.33071l.00488-.00085a4.76425,4.76425,0,0,1-.02775-.72839c-.12259-.23772-.0072-.44653.05294-.67658-.03589-.32943-.08594-.66346-.1379-.99409a1.2554,1.2554,0,0,1-.22687-.71343c.01929-.408-.07289-.98653-.08373-1.404.03131-.20055-.18373-.28917-.21784-.44432a2.12638,2.12638,0,0,0,.10861-1.03787,5.39581,5.39581,0,0,1,.1-.90916c-.08472-.31615.02834-.66023-.07651-.98279a4.368,4.368,0,0,0-.08261-1.43792,1.2081,1.2081,0,0,0-.09763-1.016c.06265-.34554-.21472-.4046.04159-.65454.13754-.49-.24858-.99421-.22142-1.48476l-.032.00068.03686-.0008c.05665-.13952-.00048-.29553.01123-.401a1.11264,1.11264,0,0,0,.03022-.589,1.40321,1.40321,0,0,0,.13717-.921c.113-.45144-.23887-.81737-.17625-1.25841a8.5873,8.5873,0,0,0-.00936-1.622c-.10455-.13206-.227-.25657-.07719-.41053.15669-.25476.04073-.58343.09957-.87481.09-.2495.00183-.4963.10227-.74122.1-.13955-.00659-.28632.03394-.43719a8.08419,8.08419,0,0,1,.07211-1.43627.56325.56325,0,0,0-.00544-.16352c-.028.00089-.09687-.04512-.0857-.06458.01367-.02783.126.09693.08838.05433-.0271-.03443-.06421-.15058-.0354-.1576.01807-.00476.0354.03351.05225.0066.08283-.11515.24507.01079.31419.11391.47735.22952,1.04989-.055,1.54836-.0115l-.00049.00476c.291.07412.31284.00715.7573.13113.26931-.0796.46222.07691.69558.17354.34957-.01078.71208-.02961,1.0625-.07021a1.36651,1.36651,0,0,1,.75611-.19391,11.51058,11.51058,0,0,0,1.45872-.17533c.20938.01208.27994-.19608.43579-.2571.558.14892.89308-.13768,2.02761-.2157.562-.20829,1.11077-.45967,1.6904-.61836.24148-.08753.409-.312.6448-.407a1.72994,1.72994,0,0,0,.60034-.22351,1.54848,1.54848,0,0,1,.55889-.5022c.08663-.16651.195-.17675.36373-.14028.47589-.16076.72519-.72248,1.1128-1.00513.15983-.03448.25995-.20575.3823-.28514a1.18581,1.18581,0,0,0,.49924-.35374c.59291-.23207.52538-.20853,1.19121-.92207.28115-.7875,1.13048-1.20365,1.48823-1.95889-.04851-.39122.14452-.30788.37386-.517.0686-.03052.05381-.11521.11251-.12182.10359.05734.12345-.0505.09521.18948.01191-.00841.0261-.04359.01905-.00353.00849.12615.16853.23439.24874.33734.4264.566.33219.67243.96034,1.16353.12782.17105.17714.40805.35707.5297a1.53447,1.53447,0,0,1,.61592.42481.27374.27374,0,0,1,.2295.31087c.26728.45957.91083.54986,1.28471.88346l-.00293.00378c.07349.137.23364.19781.30933.2774.08691.08869.1184.21131.23535.27015.26941.07608.35358.3061.49679.51438a5.3914,5.3914,0,0,0,.90893.55855,1.39139,1.39139,0,0,1,.74417.25167,9.90883,9.90883,0,0,0,1.30907.67317c.17031.13363.34926-.01865.5115.01384.37356.41342.64025.35259,1.28269.69968a13.74159,13.74159,0,0,0,2.27445.65761c.24876.06146.51219-.03181.76048.02032a1.14777,1.14777,0,0,0,1.06445.0226c.34788.09077.43658-.17885.67749.09567.50205.19674,1.04047-.22783,1.54029-.21294l.00024.00482a1.29621,1.29621,0,0,0,.41382-.0014,1.18155,1.18155,0,0,0,.61035.00714,1.45762,1.45762,0,0,0,.958.01144c.097-.02083.321-.00411.33887-.057.00432-.06313.15826-.24935.20849-.1908a2.81762,2.81762,0,0,0,.01264.899C43.47936,11.42209,43.60139,11.54582,43.45208,11.70043Z"/><path d="M25.78728,37.9287a1.99513,1.99513,0,0,1,1.33815-.04328c.73628-.143,1.7404.25422,1.57808-.9824a1.69652,1.69652,0,0,1,.04473-.75777,10.91773,10.91773,0,0,1-.0109-1.955c-.02188-.85449.05392-1.73948.07868-2.60608a5.48857,5.48857,0,0,1-.05681-1.54235c.00366-.0091-.02173-.04383-.0083-.05231.00512-.01032.01758-.03864.04541-.024.2542.14293.58864-.04392.842-.07645.434.18066.81971-.05537,1.23046-.12934.27565.06258.55741.03856.82959.11145.471-.16926.9171.19313,1.41335.08328.49976-.03178.8935.169,1.415-.03362.60541-.0757,1.46147.27985,1.93655-.15028.39113-.30674.2981-1.03468.3254-1.442a8.898,8.898,0,0,0-.05271-2.0186c.01646-.79886.04984-1.51606-.00719-2.32941-.00128-.40861.19024-.97541-.21379-1.21892a2.19314,2.19314,0,0,0-1.47653-.214.9493.9493,0,0,1-.739.11141,2.56388,2.56388,0,0,1-.59936-.06817.86351.86351,0,0,1-.66089-.02395c-.41948-.165-.86563.0443-1.27881-.104-.35194-.10767-.69683.096-1.04736.07562-.64262-.05-1.25975-.02691-1.8938-.08774a.23082.23082,0,0,0-.03394-.02667c.00269-.01147.00342-.02863.03076-.03339-.16031-.92764-.01806-1.98211-.10159-2.94025a1.89147,1.89147,0,0,0-.07647-1.01164c.24325-.54655-.22964-.95-.08594-1.461a2.88655,2.88655,0,0,0,.00175-.9605c.08431-.50945.28083-1.38688-.37748-1.47624a5.22158,5.22158,0,0,0-1.87759-.01429c-.48172.026-.96069-.10767-1.42408-.04041-.82592-.07485-1.6052-.07007-2.44312-.10558a.97414.97414,0,0,0-1.01854.38483c-.44195,1.00534-.04308,2.23382-.223,3.29964.02544.17376.12152.35226.13189.51936-.18056.43233.05566.821.12949,1.23058-.0627.27574-.03843.55739-.11145.8296a.86452.86452,0,0,1-.024.66095,2.56924,2.56924,0,0,0-.039,1.00806c-.00784.12982-.04324.0719-.065.09326-.10323-.02745.12219.14713.00268.13137a.36529.36529,0,0,0-.10669-.01589c-2.24674-.20687-4.51162.03549-6.7666-.0816-.72036.04222-1.26485.53391-1.04682,1.30371a2.27353,2.27353,0,0,1,.091,1.26868c-.12008.29911.11633.58537-.07178.87767a2.5734,2.5734,0,0,0-.039,1.00807,2.877,2.877,0,0,0,.01082,1.31817c.02893.45066-.24643,1.61448.49207,1.69582a42.10791,42.10791,0,0,0,5.70265.05243,1.87471,1.87471,0,0,0,1.01171-.07658,1.10659,1.10659,0,0,0,.66139.02542c.03593-.06455.19062-.232.24584-.11139a.2825.2825,0,0,1-.05935.20751c-.00144.05012.06692-.01.06643.14936a2.53609,2.53609,0,0,0-.14961,1.06867.94676.94676,0,0,1-.04474.52666,10.90106,10.90106,0,0,1,.01066,1.955c.0983,1.22884-.30317,2.60113.08521,3.79781.25313.75458,1.89064.47189,2.22351.49573.633-.08038.90733.12277,1.53365-.10048A1.29439,1.29439,0,0,0,25.78728,37.9287Zm-1.37353-1.26892a1.10262,1.10262,0,0,0-.58765-.04023c-.15088-.01294-.2749-.13122-.42236-.16784-.16369-.05386-.46072.05528-.592.0011-.395.38709-.131.0083-.1863-.26478a4.89173,4.89173,0,0,0-.02731-.90787c-.10429-.13344-.22589-.25592-.07541-.40994.17008-.32167.04028-1.24381.25245-1.777-.0651-.32107.06308-.65951-.02817-.98726a4.38315,4.38315,0,0,0-.02085-1.44158,2.48118,2.48118,0,0,0-.06588-1.363.70034.70034,0,0,0-.12124-.41608.69723.69723,0,0,1-.3271-.34323c-.57078-.30273-1.36275.1352-1.971.129v-.00482a7.40612,7.40612,0,0,1-.738-.09066c-.25325.09157-.44895-.04912-.67212-.13815-.33468-.00521-.68023-.00329-1.01661.02041a1.27862,1.27862,0,0,1-.7378.15692c-.41135-.0628-.99031-.016-1.41235-.03436-.19673-.04607-.30393.16146-.46019.18408-.1368-.0399-.29429-.172-.43313-.16346-.09142.02055-.12721-.00933-.09884-.095-.02746-.02206.06643-.10718.10105-.11028-.05752-.00775-.02055-.11189-.01807-.16107a8.34927,8.34927,0,0,1,.06233-1.43573c.02337-.2417-.108-.47748-.09309-.71985.01245-.20447.12866-.40363.08667-.60443-.2382-.49914-.07132-.43725-.21384-.88758.10413-.1726.21543-.27528.156-.51391a.4604.4604,0,0,1-.18433-.257.08307.08307,0,0,1,.07886-.02527c.06627.06656.1013.01166.1377.02557.07572.09661.36542.05372.50808.04024.15085.01293.27488.13121.42234.16777.33453.00524.68011.00336,1.0166-.0203a1.27663,1.27663,0,0,1,.73755-.157,8.21055,8.21055,0,0,0,1.61963.00183c.13282-.10474.25634-.22566.40991-.07555.307.164,1.21065.06075,1.61352.20233.23191.1035.55831-.01081.8147.03146.82188.03421.8102-.70841.82734-1.26852a3.3307,3.3307,0,0,0-.02861-1.245c.01255-.20448.12876-.40363.08677-.60444a1.39237,1.39237,0,0,1-.15275-.70143.24917.24917,0,0,1,.06514-.36594c.15046-.48565-.22448-.99993-.18534-1.48866h.00488c.06006-.13806.00659-.2951.02075-.40015a1.102,1.102,0,0,0,.04023-.58765,1.40481,1.40481,0,0,0,.15231-.91779c.00009-.14012.04013-.44152-.00479-.38158-.04722.00089-.25-.20831-.14039-.21328a.3287.3287,0,0,0,.19337.0292,4.35642,4.35642,0,0,0,.856-.02733c.08861-.04646.15379-.15535.25316-.15144.47535.26351.78609.11017,1.38818.22734.23921-.05781.44549.15484.67187.07365.34914.07883.86359-.03819,1.16773.007a.09293.09293,0,0,1-.00366.06445c-.029.02173.11011-.11419.09448-.05749a.14425.14425,0,0,1-.09546.06055c.07091.31537.19076.41874.16129.77668a.24929.24929,0,0,1-.0649.36595c-.15093.48567.22456.99991.18511,1.48865h-.00464c-.06006.13806-.00659.29511-.02075.40015a1.10279,1.10279,0,0,0-.04023.58765,1.40236,1.40236,0,0,0-.15231.9178,1.30579,1.30579,0,0,0,.12544.822c.21152.642-.42235,2.2129.50966,2.3866.15534-.00323.31769-.10808.46735-.10674a3.82121,3.82121,0,0,0,.54346.15012,6.44587,6.44587,0,0,1,1.57446.17818,7.63583,7.63583,0,0,1,1.709.04411c.2417.02358.47754-.10782.71973-.093.20459.01251.40356.12866.60449.08667a1.39347,1.39347,0,0,1,.70143-.15257.24942.24942,0,0,1,.36594.06509.93527.93527,0,0,0,.56569-.01157c.12207-.02327.0625-.05153.11792-.0785.05591-.0492.176-.11316.22778-.0846-.066.08654-.01221.10663-.02563.14655-.01612.0476-.085.08661-.06983.10888.10765.1647-.074.43649-.13821.6164a2.03211,2.03211,0,0,0,.01565.49542c-.12131.44958.2291.819.1617,1.25891-.0626.41126-.01613.99045-.03452,1.41236-.07659.21721.34784.42431.10821.57325-.16843.04087-.01457.22374-.12722.17487-.10961-.08717-.10559-.00061-.18483-.102A3.94283,3.94283,0,0,0,33.9892,28.464a4.38538,4.38538,0,0,0-1.44166.02113c-.20459-.01265-.40381-.1288-.60449-.08681a1.39383,1.39383,0,0,1-.70143.15257.24952.24952,0,0,1-.36594-.065c-.48567-.15072-.99995.22456-1.48879.18523v-.00482a5.44072,5.44072,0,0,0-1.30029-.0598c-.61017-.07068-.95808.12952-.88449.83091-.01043.55066-.06733.77295.12549,1.12664.11675.3804-.04164.75739.00734,1.14845a4.90645,4.90645,0,0,0,.02728.90784c.10434.13229.22585.25688.07541.41-.17177.3281-.03758,1.2273-.25244,1.777.06505.32126-.06315.65925.02792.98719a1.25426,1.25426,0,0,1-.07207.60919c-.02392-.02118.10889.06311.092.0943-.12034-.06023-.08293-.1626-.092-.00317-.11044.11442-.3333.03593-.47265.07036a.24958.24958,0,0,1-.366-.06516c-.48559-.15062-1,.22458-1.48853.18523v-.00476C24.67571,36.62047,24.51873,36.674,24.41375,36.65978Z"/></svg>