<svg id="Layer_1" data-name="Layer 1" xmlns="http://www.w3.org/2000/svg" viewBox="0 0 50 50"><defs><style>.cls-1{fill:#fff;}.cls-2{fill:#b8e4e5;}</style></defs><circle class="cls-1" cx="24.97776" cy="24.7193" r="15.68028"/><rect class="cls-1" x="16.99421" y="1.93543" width="15.62886" height="46.06052"/><ellipse class="cls-2" cx="27.52751" cy="24.7193" rx="12.78355" ry="15.14901"/><path d="M41.13982,26.18872a16.9627,16.9627,0,0,0-.06013-4.26c-.3324-.92257-.44712-1.85015-.84994-2.74a4.634,4.634,0,0,0-.8-1.59c-.04787-.55818-.50042-.78512-.81008-1.16a2.81264,2.81264,0,0,0-.71988-1.14006,2.77862,2.77862,0,0,0-.8602-1.27,2.1146,2.1146,0,0,0-.94992-.94994,9.06758,9.06758,0,0,0-1.2299-1.10012c-.549-.54909-1.35211-.93488-1.5575-1.21746a7.3677,7.3677,0,0,1,.01981-1.08209c-.09211-.48048.15-.92025.00767-1.40045a2.17436,2.17436,0,0,1-.15993-.62,4.12928,4.12928,0,0,0,.05006-1.43,10.21554,10.21554,0,0,0,.1998-1.95c.11511-.421-.0878-.85181-.08-1.26993.06955-1.56239.09908-1.9141-1.66993-1.8599-2.18163-.17657-4.34812.12429-6.53-.04011-.21348.03523-.43006.12577-.64013.14a1.74764,1.74764,0,0,0-.87988-.02,1.32121,1.32121,0,0,1-.8999.10994,3.69643,3.69643,0,0,1-.73022-.06994,1.22768,1.22768,0,0,1-.8-.02,3.215,3.215,0,0,0-1.23-.03989,2.61271,2.61271,0,0,0-1.41992.01c-1.14819.05692-2.39523-.51094-2.33,1.19-.13195,1.41748-.0036,2.76636-.00968,4.16a28.78989,28.78989,0,0,0,.04966,2.89c.27913-.11279.10761,1.32884.13958,1.479.00665.20647-.18053.24442-.32952.34095-.36044.34918-.88266.51153-1.16992.91l.10913.13836-.10913-.13836c-.21479.3224-.617.40022-.83009.77a1.90385,1.90385,0,0,1-.32006.51,3.113,3.113,0,0,0-.53.47c-.21745.08664-.29887.31127-.41989.49a2.43211,2.43211,0,0,0-.8799.87,1.1811,1.1811,0,0,1-.4102.46c-.30252.2912-.33494.74788-.56,1.08a11.2934,11.2934,0,0,0-1.81,4.53,20.46759,20.46759,0,0,0-.42,3.19006c.00645.21183.11382.40351.13.61a2.47975,2.47975,0,0,0,.22006,1.4,3.17,3.17,0,0,0,.04.7c-.0896.35078.20649.64672.08974,1.00995a3.31367,3.31367,0,0,0,.2501,1.14,1.81742,1.81742,0,0,0,.33008,1.07,19.56321,19.56321,0,0,0,2.03008,4.01,20.49792,20.49792,0,0,0,2.40984,2.5,1.683,1.683,0,0,0,.95024.67993,1.56689,1.56689,0,0,0,.64985.52009c.23909.10625.68248.07311.7208.42386-.02222.639-.166,1.28133-.14073,1.91612a1.58581,1.58581,0,0,0-.05.73c-.2727.84082-.15719.61856-.15023,1.78a4.12787,4.12787,0,0,1,.13013,1.79,9.66655,9.66655,0,0,0,.03007,1.12994c.11131.16154.23559.3205.08.50005-.16011.36005-.04.59-.1,1.36005a.90425.90425,0,0,0,.12011.67,1.42378,1.42378,0,0,0,1.25977.36,4.70459,4.70459,0,0,0,1.14013,0,6.40768,6.40768,0,0,0,1.79-.02017,1.80564,1.80564,0,0,0,1.26-.06992,1.43972,1.43972,0,0,0,.57984-.05994c.61993.42775,1.39155-.11681,2.07009-.05991a5.62806,5.62806,0,0,0,1.22.06993c.84244.274.62994.15637,1.78.15a1.723,1.723,0,0,1,.92016-.16c.51271.074,1.21531.00536,1.73977.03.23121.04863.37866-.15374.57-.19011a3.76358,3.76358,0,0,0,1.51.18c.81625.20468,1.27178-.57935,1.13013-1.27995.0694-.72363-.06647-1.38228.06981-2.08.03-.3-.10986-.59-.08984-.89a3.92924,3.92924,0,0,0,.08984-.75,1.88577,1.88577,0,0,1-.15983-.87.34611.34611,0,0,1,.07-.45c.14228-.60137-.19651-1.23109-.22721-1.84073a12.447,12.447,0,0,1-.039-1.30014c-.03643-.252.12817-.3893.3332-.46989a11.282,11.282,0,0,1,1.60295-1.15919,20.138,20.138,0,0,0,2.24994-2.03009c.37268-.3959.5206-.93642.93-1.30991a8.98571,8.98571,0,0,0,.97991-1.59,2.15029,2.15029,0,0,0,.45013-1.09005c.53756-.49524.18933-1.07659.54-1.59.08655-.21813.18089-.42837.2799-.63991a1.08784,1.08784,0,0,1,.21-.73,2.27209,2.27209,0,0,0,.26992-1.13A2.08721,2.08721,0,0,0,41.13982,26.18872Zm-23.58008-23.06c.16015-.43.04-.4.1001-.5.02978-.02.09985.04.10986.03a.0649.0649,0,0,1,.09009.05c.00819.06349.2112.0524.29005.02a17.00549,17.00549,0,0,1,1.92991.08006c.29005.02.58009-.11.87989-.1.25.00995.49023.14.73.09.58678-.23357.55516-.08685,1.0901-.21994.17321.076.30584.21514.53.1699a6.6648,6.6648,0,0,1,1.69994-.19994c.3628-.04006.64148.1172,1,.0399a3.15656,3.15656,0,0,1,.52.1701c.409-.00325.8353.0045,1.24-.01993a8.95608,8.95608,0,0,1,2.62012-.13016c.30522.06375.47836-.34336.75-.10991a1.942,1.942,0,0,0,.72.09995c.02.04006.01.06.04.07.02334.01213-.05719.13088-.1001.13a.10083.10083,0,0,0,.03.01,3.84367,3.84367,0,0,0,0,1.05,6.07387,6.07387,0,0,0,.02015,1.75,1.67391,1.67391,0,0,0,.07,1.24,1.42521,1.42521,0,0,0,.05977.58c-.07541.17691-.21628.31328-.16992.53005a10.41022,10.41022,0,0,1,.28,2.27995,12.47231,12.47231,0,0,0-3.48-1.18c-.37811.03774-.69735-.23347-1.11011-.17-.57315.15786-.84056-.00667-1.54981-.12-.56524.14634-1.03711-.2632-1.63012-.1a1.257,1.257,0,0,1-.6101-.01008,1.82326,1.82326,0,0,0-1.00976.19005,12.09617,12.09617,0,0,0-5.19019,1.61c.16338-.41159-.13887-.61554.16016-1h-.09009a1.65985,1.65985,0,0,0,.02-.49,1.48375,1.48375,0,0,0,.04-.71,1.93978,1.93978,0,0,0,.15985-1.12,1.77,1.77,0,0,0-.12982-1c-.11966-.78908.091-1.71216-.03-2.51C17.52412,3.46583,17.40247,3.312,17.55974,3.12872Zm14.47,39.55a4.38049,4.38049,0,0,1-.07012.75,1.19507,1.19507,0,0,1-.02981.81,3.98947,3.98947,0,0,0-.03993,1.25,4.35772,4.35772,0,0,0,.01009,1.63c-.01012.15-.01012.1-.01012.15-.01.03-.02.05-.08008.01-.03-.03-.01.02-.03.03-2.10316-.1913-4.19017-.01169-6.29-.01009a2.74894,2.74894,0,0,0-1.25.08019,2.81412,2.81412,0,0,0-1.51977.14,4.28586,4.28586,0,0,0-1.46021-.05018,4.05131,4.05131,0,0,0-1.63991-.13985,2.53843,2.53843,0,0,0-1.18017-.03008,1.46762,1.46762,0,0,1-.6399.03c-.02-.01-.06005-.01-.02-.07.03093-.03422-.06207-.00439-.02-.06a39.098,39.098,0,0,0,.02991-4.22c-.00832-1.11712.03573-2.66189-.04993-2.93h-.06982c-.00578,0-.05809-.33276-.06359-.36382-.13621-.816.51367.006.96348.1038a1.33692,1.33692,0,0,1,.55.26,4.32166,4.32166,0,0,0,1.17994.33,11.78456,11.78456,0,0,0,4.81005.7501,12.31215,12.31215,0,0,0,2.63988-.25023,1.87292,1.87292,0,0,0,1.13012-.31994,2.13181,2.13181,0,0,0,1.32-.53005c.31215-.04789.61494-.1776.93-.21985,1.08994-.80186.80473.30982.81235,1.04657a2.65305,2.65305,0,0,0-.03232.91343A1.35369,1.35369,0,0,1,32.02971,42.67871Zm7.83008-18.96c-.16966.40884.07551,1.17112-.24,1.88a.67013.67013,0,0,1,.01006.29,5.11221,5.11221,0,0,1-.25007,1.48c-.06.24.05012.51-.04.76-.07007.2-.24.37-.25.59-.01.15.07007.31.04.46-.12656.32106-.05666.23091-.1.5-.56459.315-.283,1.16044-.62,1.65-.12007.11-.14009.28-.20015.38a1.43388,1.43388,0,0,0-.33981.52c-.31564.25865-.48783.32951-.6401.75-.35729.32382-.3213.83278-.6499,1.17-.30527.30645-.70519.769-1.01009,1.08992-.22464.16763-.06237.5417-.39989.53-.31006.06-.49.39-.76.55a5.29435,5.29435,0,0,1-.86014.44c-.21254.27285-.60471.34767-.84.6a10.6897,10.6897,0,0,0-1.31978.75009c-.20026.07991-.43024.05989-.60016.18989a1.37058,1.37058,0,0,1-.62992.41.26847.26847,0,0,1-.3901.06995c-.52677.04006-.93693.51407-1.46.62012v-.01c-.1499-.03-.30005.07995-.40991.07995-.13013,0-.25-.06-.37012-.02a.93025.93025,0,0,1-.72-.04009c-.35126.07534-.70009.05387-1.06006.11a1.37742,1.37742,0,0,1-.77978.2c-.4199-.06586-1.05482-.08608-1.4902-.10994-.20189-.08737-.33165.11764-.5098.11-.29946-.27175-.67214-.241-1.05008-.34994a1.19664,1.19664,0,0,0-.35006-.15009c-.21358-.00632-.35541-.15781-.53-.24-.34218-.01522-.63872-.25431-.99-.28991a11.95721,11.95721,0,0,0-1.41-.56991c-.18013-.1001-.32-.30011-.53-.3501a1.23408,1.23408,0,0,1-.70994-.24013c-.19405.00948-.25476-.07922-.29-.25-.449-.4459-1.21207-.464-1.70992-1.05a1.26477,1.26477,0,0,0-.43-.44989,1.84647,1.84647,0,0,0-.58012-.78995c-.2629-.4763-.79552-.45123-1-.89-.24219-.43543-.6112-.787-.84-1.23-.067-.20159-.31636-.19119-.41995-.32.00808-.38889-.25018-.68092-.37015-1.05-.03058-.27294-.22946-.47811-.24-.75.02205-.16842-.12678-.2666-.13987-.43-.103-.5231-.46727-.9038-.4201-1.45-.03986-.25-.23982-.45-.28986-.7a4.4874,4.4874,0,0,0-.04-.64c-.05005-.14-.17994-.25-.22-.4a.89593.89593,0,0,0-.1402-.49c.04118-.15472.18953-.28184.12013-.47007a3.29555,3.29555,0,0,1-.15-2.07c-.08442-.26565.06985-.4771.17011-.69994a9.59491,9.59491,0,0,0,.13992-1.06006c-.21221-.53388.10856-.99645.20992-1.51.05068-.331.24011-.60607.27-.93-.01-.1-.0999-.21-.05986-.30006.318-.22525.38026-.61384.59981-.94a4.58236,4.58236,0,0,1,.55013-.78992c.11626-.3219.41955-.55727.50993-.90007.0999-.27994.30009-.38.49-.57993.16992-.19.21-.47.36987-.66.14014-.17.37012-.25.48022-.43.07984-.13.07984-.3.17994-.43.05981-.08.15991-.13.2-.22a.24751.24751,0,0,1,.31008-.23c.48462-.22217.60637-.8981,1.04978-1.19006l-.10449-.13257.00366-.00659.11108.13916c.21867-.07908.20627-.17736.68-.39.17116-.23868.40074-.23925.66992-.28.29005-.16909.61245-.37378.88991-.57a1.373,1.373,0,0,1,.6301-.49005c.40479-.14558.96439-.41388,1.38989-.54.20867-.02656.25174-.27152.40011-.35011.66667.09545.5707-.06007,1.48-.1599.20033-.09374.39015-.00381.59008,0,.32848-.11238.68977-.03931,1.02-.18007a2.42641,2.42641,0,0,1,.75977.03c.25.01.49023-.14.75-.13a1.26836,1.26836,0,0,0,1.07006-.02006c.38485.10525.45172-.19721.67993.13.47878.235,1.09109-.1054,1.58009.07v.01c.12988.1.31006.08.41015.13a1.17849,1.17849,0,0,0,.58987.18994c.36887.25245.3477.38343.86013.48.40272.25664.89315.09484,1.28977.36006a4.23117,4.23117,0,0,0,.66014.36,5.32462,5.32462,0,0,0,.83986.48c.16193-.01175.36221-.06.41013.16.11988.3.47.41.67994.63993.15724.23.42611.32128.54005.58a.37326.37326,0,0,0,.21.22c.37381.4244.86469.71037,1.12,1.22.13994.21.43.29.55986.51.12012.18.15015.42.31006.57.11011.1.28.14.39013.25a1.36982,1.36982,0,0,0,.31987.39c-.09587.64564.73083.94948.91009,1.52a4.57532,4.57532,0,0,1,.24995.74c.28261.42763-.04792.68586.3,1.2a1.54576,1.54576,0,0,0,.36007.8,3.78636,3.78636,0,0,1,.26,1.18,4.77806,4.77806,0,0,0,.17984.95C39.8908,23.421,39.999,23.55027,39.85979,23.71868Z"/><path d="M36.3925,24.26385c-.29316-.42275-.72538-.75627-1.03516-1.16913-.20448-.1973-.52251-.26331-.66132-.55309a5.7817,5.7817,0,0,0-.73274-.69176.40917.40917,0,0,0-.23692-.22145,1.76709,1.76709,0,0,1-.322-.12292c-.10478-.06375-.23088-.14545-.32556-.21466-.10919-.07983-.09-.17191-.28934-.12736-.19811-.02245-.32856.15231-.43039.29474-.12428.202-.05348.24417-.03883.37533.02746.15883.01844.36314.19188.41566.10411.07532.10257.18741.17762.28411.03313.04269.12955.0752.14442.12765.05019.177.08678.1891.22977.28907.0854.26943-.00521.34159.29347.51721a.5413.5413,0,0,0,.45529.27092c.25276.08323.31176.372.52586.52867-.09937-.06244-.21216-.00677-.2876-.02161a.53988.53988,0,0,0-.42188-.04175c-.28406-.13493-.29912-.24407-.65919-.15825a.68994.68994,0,0,0-.59055.13029,10.86243,10.86243,0,0,1-1.32813.00218c-.15751-.04256-.22065.17625-.33056.19122-.26666-.23764-.42773-.13637-.73978-.18314-.25193-.091-.39687-.01-.64913-.15819a.29259.29259,0,0,1-.19631.01884c-.36043-.06907-.68981.08992-1.03124-.06476-.26945.01164-.51932.18113-.79395.01411a2.54188,2.54188,0,0,0-1.57373-1.35742c-.08709-.11415.02946-.39718.02388-.58222.0952-.14341.00858-.26388-.01929-.40307a1.43593,1.43593,0,0,0,.13448-.95131.83334.83334,0,0,0,.03154-.68767,25.34472,25.34472,0,0,1,.10638-2.7827c.00178-.1577-.06472-.33405-.0747-.49572-.01028-.16663-.00731-.33365-.00274-.50042.00459-.16791.01154-.33583.009-.50385-.0026-.171-.06008-.32314-.06295-.49177a.06693.06693,0,0,1,.00561-.03393c.0513-.0925.17534.13684.21592.17637q.19767.19257.39983.38039c.00952.00884.2402.177.24918.14022-.0575.23085.098.3529.29034.43578.13307.05734.26337.12073.39323.18494a.81736.81736,0,0,1,.33863.20885c.05254.17359.25675.16419.41576.19195.13111.01452.1731.08544.37525-.03883.1421-.10168.31747-.23228.29464-.43038.04438-.19936-.0467-.1799-.12744-.28926-.07283-.09866-.14251-.19386-.22582-.29148-.161-.18866-.22861-.54323-.49021-.62176-.11157-.03491-.269-.02264-.33838-.11095a1.52247,1.52247,0,0,0-.2239-.31737c-.02287-.15628-.155-.168-.26172-.23418a1.09678,1.09678,0,0,0-.48979-.68c-.07305-.3127-.35042-.41179-.59422-.57478-.3377-.35924-.77689-.84879-1.22627-.59564a3.2369,3.2369,0,0,0-1.14282.86531c-.22851.22039-.487.37855-.59444.68814a8.786,8.786,0,0,0-1.00461,1.015c-.27838.17407-.36773.62249-.55923.88454-.07983.10923-.17167.08991-.12733.28936-.02207.19793.15243.32869.29492.43025.20188.12435.24411.05343.37521.0389.15907-.02765.36313-.01849.41579-.192.02577-.08474.13569-.12092.206-.15705a.62388.62388,0,0,0,.11554-.06393c.03041-.025.05054-.08961.09007-.10089.17637-.05034.18954-.08678.289-.23.26915-.085.34215.005.51733-.29341a.54144.54144,0,0,0,.271-.45517c.05674-.2305.32889-.27762.44779-.4575.01319.37905.04572.22153-.157.55126.01577.5739-.0598.65974.14651.9463a10.84058,10.84058,0,0,1,.00207,1.32812c-.04238.15819.17615.22017.19133.3305-.00247.04194-.04641.07673-.07888.11274-.148.15628-.04606.46057-.15752.88427.03632.1426-.06666.26626-.105.392a.29332.29332,0,0,1,.01882.1963c-.069.36054.08994.68964-.06475,1.03112-.02435.17365.11213.343.09675.517-.01294.14685-.13379.28991-.09009.43414.03125.10351.14453.19232.15674.29761-.03158.205.0142.18185.06547.33983-.107.13966-.232.16057-.15165.395a2.31278,2.31278,0,0,0-1.71275,2.3508c.13728.36607-.00943.8021.31309,1.124.546.34944.8602,1.09982,1.5742,1.09541.62874.4056,1.22982.128,1.86135-.10651.60687-.26634.88887-1.08694,1.07592-1.67445.30094.16735.62085-.048.90919.10569A1.00587,1.00587,0,0,0,29.009,25.571a3.56308,3.56308,0,0,1,.76588.07c.6044-.02341,1.24983.05612,1.87183.08173.3282-.006.64267-.18274.98754-.07645.44732.07753.89862-.0853,1.33911.00066-.064.156-.30391.12056-.36987.26587-.04151.08575-.01611.22051-.07227.29382-.16235.11764-.09611.11817-.16256.25527-.47577-.11881-.42431.56093-.69364.78019l-.05713-.05707c-.00565.13593.11022.16378-.07887.299-.17362.05247-.16421.25691-.19189.41565-.01464.13123-.08544.17328.03883.37537.10167.14221.23224.31744.43044.2947.19929.04423.17977-.04716.28926-.12744.1609-.0272.26057-.26675.44876-.32083l.0581.05811c.059-.26375.3207-.16805.40626-.45344.0349-.1115.0227-.26891.11108-.33831a1.5228,1.5228,0,0,0,.31736-.224c.15618-.0216.16785-.15592.23412-.26159a1.09688,1.09688,0,0,0,.67991-.48985c.3128-.07231.41178-.35109.575-.59416C36.49653,25.331,36.81247,24.9122,36.3925,24.26385Z"/></svg>