<svg id="Layer_1" data-name="Layer 1" xmlns="http://www.w3.org/2000/svg" viewBox="0 0 50 50"><defs><style>.cls-1{fill:#f7e4bb;}.cls-2{fill:#fff;}.cls-3{fill:#e8b23b;}</style></defs><path class="cls-1" d="M49.6326,32.85738c-.2569-.95024-.53387-1.89565-.8541-2.82843a21.26724,21.26724,0,0,0-2.49632-5.16836,7.02859,7.02859,0,0,0-4.58707-3.17836,5.9406,5.9406,0,0,0-2.73788.059,6.41773,6.41773,0,0,0-2.02607,1.07421,8.1144,8.1144,0,0,0-1.60848,1.80837,18.25758,18.25758,0,0,0-1.32025,2.27262,39.827,39.827,0,0,0-1.78818,4.38325c-.571,1.60515-1.02586,3.76566.44227,5.08589a5.27523,5.27523,0,0,0,2.57612.95358,21.5865,21.5865,0,0,0,3.14179.36182,34.68142,34.68142,0,0,0,6.35185-.39005,22.92028,22.92028,0,0,0,3.08842-.54087,3.04293,3.04293,0,0,0,1.92113-1.35849A3.39615,3.39615,0,0,0,49.6326,32.85738Z"/><path class="cls-1" d="M18.00943,32.85738c-.2569-.95024-.53388-1.89565-.8541-2.82843A21.26724,21.26724,0,0,0,14.659,24.86059a7.02859,7.02859,0,0,0-4.58707-3.17836,5.9406,5.9406,0,0,0-2.73788.059A6.41773,6.41773,0,0,0,5.308,22.81548a8.1144,8.1144,0,0,0-1.60848,1.80837,18.25758,18.25758,0,0,0-1.32025,2.27262A39.827,39.827,0,0,0,.59108,31.27972C.02,32.88487-.43478,35.04538,1.03335,36.36561a5.27523,5.27523,0,0,0,2.57612.95358,21.58636,21.58636,0,0,0,3.14178.36182,34.68147,34.68147,0,0,0,6.35186-.39005,22.92028,22.92028,0,0,0,3.08842-.54087,3.043,3.043,0,0,0,1.92113-1.35849A3.39615,3.39615,0,0,0,18.00943,32.85738Z"/><path class="cls-2" d="M37.20475,43.11323c-.34164-1.21421-.71-2.42226-1.13582-3.61416a26.73559,26.73559,0,0,0-3.31971-6.60413,9.35421,9.35421,0,0,0-6.10006-4.0613,8.21269,8.21269,0,0,0-3.64093.07544,8.655,8.655,0,0,0-2.69435,1.37263,10.51681,10.51681,0,0,0-2.139,2.31072,23.12765,23.12765,0,0,0-1.75573,2.904,49.77638,49.77638,0,0,0-2.378,5.60091c-.75942,2.05107-1.36423,4.81177.58814,6.49875a7.19209,7.19209,0,0,0,3.42583,1.21849,29.82931,29.82931,0,0,0,4.17807.46233,47.97182,47.97182,0,0,0,8.44694-.49841,31.60962,31.60962,0,0,0,4.1071-.69112,4.04568,4.04568,0,0,0,2.5548-1.73588C37.9184,45.31524,37.50082,44.16558,37.20475,43.11323Z"/><path class="cls-3" d="M37.23949,43.12572c-.40589-1.25264-1.03518-2.4984-1.38805-3.37361a48.65529,48.65529,0,0,0-3.06395-6.26882A10.97124,10.97124,0,0,0,31.556,31.68537a8.89865,8.89865,0,0,0-2.217-1.71769,3.675,3.675,0,0,0-3.256-.6898,7.46034,7.46034,0,0,0-2.74214,1.30886c-3.27751,2.47569-5.24036,7.54131-6.01635,11.66348a7.5273,7.5273,0,0,0,.38308,4.545c.66809,1.403,2.13124,1.72961,3.44494,2.01935a21.30461,21.30461,0,0,0,3.51695.46233,34.09112,34.09112,0,0,0,7.11035-.49841,22.78847,22.78847,0,0,0,3.45722-.69112,3.45748,3.45748,0,0,0,2.15055-1.73588A4.586,4.586,0,0,0,37.23949,43.12572Z"/><circle class="cls-1" cx="40.93852" cy="17.24868" r="4.30325"/><circle class="cls-2" cx="25.06347" cy="19.22511" r="6.8811"/><ellipse class="cls-3" cx="26.4557" cy="19.22511" rx="5.48886" ry="6.47251"/><circle class="cls-1" cx="9.18841" cy="17.24868" r="4.30325"/><path d="M19.35958,14.126c-.47764.33906-.46892.94553-.7995,1.37926a4.66113,4.66113,0,0,0-.7565,1.87034c.01742.11936.10385.22129.07016.3378a2.20561,2.20561,0,0,0-.32074,1.24509c-.11534.31231.00523.619-.08134.93528-.09293.18983.05522.3612.04051.55517a2.30863,2.30863,0,0,0,.20532.88684,3.90858,3.90858,0,0,0,.7328,1.678c.12731.22388.14708.51782.34508.69592a3.319,3.319,0,0,1,.68037.59674.39186.39186,0,0,1,.27173.38052c.34786.54185,1.105.65383,1.59819.9769l-.00244.00416c.114.14727.31836.18237.4292.2514a1.30038,1.30038,0,0,0,.65677.3277,1.72838,1.72838,0,0,0,1.06959.47512,1.65873,1.65873,0,0,0,1.04781.01043c.92032-.08837,2.0869.16467,2.80152-.52729.59889.05238.86592-.18123,1.65676-.52055a6.82339,6.82339,0,0,0,2.21161-1.81044,5.23964,5.23964,0,0,0,.43338-.81624,1.5948,1.5948,0,0,0,.49281-1.19168c.23338-.408-.03108-.52926.30624-.77005.3137-.56094.001-1.2712.055-1.8714h.00488a1.84261,1.84261,0,0,0-.00366-.49707c.00757-.14789.07568-.27466.03222-.42639-.14-.2913-.02331-.56611-.01655-.86243a5.77026,5.77026,0,0,0-.42185-1.22768,2.57908,2.57908,0,0,1-.56377-.75854,4.75484,4.75484,0,0,0-1.23751-1.59239c-.11456-.04175-.24787-.01593-.33478-.10022-.15124-.41983-.54125-.64438-.91167-.90713-.21939-.24725-.53329-.31727-.77194-.53553a3.3475,3.3475,0,0,0-1.372-.50765,3.77136,3.77136,0,0,0-1.81791-.21013,3.32753,3.32753,0,0,0-.7749-.05031,2.58568,2.58568,0,0,1-.85818.28976.371.371,0,0,1-.46481.052c-.64154.0156-1.12063.63458-1.64576.89482l.053.09155-.05542-.0957a1.841,1.841,0,0,0-.43579.241,1.62363,1.62363,0,0,0-.61227.40513A1.72743,1.72743,0,0,0,19.35958,14.126Zm.84424,1.39386a4.93754,4.93754,0,0,1,1.5852-1.42376c.15528-.077.19824-.34626.39356-.38306a1.79069,1.79069,0,0,0,.69238-.27924c.33407-.37066.62557-.33365,1.09816-.3955.21543.06586.38383-.06437.58152-.09379.60134.19684,1.15911.065,1.63528.27672.32461.17228.72074.06611,1.05077.21816a6.13,6.13,0,0,1,2.72023,2.25372,5.2591,5.2591,0,0,1,1.19336,2.75468A2.57761,2.57761,0,0,0,31.272,19.4857c-.264.58956.13227,1.02352-.15821,1.51577a2.07722,2.07722,0,0,1-.27012.5687.86433.86433,0,0,1-.31081.61125c-.35924.28319-.43218.794-.83318,1.01916-.3118.19625-.42322.58676-.71119.80761-.35.285-.75729.432-1.1077.67927a11.29975,11.29975,0,0,1-2.91284.67117,7.55793,7.55793,0,0,1-2.98359-.79882c-.35659-.0497-.48732-.42988-.845-.53957-.44738-.09155-.629-.41985-.89232-.75631-.11283-.34726-.46084-.37833-.47264-.78562a5.19481,5.19481,0,0,0-.43709-.94326,6.1239,6.1239,0,0,0-.37188-1.302A6.99936,6.99936,0,0,1,20.20382,15.51989Z"/><path d="M49.73824,31.52221c-.19093-.481-.02554-1.06831-.24243-1.53528a1.62291,1.62291,0,0,0-.1334-1.01347,1.56575,1.56575,0,0,0-.40668-.82147c-.28214-.46505-.454-1.2625-.82061-1.8787-.05256-.2191-.28819-.22759-.40131-.3642a3.57871,3.57871,0,0,0-.65472-1.42676,1.8342,1.8342,0,0,1-.29589-.56243c-.29635-.23349-.48812-.60047-.816-.81142a3.74808,3.74808,0,0,0-1.37894-.98962,1.456,1.456,0,0,0-1.09711-.45993,5.35482,5.35482,0,0,0,2.52513-4.06986c-.00949-.22261-.10323-.444-.13062-.65139a1.38788,1.38788,0,0,0-.11082-.88971c-.4552-.53711-.43489-1.35991-.999-1.80457a2.30415,2.30415,0,0,0-1.11457-1.19361,2.38889,2.38889,0,0,0-1.51-.64376,4.58219,4.58219,0,0,0-4.8601,1.36154,4.36431,4.36431,0,0,0-1.29979,3.79207c-.19677.6825.38557,1.10773.51476,1.71286a2.23243,2.23243,0,0,0,.59516.98137,3.003,3.003,0,0,0,1.27292,1.3367c-.20372.05591-.32761.24578-.46655.38746-.35037.30564-.80318.38542-1.12618.72681-.43147.33726-.73752.47905-.85667,1.02223-.42238.11222-.60335.45668-.8782.77555-.23861.17193-.34549.44043-.56472.626-.16755.08294-.16115.28076-.28321.40392a1.96372,1.96372,0,0,0-.38478.70349,2.94178,2.94178,0,0,1-.42773.69006c-.134.23633-.11133.53211-.231.77246-.10034.20313-.29712.3645-.3291.59027a1.68539,1.68539,0,0,1-.11946.77953.29128.29128,0,0,1-.18356.363c-.31129.46578-.09784,1.11588-.26607,1.61844-.16551-.04728-.23051-.26567-.3655-.3743-.15708-.12679-.3804-.18615-.53172-.30288-.25262-.46759-.76015-.54626-1.19391-.75328a2.884,2.884,0,0,0-1.15325-.69484,2.55805,2.55805,0,0,0-1.09842-.60239c-.62676-.1366-.90775-.43318-1.627-.3129a10.20379,10.20379,0,0,0-2.07444-.11053,9.06717,9.06717,0,0,0-5.91138,2.56225c-.07988.17926-.27125.3518-.41772.09982-.11279-.162-.05908-.40158-.16968-.571a1.12967,1.12967,0,0,1-.34664-.73952,3.09492,3.09492,0,0,0-.345-.97341,6.03812,6.03812,0,0,0-.53085-1.69182c-.21557-.61536-.6945-.94972-1.12235-1.88955a10.84751,10.84751,0,0,0-2.027-2.23628c-.46769-.35068-1.06631-.4957-1.56366-.82117a5.36822,5.36822,0,0,0,2.48754-4.04886c-.00915-.22262-.10286-.444-.13062-.65139a1.38943,1.38943,0,0,0-.11058-.88971c-.45538-.53709-.43472-1.36011-.99925-1.80457a2.30464,2.30464,0,0,0-1.11433-1.19361,2.38975,2.38975,0,0,0-1.51-.64376,4.58194,4.58194,0,0,0-4.8601,1.36154,4.36442,4.36442,0,0,0-1.29979,3.79207c-.19714.68262.386,1.10752.51451,1.71286.10037.2266.20446.448.29408.67727a1.7676,1.7676,0,0,1,.48508.65836c.25752.51935.84355.73515,1.2481,1.10591a.92477.92477,0,0,0-.63767.283,2.17608,2.17608,0,0,0-1.15333.50149,1.32572,1.32572,0,0,1-.52078.34131c-.41043.1643-.51523.62625-.8215.9003a13.64076,13.64076,0,0,0-3.35817,7.2813l.06274.01324c.03932.31448-.07127.65267-.04085.96674-.01587.176-.10033.3591.03089.52752.08825.27179.23767.26391.468.22524.2302-.06422.23143-.19893.333-.35713a1.09558,1.09558,0,0,0,.27246-.68017c.03436-.31483.064-.25018.2124-.41248l-.19067-.04029v-.00006l.10473.02216a1.45723,1.45723,0,0,0,.1128-.40039,1.27028,1.27028,0,0,0,.18329-.58187,1.50874,1.50874,0,0,0,.40769-.86635,1.37443,1.37443,0,0,0,.14847-.84042,9.88281,9.88281,0,0,1,.75241-1.73269c.15419-.20213-.1063-.51755.20614-.60189.27441-.13636.32568-.49629.5498-.69734.24322-.19821.3811-.46766.65579-.62471.1604-.27222.48914-.41293.63983-.70735.15262-.22421.37186-.23422.57913-.37088.19434-.11371.28638-.38055.50855-.45508.17944-.07721.395-.05786.54028-.18188.10425-.091.16455-.25061.29908-.29a.85156.85156,0,0,0,.414-.1856c.51741.22975,1.033-.28615,1.58988-.29227a1.80281,1.80281,0,0,0,.38549.04879,1.00146,1.00146,0,0,0,.55836.09278c.32639.13219.347.32653.79543.35862.36034.20289.81172.09731,1.14232.34689.42669.304.82169.65874,1.22774.984.093.03049.21658.00217.283.07742.15473.52266.41077.63612.70161,1.22177.14974.13238.15.341.21144.51457.22128.24386.29912.5877.51911.84616a6.89469,6.89469,0,0,0,.639,1.32125,3.48671,3.48671,0,0,0,.14857.60577,1.43463,1.43463,0,0,1,.38884.62669.26178.26178,0,0,1,.05251.38033c-.01388.36773.29134.67614.43215,1.00215.16381.36171.25191.75226.38944,1.116a2.73154,2.73154,0,0,1-.43264.44565,1.2016,1.2016,0,0,1-.45437.59123,2.743,2.743,0,0,0-.64568.93365,3.067,3.067,0,0,0-.69354,1.30307,14.8313,14.8313,0,0,0-1.72871,4.34721c-.35665,1.37784-.95579,2.8231-.71462,4.26687.017.082-.03332.16334-.04382.24745a.73043.73043,0,0,0,.249.51772.51394.51394,0,0,0,.63308-.3759,1.12592,1.12592,0,0,0,.26248-.69925,5.92134,5.92134,0,0,1,.35936-1.19324c-.01389-.48717.40281-.5767.39666-1.17593a1.5066,1.5066,0,0,0,.10232-.87181c-.00273-.42067.26493-.75765.34473-1.16517a5.78359,5.78359,0,0,0,.28672-.916c-.01055-.10336-.08843-.206-.04741-.30325.41451-.36718.425-.77889.76664-1.26891.05285-.25124.32732-.3593.36327-.60565a7.59319,7.59319,0,0,1,.84422-1.40723c.15306-.19636.16259-.47914.31761-.67683.13111-.16644.34229-.26691.42481-.46.12794-.57224.19878-.36849.39235-.84857.14507-.064.3315-.04869.41939-.22606.39937-.54994.70295-1.18417,1.37726-1.44278.30958-.35808.65942-.14983,1.04485-.53594.452-.12352.63268-.59712,1.06591-.68122.48135-.14208,1.08924-.28544,1.57088-.427.11226-.1197.22923-.26173.40085-.13326a7.63981,7.63981,0,0,1,1.79442.20143c.32255-.062.63289.14143.96705.092.27319.00468.4248.155.66723.23985.22046.07605.47291.05341.69532.14374.18945.07269.31128.277.5061.32147.13843.03656.30274-.0144.43579.04926.26823.25311.45334.03365.52441.39158.32084.39468.94217.40976,1.29981.78255l.0752-.08258-.07837.08612a4.29838,4.29838,0,0,1,.4782.59368c.25088.119.27274.37658.35819.60251.22779.25769.43275.54318.66672.79837.21159.15007.46329.27882.56621.53652.18237.38921.53532.89.73534,1.28082.06169.19856.29441.20134.39214.33883a2.52367,2.52367,0,0,0,.32572,1.05238,4.81321,4.81321,0,0,1,.24817.92959c.19072.28614.20489.66422.412.95346a5.7253,5.7253,0,0,0,.524,1.4285,1.412,1.412,0,0,0,.37766,1.0124c.03723.38824.31118.3588.12516.68332-.01242.53608.4811.97075.55419,1.49091l-.07593.01667c.17964.169.19381.05989.2412.41365a1.1289,1.1289,0,0,0,.28833.691c.10914.15984.11134.29632.34547.35564.23226.0302.37982.03283.46018-.24388.12553-.17389.03552-.35487.01706-.53224.03554-.31466-.13123-.64569-.10761-.9577l-.42676.09381.50391-.11078c-.20243-.31082-.05931-.70164-.27759-1.03724a1.777,1.777,0,0,1-.29-.50249c-.0197-.30847-.12331-.60031-.14061-.90754a1.08754,1.08754,0,0,1-.19063-.7032c.01852-.49361-.33848-.89-.35775-1.37107-.18788-.69138-.69769-1.286-.82654-2.00663-.43571-.88179-.77536-1.74256-1.29531-2.61572-.4138-.53064-.82941-1.04892-1.20185-1.61826.06631-.6051.52555-1.14228.54179-1.75707a1.51865,1.51865,0,0,1,.009-.54914,3.74283,3.74283,0,0,0,.44239-1.13689c.55621-.616.42981-.95131.83559-1.41981.34-.52459.39125-1.18121.984-1.69913a10.86428,10.86428,0,0,1,2.28022-2.207,4.8223,4.8223,0,0,1,2.46676-.66193c.08206-.00037.16458-.09827.24979-.08967.08007.01673.16308-.06085.24218-.03424a1.17716,1.17716,0,0,0,.6897.08649c.38246-.19263.705.06642,1.0608.17836a1.5062,1.5062,0,0,0,.50391.19515,4.73952,4.73952,0,0,0,.8069.64471.86906.86906,0,0,1,.37178.33934c.20179.27182.55307.40156.7791.64979a11.48973,11.48973,0,0,1,1.7251,3.03054,13.44165,13.44165,0,0,1,1.06492,2.85885,1.4804,1.4804,0,0,0,.19555.75908l.0625-.01324a8.26415,8.26415,0,0,1,.30338.86386c.04377.163.01344.34873.183.46663.14491.21859.31127.18442.51022.09914.21019-.12238.16918-.25715.22338-.44745A1.07565,1.07565,0,0,0,49.73824,31.52221ZM11.257,20.265c-.22407.16651-.50151.24942-.72243.41183-.07855.13844-.15311.30472-.3374.19189-.26561-.091-.53636.08268-.81371.03037a1.88819,1.88819,0,0,1-.7988-.19768c-.28757.02263-.54307-.19622-.83621-.22464-.24292-.05467-.33911-.22526-.51611-.36924-.15527-.13776-.3977-.16791-.54614-.331a1.23708,1.23708,0,0,0-.60944-.68181,1.06807,1.06807,0,0,0-.2556-.35361c.20261-.519-.41039-.93583-.37666-1.49247h.00464c.06763-.12781.02124-.2746.03979-.37231a1.21213,1.21213,0,0,0,.13716-.52669c.20086-.29208.33322-.31213.43113-.717a1.4269,1.4269,0,0,0,.29788-.68515,3.09488,3.09488,0,0,1,1.32518-1.02312c.18335-.04151.20024-.25453.33426-.32852.05276-.01877.1116.01578.16507.03268.26562.09107.53637-.08264.81372-.03033a1.88488,1.88488,0,0,1,.79856.19774c.288-.02285.543.19618.83646.22458.24291.05467.33885.22526.51586.36924.15551.13782.39795.16791.54638.331a1.23952,1.23952,0,0,0,.6092.68182c.11942.336.36348.24925.20063.5526.0207.44612.45788.80592.43187,1.29347h-.00464c-.06762.12781-.02148.2746-.03979.37232a1.21293,1.21293,0,0,0-.13715.52668c-.1991.29029-.33421.31314-.43114.717a1.42682,1.42682,0,0,0-.29788.68522C11.8873,19.89307,11.51522,20.02887,11.257,20.265Zm31.75,0c-.224.16652-.50165.24947-.72219.41183-.07867.13835-.15327.30484-.3374.19189-.26561-.091-.5366.08268-.8137.03037a1.887,1.887,0,0,1-.79881-.19768c-.28791.02256-.54324-.1962-.83645-.22464-.24267-.05467-.33886-.22526-.51586-.36924-.15552-.13776-.398-.16791-.54639-.331a1.23781,1.23781,0,0,0-.6092-.68181,1.06889,1.06889,0,0,0-.25559-.35361c.20216-.51888-.41012-.93579-.37691-1.49247h.00488c.06763-.12781.02124-.2746.03955-.37231a1.209,1.209,0,0,0,.13716-.52669c.1999-.28918.33533-.31762.43137-.717a1.42512,1.42512,0,0,0,.29764-.68515,3.09664,3.09664,0,0,1,1.32518-1.02312c.18333-.04148.20041-.25449.33426-.32852.053-.01877.11184.01578.16507.03268.26562.09107.53637-.08264.81372-.03033a1.88628,1.88628,0,0,1,.7988.19774c.28775-.02283.543.19624.83622.22458.24291.05467.3391.22526.5161.36924.15527.13782.39771.16791.54639.331a1.23816,1.23816,0,0,0,.60919.68182c.11948.33586.36285.24906.20063.5526.02057.44609.45757.80594.43188,1.29347h-.00489c-.06762.12781-.02124.2746-.03955.37232a1.21538,1.21538,0,0,0-.13739.52668c-.19912.2902-.334.31324-.43114.717a1.43,1.43,0,0,0-.29788.68522C43.63719,19.89307,43.26546,20.02888,43.007,20.265Z"/><path d="M21.88042,21.00755a2.04081,2.04081,0,0,1,.1669.27742c.02769.17794.05093.17542.1851.28159.05932.25485-.00987.34106.27369.48889a.474.474,0,0,0,.46091.21312c.2829.0803.54406.40532.99367.52138.123.07928.23087-.10591.32-.09516.173.2786.31785.20286.59182.27019a.46583.46583,0,0,0,.22532.05894c.12951-.04182.25353.05738.37622.07315.19791-.09216.4582-.02076.63744-.18488.15236-.10348.29176-.06851.46144-.1213.15185-.05286.21411-.24115.34326-.311.11279-.05633.27588-.04.35156-.14715.04907-.0799.0354-.21088.093-.275.231-.11516.01772-.29879.32055-.21527.16509-.04711.21347-.21895.25492-.36535.03044-.10749.0748-.20708.1149-.3108.02777-.07182.03258-.18062.06622-.24443.04045-.07672.118-.09916.14839-.18631a.66734.66734,0,0,0-.01581-.273c.04772-.30237-.48336-.64152-.75808-.472-.01811.04984-.02173.10507-.09521.09959-.07871.097-.1353.21614-.25927.273l-.063-.04773c-.002.248-.20092.08254-.252.356-.00854.09081.02149.22094-.04369.272a.99506.99506,0,0,0-.24193.14273c-.13936-.00951-.11846.0949-.17675.16961-.13882.02662-.35144-.01662-.44948.11671-.048.07795-.11817.07352-.19777.04767-.15927-.04443-.1987.17551-.33445.18767-.24043.04261-.293-.0822-.44679-.01415a2.78861,2.78861,0,0,1-.76149-.329c-.06639-.0634-.18553-.02818-.28148-.055-.24529-.17707-.46632-.43083-.71-.62615-.06345-.13923-.05718-.21565-.21967-.24714l-.05151.03784c-.269-.10372-.21966-.23972-.3364-.25167-.08154-.0821-.00232-.13858-.20683-.13442-.25879-.05773-.65085.24607-.614.48715.01908.12486-.05206.20884.0104.33365A1.912,1.912,0,0,0,21.88042,21.00755Z"/><path d="M24.25313,6.69335a4.498,4.498,0,0,0,.02786.87189c-.03983.15209-.087.28674.01877.41107H24.364c.13832.24048.05732.39879.13839.47255.0208.12258-.05873.15494.11018.25511a.5536.5536,0,0,0,.77535-.12336c.09687-.1248.16857-.18655.16365-.34592a1.93412,1.93412,0,0,1,.04925-.47475c.08846-.149.07-.15844.04024-.31769.12247-.21911.23651-.19455.15234-.49622a.43575.43575,0,0,0-.12548-.44444c-.09758-.23065.03979-.67569-.002-.99976.0359-.12913-.17524-.16675-.184-.24884.23875-.22021.12529-.29521.17625-.55691.10139-.21932-.01079-.25713.15218-.48867-.0656-.16614.0633-.35544-.02791-.53377-.05-.1474.04618-.2467.07206-.3902.02344-.13074-.10791-.25818-.093-.38922.01246-.11053.12867-.21826.08667-.32678-.03-.07794-.13916-.14478-.15087-.22406.03129-.17944-.01762-.13113-.063-.25579.00956-.03938.08573-.06361.12626-.09724.18652-.3092-.32247-.70061-.25707-1.03621.08232-.14071-.06427-.258-.15234-.37194A.54469.54469,0,0,0,24.458.59143c.00957.05837.04062.114-.02491.157a4.51456,4.51456,0,0,0-.05268.46471c-.04589.15976-.14249.33635-.04837.49858.052.08959.16747.17845.15453.27494-.06151.147-.04.3068-.11134.44854.05428.15637.10814.20545-.024.35736-.16544.22943.04425.47717-.10393.69142-.08062.16173.02361.32609.07812.48034a2.11878,2.11878,0,0,1-.06714.57666c.02263.44693-.05388.94107-.07881,1.409C24.18354,6.19543,24.35612,6.428,24.25313,6.69335Z"/><path d="M30.01168,9.17822c.1461.12434.4337.27192.56762.203.11505-.01747.2845.00492.27882-.13.049-.13652.12755-.0487.20117-.06227l-.07178-.05084c.08008-.009.07178-.08979.10693-.11487.14863-.048.111-.03273.165-.16305.04421-.04038.16872-.01127.23171-.03684.06982-.02832.06177-.114.09863-.166.03931-.05511.11109-.08746.113-.16809-.10645-.34174.085-.28805.22146-.53333.05506-.10473.18462-.18022.18165-.30357-.01786-.055-.09207-.13862-.06668-.1678.30051.002.2044-.08053.37523-.2247.05348-.02737.09816-.03513.12208-.08395.01873-.08716.14554-.08111.20509-.11454.01195-.13105.19864-.17083.19893-.32921.02054-.11521.14041-.11784.221-.18705.07349-.06305.01929-.21381.08594-.282.05615-.05755.19555-.05352.20654-.14147.00781-.06311-.05347-.16535-.03-.21857.10982-.09865.033-.09321.05491-.18641.02419-.01757.09646.01228.14362.016.141-.035.11845-.20226.12414-.31284a1.37476,1.37476,0,0,1,.0983-.43455.39321.39321,0,0,0,.02851-.315c.00742-.25109-.468-.61855-.73244-.51112-.0161.04338-.01878.09045-.0857.07769.00157.0003-.19664.20289-.22214.219-.08909.05614-.20531.08015-.24927.20534-.02007.05725.05941.30958.00044.33268-.08593.03366-.1251.101-.1894.15755-.13081.01961-.08315.10467-.11084.18871-.12145.05691-.33148.08417-.3623.25221-.00992.09023-.07329.1195-.15482.14107-.13409.04909-.11617.20833-.13572.32686a1.12111,1.12111,0,0,1-.29468.29926c-.086.21073-.3248.3522-.45583.56029A1.18766,1.18766,0,0,1,30.687,7.14c-.10888.15175-.03159.3542-.24883.47842a2.35307,2.35307,0,0,0-.33977.52733c-.13456.1018-.138.11268-.1412.26575a.59166.59166,0,0,1-.05783.34134c.03438.059-.00962.0769-.0449.10651A.499.499,0,0,0,30.01168,9.17822Z"/><path d="M16.038,4.87194c.03961.0964.09514.18768.13226.28458.031.08079.01608.16868.04243.24192.06783.18852.30956.07509.37072.20763a.64858.64858,0,0,0,.086.231c-.025.13.0713.113.14135.16711.01343.13338-.03046.34058.11794.42536.0818.03935.08846.10871.08173.19283.00185.14288.15836.17851.26346.23643a1.11656,1.11656,0,0,1,.18481.377c.17024.151.2249.423.37768.61573a1.1874,1.1874,0,0,1,.14379.25592c.10705.15286.32366.14739.36887.39332a1.38158,1.38158,0,0,0,.45734.54088,4.1045,4.1045,0,0,0,.43451.34323c.06755-.01316.06905.03471.08571.07768.26449.10744.73989-.26.73243-.51106.02189-.11446.09857-.26665-.03026-.30609-.0711-.02177-.09771-.31678-.13612-.38789-.02172-.04017-.085-.08415-.10015-.12062-.023-.05542.04558-.16283.04217-.23056-.00367-.0752-.08716-.096-.124-.14807-.03882-.0553-.04565-.13379-.12109-.16242-.35759-.01281-.24368-.17561-.42993-.38558-.08064-.08653-.10866-.234-.22606-.272-.05788-.00125-.16139.041-.18044.00735.1012-.28291-.00818-.21931-.08768-.42846-.00826-.05951-.0007-.10437-.03878-.14307-.07626-.04652-.02831-.16406-.04026-.23145-.11972-.05433-.09514-.24416-.24468-.29673-.10178-.05764-.06467-.17147-.10324-.27053-.03516-.09027-.19532-.08905-.2378-.17443-.03564-.072.01441-.20234-.06494-.2417-.05688-.02832-.17383-.00446-.21606-.04419-.05834-.1379-.07673-.06135-.15773-.11357-.00878-.02858.04347-.08687.06251-.13.01526-.15981-.20612-.2075-.32089-.24469-.20472-.06634-.197-.12641-.33046-.26977-.07071-.07595-.17081-.05969-.26783-.0744a.69875.69875,0,0,0-.6836.37605C15.92515,4.83106,15.99826,4.77512,16.038,4.87194Z"/></svg>