<svg id="Layer_1" data-name="Layer 1" xmlns="http://www.w3.org/2000/svg" viewBox="0 0 50 50"><defs><style>.cls-1{fill:#fff;}.cls-2{fill:#f79f92;}</style></defs><path class="cls-1" d="M44.375,6.24485,40.01447,19.10371l8.12075,10.882a.304.304,0,0,1-.24749.48574l-13.577-.17353-7.84,11.086a.304.304,0,0,1-.53844-.08528L21.90186,28.33255,8.93575,24.30208a.304.304,0,0,1-.08529-.53844l11.086-7.84-.17355-13.577a.304.304,0,0,1,.48574-.24749l10.882,8.12074L43.98954,5.85936A.304.304,0,0,1,44.375,6.24485Z"/><path class="cls-2" d="M33.62031,13.95194a15.46554,15.46554,0,0,1,2.45017,12.18815c-1.05578,5.39891-6.461,10.80562-9.5997,15.24385a.304.304,0,0,1-.53844-.08528L21.90186,28.33255,8.93575,24.30208a.304.304,0,0,1-.08529-.53844l11.086-7.84-.17355-13.577a.304.304,0,0,1,.48574-.2475C25.01861,5.65805,30.42571,9.22307,33.62031,13.95194Z"/><path d="M9.60766,31.96868c-.04681.04816-.11856.06733-.10008.15a1.00666,1.00666,0,0,0-.27.42l.04.04c-.01965.17674-.16158.2453-.31009.34a4.87891,4.87891,0,0,1-.6599.7c-.27995.13848-.34359.43978-.54.64008-.30225.226-.54034.53812-.85992.74995-.15.06572-.198.21078-.3.31a2.40966,2.40966,0,0,0-.5.39992c-.09132.16627-.13414.36515-.33008.44a.318.318,0,0,0-.25.19c-.11355.20738-.36912.25973-.5601.35-.0602.103-.08694.22841-.23.25a1.10381,1.10381,0,0,1-.31005.21c-.07982.07-.06981.22006-.09984.33-.10159.31759-.33335.15461-.38989.44l-.06006-.06a1.4847,1.4847,0,0,0-.3801.31c-.07948-.01893-.10474.05164-.13991.1a.535.535,0,0,1-.41016-.02994c-.17909-.14011-.32684-.40495-.22995-.59006.02174-.33616.08528-.31148.29-.50993.02-.03005-.06008-.16006-.03005-.18008l.05.05c.24108-.18351.18727-.66574.51-.76.29489.08259.10376-.12138.32011-.23.05-.07.03-.2.06982-.29.06006-.11.22021-.11.32006-.19.11011-.09.12012-.29.24-.37.13012-.1.28-.11.3601-.26.08082-.20791.30948-.26852.39993-.44.09265-.04818.24114-.05155.3-.16.05007-.07.11013-.08.19-.12.20883-.14778.25306-.32372.56007-.30994.06415-.06809-.06138-.25809.07008-.33006.204-.25154.709-.57432.78006-.78993a.52989.52989,0,0,1,.27-.43009c.18339-.30485.21281-.19362.49-.28994.09339-.12357.12368-.17688.28-.22.05979-.03007.08982-.14.18992-.15006l-.07007-.07c.03-.02.1399.04.16993.02a.73817.73817,0,0,0,.17013-.21005c.2063-.05545.4913-.1878.7-.05C9.5473,31.50743,9.70717,31.6592,9.60766,31.96868Z"/><path d="M18.27758,32.05871c.02277.19975-.09919.23429-.2.34995-.002.11375-.28884.32087-.4001.60006l.04.05c-.06246.21977-.24161.32477-.42.45a9.98142,9.98142,0,0,1-.91991.95,18.65383,18.65383,0,0,1-1.88018,1.8799c-.35489.33408-.71382.64953-1.0798.99008-.13374.20176-.22921.45719-.45993.57a.62138.62138,0,0,0-.34006.27,1.73176,1.73176,0,0,1-.72.50995c-.07005.07-.08006.18-.15013.25-.21529.10586-.3497.28333-.55981.4-.20157.29006-.21912.65973-.62018.79993-.16854.30274-.18713.43855-.53.64-.53364.6285-1.19424,1.132-1.65984,1.8-.75182.68407-1.48052,1.343-2.22,2.01991a1.32916,1.32916,0,0,1-.66018.68,1.97407,1.97407,0,0,1-.85988.67c-.08865.13162-.13439.292-.31.34a2.73093,2.73093,0,0,1-.40013.31c-.10985.09006-.12987.27-.18992.40005-.11352.30217-.44482.31443-.54.59l-.05982-.06c-.2235.08584-.359.38708-.56.44007-.11185.09674-.15434.22644-.35016.19985-.20873.04977-.3459-.1004-.42988-.26-.10989-.21-.02005-.27.02-.42.04763-.1943.08685-.42786.29-.51.23521-.19466.10841-.17532.13989-.35l.05005.06c.31257-.2638.35182-.81754.73-1,.34557.05592.15307-.1639.42-.33.08006-.09.07005-.24.14012-.34.08008-.15.28-.18.40991-.29.15015-.13.19019-.36.3501-.48.37392-.17669.54015-.54862.86984-.79.08451-.03219.09368-.10721.15018-.17.32437-.11842.35423-.26746.62987-.42.21022-.12.31007-.39.57008-.42995.20953.00858.18024-.12816.18992-.29a5.03873,5.03873,0,0,1,.93014-.93c.20416-.11855.24112-.34579.31987-.54a7.22185,7.22185,0,0,1,.57-.6c.11017-.05994.27008-.04993.36017-.12994a.81956.81956,0,0,1,.36991-.31,3.84908,3.84908,0,0,0,.81-1.08011c.11354-.236.40137.01215.43-.28993a1.00669,1.00669,0,0,0,.3-.51c.07989-.15.28008-.18.41-.28995.15015-.13.18995-.36.3501-.48.373-.18055.53869-.55424.86984-.79.07187-.02884.1006-.10951.15017-.16994.252-.07342.40107-.29782.62987-.41006.20022-.13.31008-.39994.57009-.44.19858.03377.19217-.1399.1799-.29.34528-.55514,1.08708-.81672,1.26007-1.47.06-.13.19016-.2.29-.3.1001-.1.15992-.24.28-.3.10987-.06.27-.05.35987-.13a.89469.89469,0,0,1,.37015-.31c.07-.05.12008-.18.25-.22l-.07007-.06006c.03-.03.16016.02.19019-.00995.11612-.06753.15559-.1894.25-.28.24137-.10343.55193-.29369.82984-.18C18.18142,31.71918,18.32912,31.84625,18.27758,32.05871Z"/><path d="M18.66772,40.75872c-.05507.03687-.11081.06181-.11009.14a1.08184,1.08184,0,0,0-.27.42l.05.04c-.03837.1958-.14818.23643-.31009.34a6.49459,6.49459,0,0,1-.66991.71c-.41215.26071-.33082.537-.87014.93-.44417.41494-.88327.75867-1.32978,1.16009-.1491.49182-.35486.33982-.58013.63-.108.21109-.36827.26279-.56.35-.06407.09831-.07614.22552-.22.25a1.55361,1.55361,0,0,1-.31006.22c-.08982.06-.0698.21-.10984.32-.07471.2746-.33932.19242-.39013.44l-.06006-.06c-.19036.05713-.28744.30593-.42991.31-.10979.08849-.059.15545-.28007.12987a.53453.53453,0,0,1-.44992-.64993c.03289-.15189.02406-.34655.19016-.4.12758-.08569.11365-.15361.06983-.28l.06006.05c.22441-.18841.20134-.6611.5-.77.06008,0,.12991.04007.16994.02.05616-.17089.00149-.127.15018-.25.05979-.07.03-.2.0698-.28.06005-.12.23022-.12.32006-.2.12012-.09.12012-.29.24-.37.13013-.1.28-.11.36011-.26.07034-.20148.32451-.25656.39994-.44.2134-.02783.311-.19091.48994-.28009.212-.14044.26993-.32748.5701-.30991.0467-.07427-.05511-.2549.06007-.33006.19428-.23635.71965-.57605.79007-.77993a.50984.50984,0,0,1,.25975-.44c.16712-.2897.251-.19708.5-.29.099-.14218.11435-.16979.28-.22.05-.03.08-.14006.17991-.15l-.05982-.06c.02-.03.13989.03.15991.01.09463-.05032.10851-.14861.18016-.21a.88489.88489,0,0,1,.7-.05C18.61889,40.30658,18.76659,40.47324,18.66772,40.75872Z"/><path d="M43.60766,42.13281c-.13326-.39017.0009-.84234-.32691-1.18457-.14965-.16169-.35155-.25861-.4851-.41889a1.58571,1.58571,0,0,0-1.17161-.74573,2.0811,2.0811,0,0,0-1.95974.12922,3.01666,3.01666,0,0,0-1.221,2.12428c-.0708,1.42128,1.20729,3.01312,2.72155,2.6798a2.44514,2.44514,0,0,0,2.27626-1.62563A1.23472,1.23472,0,0,0,43.60766,42.13281Zm-1.28027,0c-.103.29433.055.119-.17217.42954.02156.19742-.17158.2187-.30881.25287a1.124,1.124,0,0,1-.42751.32291c-.08289.12471-.21487.28841-.38962.22507a1.98706,1.98706,0,0,1-.88472-.39508c-.07157-.00652-.18411.02736-.22171-.032.0523-.40479-.082-.37168-.07647-.67438.07631-.20684.00606-.34539.20907-.4849-.00953-.17922.20766-.27491.26849-.44706.08255-.13749.22806-.11253.356-.136.11377-.019.20971-.176.353-.16168.11962.01562.20043.14154.304.12915.07593-.00769.1814-.08185.26538-.05219.15255.17161.34214-.01458.25147.27807.06371.27225.50023.37472.47827.74574Z"/><path d="M11.4624,8.20794c-.10083-.18322-.32352-.39574-.53811-.34282-.03168.04119-.04892.094-.11742.06851a.90283.90283,0,0,1-.3164.20205l-.05175-.05976c-.03516.0188-.00879.10871-.05005.119-.123.0307-.23145.06128-.26758.19794-.02368.08929-.00537.226-.07593.27-.14059.037-.21739.13851-.36133.1652-.04223.03481-.03515.119-.07641.15389A.6283.6283,0,0,0,9.062,9.2824c-.07663.03309-.18751.02284-.24491.09925a1.35523,1.35523,0,0,1-.17651-.24817c-.13146-.1504-.37154-.15784-.44356-.40056-.11122-.21188-.32575-.33694-.47614-.50824-.05973-.132-.07409-.22349-.22874-.23579l-.13916.1203V8.10913l.09058-.07837A.64223.64223,0,0,1,7.135,7.83523c-.06957.01735-.07723-.035-.10084-.07853-.28395-.10484-.7315.3156-.68043.57862-.00585.124-.05967.28993.07884.324.13013.09237.0271.14025.02443.22436l.14819-.128v.00006l-.08154.07038c-.00659.08441.07812.10064.09717.14422.016.15726.01851.13071.13528.21812.02828.19766-.08855.26482.14381.39911a.30531.30531,0,0,0,.32664.18633c.14667.01748.28756.38554.488.55972-.14611.09346-.26567.21947-.42017.30128-.15526.13736-.18861.39677-.43022.46912a3.25619,3.25619,0,0,0-.54266.506c-.13623.06431-.23508.0834-.25222.243l.06714.07752-.00024.00006-.02515-.02912a.731.731,0,0,1-.21293.32371c.01573.07178-.03958.08061-.08469.10622-.1202.29076.30611.7442.57814.68084.12936.00217.29992.051.33887-.09177.10008-.13563.1426-.03447.23364-.03236l-.05762-.06659c.0874.00378.10718-.08374.15283-.10456.16139-.02015.13936-.02667.23069-.14627.212-.03473.27169.08115.419-.16083a.33651.33651,0,0,0,.20384-.34209c.045-.17371.46694-.34221.64945-.57017a.55717.55717,0,0,1,.20285.34109c.05057.09422.21634.08531.27347.17411.04834.07489.0166.21588.105.254.2125.03979.16235-.03568.31346.12911.14563-.00942.09723.057.054.162.01383.24838.453.18337.56007.3648l.1919-.16577V12.757l-.25049.21649c.08839.00365.16171-.106.23389.04177.01375.14235.18575.11239.30931.125.25279.08817.7335-.29359.67091-.58967-.04016-.02936-.09-.04529-.06322-.11115-.12275-.14072-.09469-.16864-.16554-.31774l.03833-.03314c-.0105-.02-.042-.02131-.071-.02478-.10143-.08257-.06675-.24457-.228-.27191-.1419-.01735-.28353.00022-.2927-.1683a.5203.5203,0,0,1-.11741-.24017c-.13213-.06778-.18392-.0406-.16847-.23139-.00977-.18242-.1414-.25652-.25493-.35451-.0298-.06923-.0152-.17223-.08445-.22542.0647-.103.18213-.09552.28637-.15314.09937-.05493.09546-.22522.1897-.28687.0791-.052.22437-.024.26685-.11621.04667-.22014-.02791-.1698.14407-.32639-.00483-.14719.06052-.10336.1699-.0608.25921-.02309.20453-.47143.39672-.58778l.05078.05877c.0232-.01281-.05542-.14325-.03564-.16058.04328-.08443.11687-.07073.17238-.12143A.73236.73236,0,0,0,11.4624,8.20794Z"/><path d="M48.82763,29.95873a1.16094,1.16094,0,0,0-.42988-.76c-.12017-.08-.3001-.12-.38018-.25-.0857-.22364-.2361-.399-.32-.62-.05984-.08-.17-.11-.23-.19-.12616-.65158-.44665-.68989-.64-1.19-.07461-.24139-.31608-.37982-.49992-.54007a4.81749,4.81749,0,0,1-.48-.75994c-.44746-.55407-.82305-1.19315-1.24-1.79-.22931-.29708-.59568-.49815-.73987-.87008a12.53826,12.53826,0,0,0-.83015-1.06995c-.13842-.22648-.234-.53718-.53367-.61556a.39874.39874,0,0,0-.20628-.28444c-.15661-.0616-.19044-.02989-.29006-.13a1.49243,1.49243,0,0,0-.14991-.31.21278.21278,0,0,0-.12011-.18c-.142-.09187-.07963-.31486-.17992-.45-.06066-.13865-.164-.14241-.24-.29a.66663.66663,0,0,0-.06007-.22.61576.61576,0,0,0-.27-.21.80108.80108,0,0,1-.16993-.23c.07223-.02471.12765-.1977.15991-.27a7.06632,7.06632,0,0,1,.29005-.71c.05683-.11141-.02884-.34631.07007-.53a3.31009,3.31009,0,0,0,.33982-1.01c.10148-.17127.16382-.17711.12012-.4-.0458-.2816.26383-.46542.23-.78a.98057.98057,0,0,1-.01-.45c.12182-.19875.18952-.42914.3301-.62a.58542.58542,0,0,1,.2-.51,1.79552,1.79552,0,0,0,.3-.79c.3124-.31554.235-.66309.34978-1.04.36489-.90506.70273-1.81127,1.07014-2.73a4.24069,4.24069,0,0,1,.30015-1.11,10.99563,10.99563,0,0,0,.40982-1.29,1.1392,1.1392,0,0,0,.2-.66,1.18746,1.18746,0,0,0-1.57984-.87c-.269.0273-.39.33539-.6301.42-.22806.00489-.462.12135-.69.10995-.10009.04-.15991.13-.25.16a1.88853,1.88853,0,0,0-.88988.14.62887.62887,0,0,1-.4402.09992,1.28859,1.28859,0,0,0-.66991.32,5.78985,5.78985,0,0,1-.86988.22,16.0059,16.0059,0,0,0-2.61012.89992,16.53515,16.53515,0,0,0-1.8.62012,1.55508,1.55508,0,0,0-.80179.31069c-.11888.01633-.17471-.00418-.28809.10926-.123.15788-.0775.15881-.2102.24a1.33286,1.33286,0,0,0-.33985.04c-.08212.00775-.05287-.02088-.16992.02-.07061.05848-.0147.05953-.2102.1a.55759.55759,0,0,0-.51.05c-.08466.08733-.25689.0474-.37989.05-.039.01831-.09905.02705-.12988.06a.84537.84537,0,0,0-.18018.15,2.47225,2.47225,0,0,1-.24.08c-.01786-.07733-.148-.18447-.21-.24a6.40836,6.40836,0,0,1-.5901-.5.26662.26662,0,0,0-.13987-.06.90412.90412,0,0,0-.13988-.04,1.06613,1.06613,0,0,1-.17018-.09,3.00082,3.00082,0,0,0-.86011-.65c-.09035-.07146-.12414-.18353-.23974-.24a.33478.33478,0,0,1-.13013-.02c-.05-.05-.15991-.01995-.2-.07995-.23095-.38962-.55779-.3467-.9-.50993a3.29241,3.29241,0,0,0-.3701-.35c-.07929-.17055-.24268-.19544-.39013-.27-.18132-.23091-.33574-.52483-.62989-.65a.67615.67615,0,0,1-.32-.3c-.17908-.26782-.51831-.27291-.75-.46a19.06933,19.06933,0,0,0-2.78972-2.15008,17.56717,17.56717,0,0,0-1.5304-1.12983,1.17,1.17,0,0,0-.56977-.4001c-.76225-.1779-1.292.60077-1.32,1.24-.03563.26595.19811.47689.20995.72-.063.23152-.027.47185-.10992.7.19569.46547-.18614.67093-.06,1.18.04385.46232-.18088.65078.05013,1.18-.0315.50735-.03949.99376-.05009,1.49-.06979.52774-.01447,1.05164-.06011,1.58a4.18511,4.18511,0,0,1,.09,1.14,9.8499,9.8499,0,0,0,.04013,1.35.9513.9513,0,0,0,.02977.63H19.21l.00781.02942c-.06417.01155-.01012.01442.01978.1106a.93768.93768,0,0,0-.06006.19c-.01591.06962-.00834.053.02.18a.1646.1646,0,0,1,.04.06.75939.75939,0,0,1,.1001.13c.08224.16778-.00589.07708-.02.45-.102.148.01969.15025-.01.39a.56445.56445,0,0,0-.11989.29c-.04287.201.0916.26832-.03.5-.08225.15353.00986.294.05983.43.03675.058.01331.19108.01.27a.71349.71349,0,0,0-.28981.13c-.227.15549-.45629.2895-.69018.44-.1044.06683-.09572.199-.2898.33a2.55454,2.55454,0,0,0-.58007.36c-.1468.111-.27136.2862-.46.33-.04951.025-.13449.05425-.16014.13-.12294.32706-.49188.26819-.68.57-.19178.4193-.37086.41694-.88988.68-.22152.36407-.72764.27869-1.01026.61a.67174.67174,0,0,1-.37989.22c-.25723.07295-.39031.30823-.57.49a5.77941,5.77941,0,0,1-.76.46c-.56449.43219-1.22351.79095-1.8198,1.19-.3117.23-.50486.57922-.90021.71993a13.211,13.211,0,0,0-1.07978.80007,1.34308,1.34308,0,0,0-.56007.42,1.18561,1.18561,0,0,0,.78,1.63c.22741.1371.52016-.03331.75.04a6.64312,6.64312,0,0,1,.62987.31.62859.62859,0,0,1,.52.18,1.64009,1.64009,0,0,0,.79007.28988c.39176.32746.62991.20731,1.05007.32a19.80445,19.80445,0,0,0,3.3498,1.09022,17.70746,17.70746,0,0,0,1.82012.55979,1.01433,1.01433,0,0,0,.61008.17008l.00464-.01544c.01264.001.02273.00847.0354.004-.00765.02681.03107-.00286.10986-.00855a.43945.43945,0,0,0,.36988.15,1.35842,1.35842,0,0,1,.20019-.07c.139-.02639.10536.03553.40992.16.12379.14806.14858.024.38012.13a.59827.59827,0,0,0,.24.21c.13992.06621.209.02565.36986.09a1.09669,1.09669,0,0,0,.13013.12.30267.30267,0,0,0,.17993.05.179.179,0,0,0,.1001,0,.47186.47186,0,0,0,.10986-.01.59781.59781,0,0,1,.26.08.82618.82618,0,0,0,.03.31c.0711.26713.152.52262.19994.8a1.13638,1.13638,0,0,1,.23.37,3.19178,3.19178,0,0,0,.32009,1.03c.04177.11738-.01078.22058.05.34a.75945.75945,0,0,1,.22.27c-.06149.45925.24932.60447.42.94a2.70614,2.70614,0,0,0,.10006.51c-.04356.18424.07729.30125.1499.44a1.89755,1.89755,0,0,0,.21,1.09,1.27989,1.27989,0,0,0,.3.92c.24971.99962.50443,1.96426.77,2.97.11371.37551.38747.66278.40983,1.08005.09542.56306.42169,1.04985.48,1.61.2784.92029,1.52216.7445,1.96019.0899.20506-.16919.12533-.50374.26-.6999.19014-.15178.30758-.35524.49-.5.07239-.18486.133-.35868.33987-.44a1.859,1.859,0,0,0,.52-.66009c.42412-.27379.396-.5394.63007-.91.18578-.29882.49935-.5193.64-.83994.42554-.46062.76326-.99531,1.17009-1.47a3.88594,3.88594,0,0,1,.6-.98,9.34984,9.34984,0,0,0,.74993-1.12.94046.94046,0,0,0,.36012-.52l-.03149-.02221c.00512-.00989.012-.0188.01635-.02906l.02491.01123a.44654.44654,0,0,1,.02-.11c.12563-.08971.18784-.10014.24024-.28a.8639.8639,0,0,0,0-.24c.03595-.14845.08034-.09266.28979-.34.17253-.08111.05732-.14573.24-.31a.77733.77733,0,0,0,.27-.17.54224.54224,0,0,0,.13012-.24.60671.60671,0,0,1,.07008-.08c.02586-.01238.08489-.045.10987-.06a.5001.5001,0,0,0,.19994-.39.75064.75064,0,0,1,.16016-.23.58651.58651,0,0,0,.30983.07c.25859.02072.508.02.77.06a.17542.17542,0,0,0,.09007-.02.55892.55892,0,0,0,.13988-.05.39375.39375,0,0,0,.10012-.03.25851.25851,0,0,0,.09009-.01,3.79155,3.79155,0,0,0,.73.06,1.12619,1.12619,0,0,1,.62988.01c.09125.02226.11788-.01532.22-.06.07007.01.14014-.08.21-.06.44258.19637.64793-.048,1.03-.11007.22353.05276.46408.04692.69019.1201.09985,0,.18994-.07.29-.06a1.98424,1.98424,0,0,0,1.09986.13987,1.364,1.364,0,0,0,.97,0c.80849.03069,1.612.12259,2.43018.1401a3.64954,3.64954,0,0,0,1.21972-.04c.4837-.03245.97342.099,1.47022.03.39148-.08567.74688.12073,1.12988-.0299A1.03472,1.03472,0,0,0,48.82763,29.95873Zm-1.82007-.29c-.36126.02667-.72788-.08883-1.04979.13a15.21214,15.21214,0,0,1-1.54-.01992c-.22886-.05764-.32488.32488-.52.1-.21-.16-.49-.05-.73-.11a3.611,3.611,0,0,1-.75-.16009c-.26338.04953-.54866-.068-.82009.02012a2.13392,2.13392,0,0,1-.6101-.08006c-.2-.03-.39991.1-.59986.08-.17016-.01-.33008-.13-.5-.09a1.02911,1.02911,0,0,1-.5901.14c-.1223.0982-.2133.05576-.3-.07-.4019-.13441-.841.20781-1.24733.16978l.00122-.08863-.00122.08863-.00269.00024v.03052c-.01269-.00128-.02246-.00684-.03588-.00726-.00185-.06683-.02881-.05268-.074-.05322a.51653.51653,0,0,1-.29-.07.19419.19419,0,0,1-.25-.05.4281.4281,0,0,0-.17994-.11.74089.74089,0,0,1-.38013.00995c-.16314-.01958-.294.24669-.49.18a.16769.16769,0,0,1-.08008-.02c-.02144-.00412-.06884-.014-.08984-.02-.14561.00267-.48182-.00545-.63013-.01-.11364-.014-.1177.09445-.27.17-.27636-.31228-.76276-.21642-1.10987-.09-.23747.14538-.37082.43359-.57007.61a.64264.64264,0,0,0-.08007.12.26939.26939,0,0,0-.05981.14c-.00852.05423-.14.1761-.21023.21a.427.427,0,0,0-.14989.2.51346.51346,0,0,1-.08007.24.92191.92191,0,0,1-.18994.12.42982.42982,0,0,0-.08008.13c-.002.05261.01551.127.01024.18.00389.04228-.03743.09254-.10009.19-.007.048.02329.04064-.04.13-.0596.00918-.15271-.02659-.22.06a1.00343,1.00343,0,0,0-.11009.38.84332.84332,0,0,1-.08985.29,1.10044,1.10044,0,0,0-.24.3c-.07009.07-.17018.09-.22.19-.0547.22419-.26676.27753-.44021.38-.23437.34609-.50766.6295-.52.97-.07191.32623-.40311.49616-.53973.79-.068.11537-.40967.50163-.42023.64.02207.139.06288.29324-.1299.32-.26.08-.32.37-.51.54-.23659.17725-.27082.37653-.56009.52a.41791.41791,0,0,1-.10984.2c-.30225.2989-.39372.71066-.75.94-.13008.15008-.14009.39007-.27.5501-.11011.13-.30005.2-.36011.36a1.09116,1.09116,0,0,1-.21.57c-.00348.123-.04068.20336-.19012.2-.09932-.24324-.14107-.51963-.25972-.75-.13852-.15823-.32641-.311-.3301-.54a5.98237,5.98237,0,0,0-.39987-1.29c-.13767-.08161-.28408-.13641-.17019-.31.08-.25-.1099-.47-.11991-.72.02255-.22974-.12808-.40337-.09011-.62a.232.232,0,0,0-.05-.24,8.14253,8.14253,0,0,1-.31979-1.28c-.04006-.2-.23-.35-.27-.55-.04-.17.02-.36-.07007-.51a.85908.85908,0,0,1-.32-.51c-.13068-.10963-.11326-.17083-.03005-.31.03072-.43137-.46136-.729-.53983-1.13l-.01392.00123a.45665.45665,0,0,0-.02221-.0445c.094-.03214-.00134-.0666-.0039-.22675.056-.20456-.10132-.19538-.04006-.37a.39934.39934,0,0,0,.06984-.24.17262.17262,0,0,1-.02979-.06.49778.49778,0,0,1-.08007-.19.32925.32925,0,0,0-.11012-.24c-.086-.06393-.20637-.12618-.23-.24006a3.43843,3.43843,0,0,0-.19994-.81c-.03024-.11-.11409-.08349-.25-.21a1.4134,1.4134,0,0,0-.02-1.02c-.00907-.03513-.04632-.05035-.08008-.06a3.98312,3.98312,0,0,1-1-.39005c-.12063-.04016-.17216.00765-.33986-.06-.13159-.086-.11185-.12438-.31005-.17a1.12514,1.12514,0,0,1-.3,0,.35906.35906,0,0,0-.07984-.05c-.07671-.06869-.09763-.12583-.24023-.13a1.33474,1.33474,0,0,0-.16993.07.94769.94769,0,0,1-.20994-.04c-.05108.01292-.02536.02237-.13991,0-.03908-.34477-.46986-.16522-.7-.16-.1537.00669-.22456-.1052-.48022-.15a.78721.78721,0,0,0-.46-.19c-.10984-.05-.17991-.19-.28-.26a7.0603,7.0603,0,0,0-.81981-.23011.8973.8973,0,0,1-.63014-.03993c-.31486-.15573-.78751-.25868-1.11988-.38-.14513-.09854-.29631.08593-.42016.06005-.21507-.296-.4507-.27637-.77006-.42-.17458-.14737-.38869-.12624-.55979-.28006-.08032-.13937-.22607-.06477-.34008-.14-.37587-.18215-.78825-.16163-1.11984-.42-.19022-.08-.4202-.00995-.60013-.08991-.16015-.06-.29-.22-.46-.23a.91659.91659,0,0,1-.60008-.03c-.126.05207-.21914.02272-.26-.10991.27986-.24034.63482-.35794.77-.72a13.707,13.707,0,0,1,1.26-.89009c.21213-.092.07174-.45883.35991-.38988.26026.00994.42017-.25.65015-.34.26658-.08529.42044-.26931.71-.30994.166-.21012.48763-.26608.65011-.50009.15993-.17.33986-.18.53982-.29.17016-.1.26-.32.43017-.42.1499-.09.34985-.09.46-.22a1.04,1.04,0,0,1,.38994-.46c.06787-.15726.1314-.16905.29-.13.41439-.0936.55284-.65436.8999-.87a.06351.06351,0,0,0-.01612-.03852c.0105-.00366.02442-.00274.03443-.007.07565.09925.07133-.01055.23169-.06445.18693-.024.12822-.094.3-.16006.1032-.002.22077.06642.31006-.02995.04906-.027.07847-.09531.13013-.12.0973-.06874.15144-.06884.23-.17a.47857.47857,0,0,1,.0298-.09.52022.52022,0,0,1,.08008-.19c.04643-.05615.05918-.03435.09008-.07a5.43256,5.43256,0,0,0,1.64993-1.33c.209-.31625.10043-.71942.14012-1.08.01977-.13.13988-.37.08983-.51a.23955.23955,0,0,0-.03979-.09l-.03027-.1c-.07171-.14766.09536-.25038.06006-.43-.01421-.066-.09282-.10985-.11987-.17-.02431-.01666-.02616-.11241-.03-.21-.02756-.05078-.02983-.01434-.05006-.13.06984-.06243.07309-.0234.15016-.14a.15386.15386,0,0,0-.01027-.07.29416.29416,0,0,0-.04981-.17,1.42758,1.42758,0,0,1-.18016-.5h.01025c.06564-.17385-.02994-.13868.07987-.62-.09455-.2179.05066-.37863.13014-.56a7.10208,7.10208,0,0,0-.03-.85c-.08331-.20429-.22437-.38838-.16021-.62006.05252-.34048.006-.83052.02-1.18.0359-.17172-.18262-.24464-.19-.38.21428-.30271.13166-.51566.15989-.86.09661-.20467-.00862-.4132.10013-.62a.269.269,0,0,0,.02-.24,2.50156,2.50156,0,0,0-.01-.72c-.06-.23.04007-.37995.06009-.6.02-.2-.11011-.4-.1001-.6.01-.17.12012-.34.08008-.51a.99742.99742,0,0,1-.15984-.58c-.06768-.09673-.09286-.19712.02972-.28.22688.14426.42326.33015.65011.46a.91932.91932,0,0,1,.58987.24,9.7815,9.7815,0,0,0,.92015.73c.11582.15008.30883.01613.42.08992.10461.34932.34228.41632.58011.65.17963.22491.38445.31763.51992.57008.24567.12017.39864.37753.68.46991.20994.10006.27.27.42991.42007.14991.13995.39014.15.54.29.12989.11.19995.3.3501.37a1.00054,1.00054,0,0,1,.5698.23c.17248-.008.19046.07347.20019.23.25335.35627.80976.35387,1.14969.62938-.03418.06153.06359.05346.14012.16059.05908.16876.17979.10879.24.24.02284.05075.02126.12836.04.18.01707.01269.05133.09777.09011.11.236.08259.2296.19511.37986.24005.06758.02078.17216-.0198.24.00995a.12587.12587,0,0,1,.09009.03.08788.08788,0,0,1,.05.03c.03652.03507.06279.09514.10987.12.05489.079.14819.11181.22021.18.118.06114.30638.32.47.26.20861-.07339.16853.045.23.22.08986.15.28.24.37989.38.06948.12122.14907.22449.30006.22.35423.01309.65247-.25485,1-.27993.12607-.03908.16754-.12228.32006-.15006.12748-.01165.257.03767.3899-.07993a.64179.64179,0,0,1,.21-.14c.06992-.02695.28044.066.36012-.05.0668-.08952.05819-.13687.1799-.2a.81268.81268,0,0,0,.11013-.04c.034-.0411.00863-.0432.10986-.08.0639.02975.09258.10748.21021.08.17958-.07689.33234-.28407.48974-.39a.42724.42724,0,0,1,.11012-.05c.12332.02164.23742-.06786.33007-.08a.88544.88544,0,0,0,.48-.12005c.11989-.03.25.05.37989.04a1.09058,1.09058,0,0,0,.39014-.15,1.17464,1.17464,0,0,0,.40991-.14c.15434-.13654.3056-.33155.53-.35a9.85292,9.85292,0,0,0,1.13013-.34c.17418-.01855.19245-.24812.30979-.3.30213.119.576-.05073.87013-.11009.30553-.01338.41892-.13136.76-.09985a.43172.43172,0,0,1,.21-.09006c.41074-.06292.733-.34441,1.14991-.32.20018-.05006.35008-.23005.54-.28.16993-.05.36011.01.51-.08a.95829.95829,0,0,1,.5-.3399c.087-.09863.1561-.1503.28-.05011-.0784.34113-.31626.67033-.2,1.03a13.26611,13.26611,0,0,1-.49993,1.46c-.09937.15873.08847.29122.05.43-.30459.21445-.28479.43983-.44018.76-.14784.20951-.19148.47958-.38.6599-.034.27552-.2403.50276-.2399.79-.03007.23-.17.35-.26.55-.09009.18-.03.41-.11011.6-.06982.15-.23.27-.24.45a.89411.89411,0,0,1-.05011.6c.06625.15508-.01711.21569-.15988.27-.2639.33423-.06153.85531-.21994,1.23l.04.02c-.00366.01165-.00317.0241-.00586.03594-.14768-.03414-.0651.04474-.16407.184-.14164.10973-.04906.22856-.15013.30006-.07413.06409-.18189.07369-.22.18-.03411.08687-.02051.18724-.07006.27a.4318.4318,0,0,0-.05981.2c.03152.1474.11452.25481.03978.41a3.8708,3.8708,0,0,0-.30006.74c-.03766.09948.04287.1468.0801.32a1.03281,1.03281,0,0,0-.56985.75994c.02769.37055.41141.604.51979.95a1.55456,1.55456,0,0,0,.14015.2c.06273.05082.167.10921.19.22.04016.11166.0406.21281.17992.3.0811.06808.20806.10793.23.24.02635.17906.0834.27317.30005.29a.66231.66231,0,0,1,.15013.16c.04742.01992.03382-.002.10987.08-.0115.06915-.07208.1235-.01.23a1.311,1.311,0,0,0,.40991.26.67365.67365,0,0,1,.19019.17c.02.13.13989.2.17993.28a.74764.74764,0,0,0,.26006.42c.08938.3397.04514.44411.34011.71a.96383.96383,0,0,0,.51.47c.28622.17869.34236.532.57983.76a3.52351,3.52351,0,0,0,.47017.6c.07984.03.2.01.25.07.00255.37111.20734.50278.36993.8a3.45522,3.45522,0,0,1,.33.69c.21264.17984.278.48512.51987.65.17012.15.19014.33.3.52.10009.18.33007.26.43017.43.09985.14.09985.35.24.46a.92136.92136,0,0,1,.46992.37A.1777.1777,0,0,1,47.00756,29.6687Z"/></svg>