<svg id="Layer_1" data-name="Layer 1" xmlns="http://www.w3.org/2000/svg" viewBox="0 0 50 50"><defs><style>.cls-1{fill:#fff;}.cls-2{fill:#8bd2d4;}.cls-3{fill:#098080;}.cls-4{fill:#29aaac;}</style></defs><ellipse class="cls-1" cx="25.01924" cy="25" rx="19.07409" ry="18.62793"/><path class="cls-2" d="M39.05133,25.40162a21.02307,21.02307,0,0,1-3.12042,10.52557,20.23082,20.23082,0,0,1-2.42589,3.267,14.45946,14.45946,0,0,1-10.633,4.88115c-9.36122,0-16.94219-8.33419-16.94219-18.60518A19.933,19.933,0,0,1,14.66508,8.792a17.69833,17.69833,0,0,1,10.271-2.80728,14.682,14.682,0,0,1,2.62154.35226,13.00922,13.00922,0,0,1,8.4613,6.25052.15794.15794,0,0,1,.03917.06854A24.81488,24.81488,0,0,1,39.05133,25.40162Z"/><path class="cls-3" d="M36.10355,12.4956l-.08472.09186A13.00876,13.00876,0,0,0,27.55765,6.337a14.682,14.682,0,0,0-2.62158-.3523l.05859,18.6637.76172.071L36.05814,12.656l.0791-.08606C36.12406,12.54626,36.116,12.51977,36.10355,12.4956Z"/><path class="cls-4" d="M39.91144,24.62341c0,3.76633-2.122,8.24192-3.98053,11.30378L25.06324,24.5801l1.028-.27276,9.92771-11.71985,1.34991-1.46728a.25938.25938,0,0,1,.04895.05875L36.05808,12.656A18.51278,18.51278,0,0,1,39.91144,24.62341Z"/><path d="M44.84964,25.29333c-.01251-.19458-.10612-.38862-.13088-.57043a1.54437,1.54437,0,0,0-.01414-.79169,1.67951,1.67951,0,0,1-.18261-.54492,2.3488,2.3488,0,0,0,.00142-.67115,1.08852,1.08852,0,0,0-.11035-.60363c.15088-.838-.08642-1.02585-.13876-1.75427.00782-.404-.2825-.71754-.36026-1.09668a17.97214,17.97214,0,0,0-1.01361-2.867,3.97633,3.97633,0,0,0-.80574-1.38392,9.77748,9.77748,0,0,0-1.04785-1.63447c-.37062-.31706-.47249-.86-.89249-1.09333-.32978-.16941-.39324-.57855-.74272-.77017a3.03986,3.03986,0,0,1-1.07228-1.00042,1.03279,1.03279,0,0,1-.52-.50493c-.22811-.4484-.76684-.552-1.03961-.94995-.24649-.31231-.67064-.40218-.98242-.604a18.65279,18.65279,0,0,0-2.61327-1.55683,26.25127,26.25127,0,0,0-4.44529-1.39879c-.19368-.00423-.40371.06042-.58791.04331a1.54874,1.54874,0,0,0-.7793-.14429,1.381,1.381,0,0,1-.81542.03432,3.06963,3.06963,0,0,1-.6499-.10132,1.03378,1.03378,0,0,1-.72265-.06,2.52383,2.52383,0,0,0-1.106-.00224,2.76938,2.76938,0,0,0-1.44139.11892,12.218,12.218,0,0,0-4.504,1.044A11.312,11.312,0,0,0,15.8326,7.44779a1.31019,1.31019,0,0,0-.72026.42464L15.159,7.953l-.04663-.08057c-.2273.293-.6448.27616-.897.58283a2.81384,2.81384,0,0,1-.37548.437,4.57192,4.57192,0,0,0-.57274.34854c-.21793.05128-.33432.23806-.47948.38208a2.32435,2.32435,0,0,0-.98487.64668,1.13959,1.13959,0,0,1-.45951.35725c-.37.17836-.48614.59563-.7558.872a12.282,12.282,0,0,0-2.7887,3.68649,10.02685,10.02685,0,0,0-1.41895,3.32882,1.36272,1.36272,0,0,0-.28312.74039,1.13485,1.13485,0,0,1-.09476.81378,3.17316,3.17316,0,0,0-.25481.99836,2.95528,2.95528,0,0,0-.3247,1.13233c-.011.45453-.315.854-.15621,1.32421.07465.72534-.14182,1.32359-.06052,2.19a12.6678,12.6678,0,0,0,.43115,3.5565,8.90961,8.90961,0,0,0,.93243,2.72984,1.45135,1.45135,0,0,0,.25545.75071,1.14037,1.14037,0,0,1,.4526.68337,3.30984,3.30984,0,0,0,.44587.92885,2.9761,2.9761,0,0,0,.478,1.07673,1.13965,1.13965,0,0,1,.26411.51961c.11676.38963.52934.5624.73929.888a12.6642,12.6642,0,0,0,3.13859,3.39462,13.31458,13.31458,0,0,0,2.76909,1.88212c.35716.0742.55046.43879.95462.48113a1.72327,1.72327,0,0,1,.56932.10274c.24652.18235.52816.31055.77489.48648.12209.04624.25832.02353.37843.06833a3.32632,3.32632,0,0,0,1.32035.6201,2.27781,2.27781,0,0,0,1.2368.30623,6.80455,6.80455,0,0,0,1.52586.344,11.90911,11.90911,0,0,0,3.97168.25981,9.03106,9.03106,0,0,0,2.85157-.42c.50087.109.86523-.25528,1.28023-.43308.308-.01624.602-.11138.90775-.1214a1.02788,1.02788,0,0,1,.68849-.22567,3.08947,3.08947,0,0,0,1.0532-.34482,2.20936,2.20936,0,0,0,1.14548-.55728,18.56217,18.56217,0,0,0,3.49514-2.02981c.61894-.65819,1.36824-1.19232,1.97131-1.87274.24706-.41844.73427-.63354.91691-1.0735.132-.3405.50209-.48973.6284-.8655a1.11958,1.11958,0,0,1,.39358-.7133,2.61709,2.61709,0,0,0,.55219-.86911,2.71854,2.71854,0,0,0,.72754-.9319,1.12839,1.12839,0,0,1,.29252-.5018c.37-.60837.45733-1.37582.84186-1.98154a10.95286,10.95286,0,0,0,.92382-3.51669A24.985,24.985,0,0,0,44.84964,25.29333ZM25.57425,19.22259a1.57612,1.57612,0,0,1,.09033-.36755,2.50321,2.50321,0,0,0,.05957-.8736,1.68675,1.68675,0,0,1-.0205-.29712,2.47747,2.47747,0,0,1,.06494-.31451,1.897,1.897,0,0,0-.03467-.79743,1.73165,1.73165,0,0,1-.04346-.23437,1.37215,1.37215,0,0,1,.00293-.18457,8.21305,8.21305,0,0,1,.06446-1.05414A1.772,1.772,0,0,0,25.731,14.684a3.09961,3.09961,0,0,1,.02539-.42548c.041-.436.04541-.87506.04932-1.31342.00293-.29321.0039-.58288.03076-.87243a3.94769,3.94769,0,0,0-.09424-.81427,4.46191,4.46191,0,0,1,.02051-.78241,10.74761,10.74761,0,0,0-.00342-1.2666,4.95441,4.95441,0,0,1-.02393-.60633c.01368-.19055.04981-.37921.05518-.57177.00293-.10285-.06934-.2085-.07422-.31128h-.064a3.253,3.253,0,0,1-.09815-.78907.39491.39491,0,0,0-.00732-.144.39917.39917,0,0,0,.04443.00049c.147-.02258.27735-.12512.42822-.12927a1.32193,1.32193,0,0,0,.293.01288c.06592-.01679.12891-.06342.19532-.05152.07373.01319.11328.09137.17285.13477a.51728.51728,0,0,0,.25634.05621c.416.037.85938-.10754,1.27637-.029l-.001.0047c.12988.08044.29882.05194.40283.082.11865.02918.19775.12854.32324.14368a1.27124,1.27124,0,0,1,.25439.03521c.14746.05121.2417.19776.37745.27039a2.08908,2.08908,0,0,0,.49169.11,3.94936,3.94936,0,0,0,.51026.14c.10791.01074.21631-.00952.32568-.00854a.87922.87922,0,0,1,.43213.11962,3.93468,3.93468,0,0,0,.67432.27729,6.12607,6.12607,0,0,1,.65088.30029.45316.45316,0,0,0,.20507.06262c.10157-.00256.20948-.07147.3003-.02337a.35968.35968,0,0,1,.1123.13824c.16065.25977.52832.281.74805.501a1.28294,1.28294,0,0,0,.28711.23468.83831.83831,0,0,1,.30713.246.40632.40632,0,0,0,.11572.12878,1.1097,1.1097,0,0,0,.124.04346.48994.48994,0,0,1,.123.08527,3.95309,3.95309,0,0,0,.603.40344c.251.126.34424.3158.54345.497.17774.16937.46436.19464.63623.3753.0127.01319.021.03083.03272.045a.22209.22209,0,0,1-.04321.047c-.02393.01477-.05054.0232-.07447.03778a.40893.40893,0,0,0-.10888.1178,3.58852,3.58852,0,0,1-.56543.60187l-.06079-.05072c-.073.07336-.07325.20673-.15235.27155a1.90565,1.90565,0,0,0-.585.65759,2.05929,2.05929,0,0,1-.27954.57422c-.06543.06909-.14453.12213-.21338.18731-.113.10669-.19726.24372-.31543.34394a1.66769,1.66769,0,0,0-.2063.17157c-.09375.11035-.12622.25488-.2185.36432a1.7224,1.7224,0,0,1-.31714.2373,2.75533,2.75533,0,0,0-.634.66406,1.822,1.822,0,0,1-.18506.25183,2.67259,2.67259,0,0,1-.26172.21106,2.08779,2.08779,0,0,0-.511.66327,1.754,1.754,0,0,1-.12475.21631,1.45586,1.45586,0,0,1-.12647.14673,9.13578,9.13578,0,0,1-.76025.80572,1.94782,1.94782,0,0,0-.259.35108,3.41939,3.41939,0,0,1-.30664.32562c-.32495.3241-.62451.67438-.92309,1.024-.19971.234-.39575.46618-.61157.68152a4.34863,4.34863,0,0,0-.47657.71515,4.90365,4.90365,0,0,1-.54321.61554,11.71551,11.71551,0,0,0-.85083,1.02044,5.39177,5.39177,0,0,1-.39087.50275c-.13867.14416-.29346.2727-.42773.42395-.07178.08069-.08741.212-.15284.298l.04932.0412c-.10742.17371-.20752.3573-.33276.52967a.86713.86713,0,0,1,.01245-.13007c.02637-.10272-.064-.19977-.09424-.30042a.61882.61882,0,0,1,.02051-.28869,1.47066,1.47066,0,0,0-.00342-.46723.68851.68851,0,0,1-.02393-.22369,1.92521,1.92521,0,0,0,.05518-.211c.00293-.0379-.06934-.0769-.07422-.11481.00879-.0982-.07666-.196-.05762-.29187a1.73854,1.73854,0,0,0,.02539-.83844,1.87966,1.87966,0,0,1-.15478-.59075c.00586-.09046.03223-.17768.04346-.26752.01757-.14716-.00586-.29865.02-.44428a1.44242,1.44242,0,0,0,.04785-.25164C25.64212,19.48443,25.57376,19.35925,25.57425,19.22259ZM37.295,38.52416c-.06.0915-.09375.19873-.14648.29639a.89062.89062,0,0,1-.30762.329,7.28931,7.28931,0,0,0-.59424.42383L35.669,39.999a.46517.46517,0,0,0-.15137.15393c-.04639.09222-.0376.22369-.12353.28039a.37751.37751,0,0,1-.18067.02088c-.31006.0025-.53369.27527-.81982.38025a1.25395,1.25395,0,0,0-.33838.14618.74736.74736,0,0,1-.35986.15441.42555.42555,0,0,0-.17334.02771,1.06458,1.06458,0,0,0-.103.07972.50414.50414,0,0,1-.13916.05658,2.21387,2.21387,0,0,0-.6499.32385,1.75552,1.75552,0,0,1-.69483.23663c-.23828.06165-.41553.26618-.65332.33734-.20019.06006-.42725.01966-.60449.12958-.12793.07794-.21143.23193-.355.2746a1.30536,1.30536,0,0,0-.28369.07446c-.05713.03516-.10108.09778-.16846.10614-.07471.0094-.13867-.05279-.21045-.07623a.427.427,0,0,0-.26172.02948,5.16678,5.16678,0,0,1-1.18457.47961l-.001-.0047a1.28811,1.28811,0,0,0-.41016.04138c-.123.00257-.229-.05084-.352-.01672a1.305,1.305,0,0,1-.249.06818,1.70174,1.70174,0,0,1-.44531-.113,2.08971,2.08971,0,0,0-.502.04022,2.0736,2.0736,0,0,0-.5293.03162c-.105.03259-.1997.094-.30273.13611a.8491.8491,0,0,1-.44678.057,3.9556,3.9556,0,0,0-.728-.06665l-.71679-.0412a.46323.46323,0,0,0-.21485.022c-.09472.03918-.17334.15265-.27441.13214a.378.378,0,0,1-.15186-.1001c-.23925-.19714-.58593-.1319-.87256-.235a1.25048,1.25048,0,0,0-.35351-.10528.79208.79208,0,0,1-.375-.11.43073.43073,0,0,0-.15088-.09076,1.06659,1.06659,0,0,0-.12988-.00543.49745.49745,0,0,1-.14258-.04639,2.21161,2.21161,0,0,0-.70557-.17138,1.93408,1.93408,0,0,1-.686-.26142c-.22168-.10675-.48877-.06481-.71631-.16387-.19141-.08356-.33936-.26117-.54541-.29163-.147-.0257-.312.04394-.45069-.01331a1.32206,1.32206,0,0,0-.26464-.126c-.06641-.00971-.14014.00976-.19678-.02716-.06348-.04108-.07275-.13013-.11231-.19422a.43032.43032,0,0,0-.21923-.14636,5.36221,5.36221,0,0,1-1.21656-.393l.0022-.00415c-.09082-.12567-.25586-.1632-.34082-.23156-.09619-.07709-.14307-.18622-.25928-.239a1.30852,1.30852,0,0,1-.23486-.10791c-.12549-.09137-.17041-.25116-.26611-.37567a2.0891,2.0891,0,0,0-.41211-.2893,2.07075,2.07075,0,0,0-.42725-.31342c-.10156-.042-.21435-.05554-.3208-.08905a.69333.69333,0,0,1-.37012-.2536,3.97241,3.97241,0,0,0-.5205-.51282l-.52784-.48608a.63165.63165,0,0,0-.1748-.1247c-.09424-.0346-.21729-.00842-.28369-.08722a.36647.36647,0,0,1-.05371-.17236c-.06006-.30176-.37207-.47107-.52881-.7309a1.24063,1.24063,0,0,0-.208-.30365.83092.83092,0,0,1-.19434-.34387.4241.4241,0,0,0-.06005-.16424,1.09346,1.09346,0,0,0-.09864-.08612.51061.51061,0,0,1-.082-.12543,2.21376,2.21376,0,0,0-.44336-.5755c-.21631-.188-.21387-.41541-.33691-.65491-.10645-.22131-.34326-.35766-.459-.57672a3.40434,3.40434,0,0,0-.23486-.57153c-.08984-.11725-.24072-.18048-.31641-.31049a1.30627,1.30627,0,0,0-.1289-.26349c-.0459-.04913-.11621-.081-.1377-.14514-.02392-.07135.02539-.145.03467-.219a.42632.42632,0,0,0-.08008-.25025,5.95835,5.95835,0,0,1-.668-1.08728l.0044-.00171c.00781-.15362-.09815-.28692-.12207-.39306-.02637-.11982.00537-.23279-.05274-.34674a.72324.72324,0,0,1-.103-.23578,3.01528,3.01528,0,0,1,.05468-.46411,2.06794,2.06794,0,0,0-.14062-.48352,2.06466,2.06466,0,0,0-.13721-.51185c-.05176-.09716-.13769-.1781-.18457-.27471a.87759.87759,0,0,1-.103-.43586,3.89529,3.89529,0,0,0-.08105-.72534c-.02783-.2373-.084-.47162-.08936-.71124a.44547.44547,0,0,0-.043-.20917c-.05029-.08691-.16259-.14606-.16357-.249a.36662.36662,0,0,1,.06738-.16663c.14551-.26929.01123-.59961.05469-.89941a2.67978,2.67978,0,0,0,.04736-.366.8474.8474,0,0,1,.07129-.38861.41747.41747,0,0,0,.0586-.16449,1.17941,1.17941,0,0,0-.021-.12933.51448.51448,0,0,1,.0166-.149,2.20991,2.20991,0,0,0,.02637-.72626c-.042-.283.10742-.45526.166-.718.06054-.23809-.0337-.49462.01855-.73693A3.086,3.086,0,0,0,7.148,21.248a3.52862,3.52862,0,0,1-.0415-.44073,1.30167,1.30167,0,0,0,.07129-.28449c-.00342-.06714-.03662-.13684-.01172-.19965.02783-.06988.11279-.09472.168-.14538a.4249.4249,0,0,0,.10009-.243A5.61213,5.61213,0,0,1,7.61917,18.672l.0044.00159c.10547-.11255.11035-.28247.16064-.379.05713-.10882.1543-.17486.1836-.29925a.79187.79187,0,0,1,.06787-.24884c.0791-.13453.24267-.20087.34082-.32019a2.09425,2.09425,0,0,0,.20459-.46,2.10056,2.10056,0,0,0,.2251-.47979c.02441-.10675.00732-.22571.03271-.33033a.88.88,0,0,1,.20117-.4002,3.94124,3.94124,0,0,0,.40381-.60816,6.08094,6.08094,0,0,1,.3916-.6004.45637.45637,0,0,0,.10059-.18848c.0166-.09949-.03174-.217.0332-.297a.364.364,0,0,1,.1582-.08472c.28272-.11377.39112-.454.61524-.6568a1.68789,1.68789,0,0,0,.28174-.24158.8472.8472,0,0,1,.30078-.25488.4156.4156,0,0,0,.14941-.08966,1.05354,1.05354,0,0,0,.06592-.1134.50711.50711,0,0,1,.10742-.10444,2.78149,2.78149,0,0,0,.48828-.53735A2.42083,2.42083,0,0,1,12.729,11.539c.19629-.14685.28662-.4068.47949-.56238.15625-.13855.40234-.1557.53564-.3136.09864-.1109.1333-.27283.24659-.37207.07373-.06482.17578-.09723.23339-.17725.04-.05475.0586-.13067.11719-.16388.06543-.037.146-.00219.21973-.007a.44461.44461,0,0,0,.23047-.1247c.34277-.23877.58984-.63428.95947-.84167l-.106-.18329V8.79315l.1084.1875c.15137-.02167.26221-.152.36182-.19587.10986-.05365.23584-.02441.34082-.09576a1.27984,1.27984,0,0,1,.21728-.13708c.14551-.05579.312-.00458.4624-.03644a2.09029,2.09029,0,0,0,.44678-.23285,4.74238,4.74238,0,0,0,.48291-.21649c.08936-.06147.15967-.147.24365-.217a.88046.88046,0,0,1,.40772-.18775,3.92246,3.92246,0,0,0,.69385-.22357c.22509-.0802.4624-.12134.69287-.18408a.453.453,0,0,0,.19678-.08423c.07617-.0675.11474-.18982.21484-.21161a.35476.35476,0,0,1,.1748.03333c.28955.093.58545-.12287.89551-.09546a1.27377,1.27377,0,0,0,.37061-.00464.84118.84118,0,0,1,.39355-.00842.4076.4076,0,0,0,.17139.02441,1.12528,1.12528,0,0,0,.123-.04657A.49953.49953,0,0,1,22.793,6.847a4.46755,4.46755,0,0,0,.7207-.08044,2.40859,2.40859,0,0,1,.73682.03534.889.889,0,0,0,.25513-.03455,1.80428,1.80428,0,0,0-.05493.223.64783.64783,0,0,0,.02539.22986,1.432,1.432,0,0,1-.00489.29993c0,.06652-.12841.13458-.123.19989h.08789a1.63678,1.63678,0,0,0-.021.46478,1.67166,1.67166,0,0,0-.06982.39215,1.66967,1.66967,0,0,1,.02978.29034,3.81152,3.81152,0,0,1-.168.49048,2.736,2.736,0,0,0,.01563.57538,2.72637,2.72637,0,0,0,.00488.60529c.02735.12115.0835.23144.12061.34942a1.12788,1.12788,0,0,1,.03613.50733,5.07434,5.07434,0,0,0-.02881.82647q-.00293.40686-.00537.81379a.57465.57465,0,0,0,.03272.24054c.04638.103.15527.17865.15136.29388a.43545.43545,0,0,1-.07617.18231c-.1582.29492-.0415.67633-.1001,1.014a1.61146,1.61146,0,0,0-.05127.41583,1.07468,1.07468,0,0,1-.05078.444.522.522,0,0,0-.05029.18994c.00146.05.021.09711.02734.14661a.62724.62724,0,0,1-.00927.17072,2.87653,2.87653,0,0,0,.01025.82916,3.11458,3.11458,0,0,1-.07227.83825c-.02343.28077.10791.55457.09278.83606a3.1392,3.1392,0,0,0-.08643.702,4.68665,4.68665,0,0,1,.15088.4812,1.68855,1.68855,0,0,0,.00147.33344c.0205.07312.06982.14019.06152.21612-.00977.08447-.08594.1366-.12647.2088a.55038.55038,0,0,0-.03662.2981c.02686.48.23682.95434.21729,1.43078-.14258.14039-.10523.70594-.11792.89264a10.40693,10.40693,0,0,0-.01465,1.17725,2.38879,2.38879,0,0,0,.16968.896,2.70467,2.70467,0,0,0,.65088.79626c.1914.18073.40527.35272.58056.54871.13648.15271.15088.351.28052.47589.134.12927.38525.05414.5105.211.07031.15619.23681.24786.3125.34448.08594.10913.11523.23627.227.32745a1.66457,1.66457,0,0,1,.2251.18518c.11474.13349.13232.31909.22656.46631a2.75044,2.75044,0,0,0,.4165.39734,2.72513,2.72513,0,0,0,.43018.42609c.10449.06683.22217.10528.33154.16308a1.12812,1.12812,0,0,1,.3833.33435,5.05652,5.05652,0,0,0,.56153.607q.28491.29067.56982.58124a.57767.57767,0,0,0,.19238.1477c.10547.04041.23633.0174.31446.10187a.43279.43279,0,0,1,.0747.1828c.09522.321.44727.50922.64307.79034a1.62428,1.62428,0,0,0,.25684.33106,1.08382,1.08382,0,0,1,.27685.35095.51776.51776,0,0,0,.09815.1701,1.40543,1.40543,0,0,0,.12255.08472.65057.65057,0,0,1,.11377.12769,2.89412,2.89412,0,0,0,.59131.58148,3.12833,3.12833,0,0,1,.53955.64569c.18116.21576.46729.3175.65479.52771.15869.17731.23926.42328.4331.5592a4.64315,4.64315,0,0,1,.44629.23529c.0835.07367.14014.18012.23584.23523.06592.03778.14844.05042.1958.11036.05274.06665.03565.15734.05762.23712a.55025.55025,0,0,0,.18408.23736c.35742.32154.84009.51026,1.16553.859l-.05518.05481c.042.05017.19434-.00934.2417.03778a1.47254,1.47254,0,0,1,.21436.20935.65462.65462,0,0,0,.144.18115,1.84212,1.84212,0,0,0,.2273.13837A1.09422,1.09422,0,0,0,37.295,38.52416ZM43.50931,24.998a1.28907,1.28907,0,0,0-.042.41077c-.02246.1217-.09619.217-.0874.34375a1.30374,1.30374,0,0,1,.0166.2572c-.021.15423-.145.27313-.189.41962a2.83906,2.83906,0,0,0-.01611.50384,2.08774,2.08774,0,0,0-.07568.52429c.01123.10846.05224.21216.07275.3205a.87937.87937,0,0,1-.03125.44836c-.08984.24884-.08252.458-.16113.7107l-.18409.69329a.45757.45757,0,0,0-.02148.21387c.02246.1001.11035.1947.08154.29315a.34951.34951,0,0,1-.11328.13556c-.20215.21131-.22851.55457-.38086.81806a1.25372,1.25372,0,0,0-.17383.32641.83231.83231,0,0,1-.18115.34778.40037.40037,0,0,0-.10351.13751,1.15006,1.15006,0,0,0-.01856.13092.34022.34022,0,0,1-.06494.13483,2.21,2.21,0,0,0-.30664.65772,2.40081,2.40081,0,0,1-.38184.62805,7.16043,7.16043,0,0,1-.27636.68176c-.11914.17212-.32373.28455-.39307.48016a3.69426,3.69426,0,0,1-.0918.44184,1.71152,1.71152,0,0,0-.15332.25018c-.022.06268-.0166.13824-.06347.187-.05274.05438-.14307.04743-.21387.07465a.43264.43264,0,0,0-.18652.18762c-.23389.34613-.30176.82611-.59131,1.13623l-.00342-.00293c-.1416.06616-.20947.22-.293.29071-.09424.07977-.21143.106-.28516.20966a1.28249,1.28249,0,0,1-.15039.20959.4147.4147,0,0,1-.10693.05829.23861.23861,0,0,1-.0625-.06927c-.01123-.0243-.0166-.05079-.02832-.0752a.36585.36585,0,0,0-.102-.11359,2.77617,2.77617,0,0,1-.39917-.43469.49629.49629,0,0,0-.1023-.17541l.03663-.03632c-.063-.07587-.19239-.08508-.2461-.16663a1.73934,1.73934,0,0,0-.57275-.61285,1.87233,1.87233,0,0,1-.52588-.3103c-.06006-.06812-.10254-.14868-.1582-.22022-.09082-.11706-.21436-.20788-.29834-.32965a1.48853,1.48853,0,0,0-.14356-.21222c-.09619-.09906-.23291-.13971-.32861-.23712a1.55859,1.55859,0,0,1-.19483-.32452,2.52372,2.52372,0,0,0-.57373-.66175,1.665,1.665,0,0,1-.22363-.19653,2.34688,2.34688,0,0,1-.17529-.269,1.9035,1.9035,0,0,0-.58643-.54144,1.61562,1.61562,0,0,1-.19629-.13569,1.356,1.356,0,0,1-.12793-.13281,8.25284,8.25284,0,0,1-.69677-.79364,1.75525,1.75525,0,0,0-.312-.27569,3.10686,3.10686,0,0,1-.28125-.31995c-.27832-.3382-.585-.65277-.89062-.96674-.20459-.21008-.4082-.41619-.59277-.6408a3.96764,3.96764,0,0,0-.64063-.51136,4.44505,4.44505,0,0,1-.53662-.56982,10.69051,10.69051,0,0,0-.895-.89618,4.93624,4.93624,0,0,1-.44434-.41339,4.84336,4.84336,0,0,0-.65112-.60187c-.12695-.10632-.147-.19629-.29858-.26758-.07959-.03741-.20166.02576-.26563-.06286a.77917.77917,0,0,1-.03906-.10041c-.02539-.0512-.08154-.07415-.10108-.13073-.01074-.03272-.00927-.07648-.03125-.09955-.03515-.03711-.11621-.02173-.15136-.05792-.03272-.03406-.021-.10645-.03125-.15992a.37182.37182,0,0,0-.18506-.2705.24136.24136,0,0,1-.0918-.06348.17349.17349,0,0,1-.01416-.05182,2.31528,2.31528,0,0,0,.406-.27759.71814.71814,0,0,0,.1355-.20117,1.609,1.609,0,0,1,.20581-.23791c.04467-.05341.18921-.02546.22949-.08143l-.06763-.05651c.15405-.09027.23609-.27124.3291-.36023.10547-.10047.23316-.14527.31812-.27033a1.79257,1.79257,0,0,1,.17309-.25232c.12793-.13269.31592-.17242.459-.28644a3.0295,3.0295,0,0,0,.376-.47247,2.95865,2.95865,0,0,0,.40429-.48968c.061-.11487.092-.23981.14356-.35828a1.23742,1.23742,0,0,1,.31372-.43115,5.57707,5.57707,0,0,0,.57934-.64557q.27686-.32538.553-.65076a.63507.63507,0,0,0,.13721-.21429c.03369-.11261.00122-.24341.08227-.33356a.46241.46241,0,0,1,.18067-.09772c.32031-.13513.488-.517.76025-.75061a1.78264,1.78264,0,0,0,.31983-.30145,1.18568,1.18568,0,0,1,.33789-.324.57483.57483,0,0,0,.167-.12054c.03223-.04108.04932-.09137.07739-.13538a.71976.71976,0,0,1,.12256-.13134,3.1819,3.1819,0,0,0,.551-.67279,3.42283,3.42283,0,0,1,.6206-.62745c.207-.21051.29126-.515.49219-.73175.16943-.1828.41479-.29412.53955-.50848a5.04029,5.04029,0,0,1,.20874-.48376,1.87052,1.87052,0,0,0,.22339-.26917c.03393-.07159.041-.15747.09912-.213.064-.06189.15747-.05475.2373-.08685a.60309.60309,0,0,0,.22925-.21595c.30249-.40319.46167-.91931.79444-1.29266l.05957.05c.04785-.04907-.0232-.19788.02172-.25147a1.63059,1.63059,0,0,1,.19825-.2442.71431.71431,0,0,0,.1748-.16821,2.15574,2.15574,0,0,0,.17236-.36517c.00831.00543.01929.00622.02735.01245.07812.06042.12842.1538.21875.1958.06152.02881.14014.0332.18359.08435.04981.056.02881.14178.04151.2185a.43579.43579,0,0,0,.14892.21924c.30078.291.73877.46076,1.0127.784l-.00342.003c.0542.13947.188.23743.24219.333.06006.108.06445.22876.15185.32068a1.245,1.245,0,0,1,.17676.18725c.083.1319.06348.30335.123.44422a2.27931,2.27931,0,0,0,.31347.395,2.06908,2.06908,0,0,0,.27881.45063c.07764.07611.17578.12915.26123.19891a.88419.88419,0,0,1,.26416.36383c.09326.24719.227.406.33106.64923l.30615.64875a.46073.46073,0,0,0,.12207.1773c.08154.06232.21.078.251.17212a.348.348,0,0,1,.001.17639c-.023.29346.17578.57416.231.87287a1.2711,1.2711,0,0,0,.07764.36139.83588.83588,0,0,1,.08642.38238.39746.39746,0,0,0,.00977.17163,1.05122,1.05122,0,0,0,.07031.11212.37194.37194,0,0,1,.03125.14661,2.21281,2.21281,0,0,0,.18945.7005,2.37817,2.37817,0,0,1,.1128.72607,7.30407,7.30407,0,0,1,.22461.7002c.01855.20868-.06543.426.00683.62067.05176.13989.17871.25042.21338.3974a1.32409,1.32409,0,0,0,.04639.28973c.02588.06195.07617.11664.07178.18439-.00586.0755-.07959.128-.1167.19458a.42935.42935,0,0,0-.02393.26367c.04785.41589.2793.82758.28613,1.25122Z"/></svg>