<svg class="c-feature-tile--icon" width="48" height="48" viewBox="0 0 32 32" fill="none" xmlns="http://www.w3.org/2000/svg"><path d="M17.7441 19.6882C17.7434 19.3141 17.6463 18.9464 17.462 18.6207C17.2778 18.295 17.0127 18.0224 16.6923 17.829C16.372 17.6357 16.0072 17.5283 15.6332 17.5171C15.2592 17.5059 14.8886 17.5913 14.5572 17.7652C14.2259 17.939 13.945 18.1953 13.7416 18.5094C13.5382 18.8235 13.4193 19.1847 13.3962 19.5582C13.3732 19.9316 13.4468 20.3047 13.6101 20.6414C13.7733 20.9781 14.0206 21.267 14.3281 21.4802L13.9521 23.3762C13.8981 23.6162 13.8988 23.8652 13.9541 24.1049C14.0093 24.3445 14.1178 24.5687 14.2715 24.7607C14.4251 24.9528 14.62 25.1078 14.8417 25.2144C15.0633 25.3209 15.3061 25.3762 15.5521 25.3762C15.798 25.3762 16.0408 25.3209 16.2625 25.2144C16.4842 25.1078 16.6791 24.9528 16.8327 24.7607C16.9864 24.5687 17.0948 24.3445 17.1501 24.1049C17.2054 23.8652 17.2061 23.6162 17.1521 23.3762L16.8001 21.4802C17.0909 21.2805 17.3288 21.0129 17.4933 20.7008C17.6578 20.3886 17.7438 20.0411 17.7441 19.6882Z" fill="#fff"></path><path d="M23.3441 11.5121V8.3841C23.3775 7.34142 23.201 6.30266 22.8251 5.32954C22.4492 4.35642 21.8815 3.46879 21.1557 2.7194C20.43 1.97001 19.561 1.37415 18.6004 0.967213C17.6399 0.560282 16.6073 0.350586 15.5641 0.350586C14.5209 0.350586 13.4883 0.560282 12.5277 0.967213C11.5672 1.37415 10.6982 1.97001 9.97246 2.7194C9.24671 3.46879 8.67901 4.35642 8.30308 5.32954C7.92715 6.30266 7.75066 7.34142 7.7841 8.3841V11.5121C7.0132 11.6671 6.31963 12.084 5.82098 12.692C5.32233 13.3 5.04927 14.0618 5.0481 14.8481V28.0001C5.0481 28.9018 5.40631 29.7666 6.04393 30.4043C6.68156 31.0419 7.54636 31.4001 8.4481 31.4001H22.6881C23.5892 31.398 24.4528 31.0391 25.0899 30.4019C25.7271 29.7648 26.086 28.9012 26.0881 28.0001V14.8481C26.085 14.061 25.8103 13.2992 25.3103 12.6913C24.8103 12.0835 24.1158 11.6669 23.3441 11.5121V11.5121ZM15.5681 2.6001C17.1007 2.60222 18.5698 3.21254 19.6528 4.29702C20.7358 5.3815 21.3441 6.85147 21.3441 8.3841V11.4481H19.9521V8.3681C19.9521 7.20114 19.4885 6.08199 18.6634 5.25683C17.8382 4.43167 16.719 3.9681 15.5521 3.9681C14.3851 3.9681 13.266 4.43167 12.4408 5.25683C11.6157 6.08199 11.1521 7.20114 11.1521 8.3681V11.4481H9.7841V8.3841C9.7841 6.85008 10.3935 5.3789 11.4782 4.29419C12.5629 3.20948 14.0341 2.6001 15.5681 2.6001V2.6001ZM17.9681 11.4481H13.1681V8.3681C13.1681 7.73158 13.421 7.12113 13.871 6.67104C14.3211 6.22095 14.9316 5.9681 15.5681 5.9681C16.2046 5.9681 16.8151 6.22095 17.2652 6.67104C17.7152 7.12113 17.9681 7.73158 17.9681 8.3681V11.4481ZM24.0881 28.0001C24.086 28.3708 23.9378 28.7256 23.6757 28.9877C23.4136 29.2498 23.0588 29.398 22.6881 29.4001H8.4481C8.07679 29.4001 7.7207 29.2526 7.45815 28.99C7.1956 28.7275 7.0481 28.3714 7.0481 28.0001V14.8481C7.0481 14.4768 7.1956 14.1207 7.45815 13.8581C7.7207 13.5956 8.07679 13.4481 8.4481 13.4481H22.6881C23.0594 13.4481 23.4155 13.5956 23.678 13.8581C23.9406 14.1207 24.0881 14.4768 24.0881 14.8481V28.0001Z" fill="#fff"></path></svg>