<svg xmlns="http://www.w3.org/2000/svg" width="122" height="25" viewBox="0 0 122 25" fill="none">
<path d="M9.84184 0.745831C7.59112 1.19162 5.52525 2.25718 3.86167 3.83377C2.77437 4.8667 2.10024 5.75829 1.45874 6.99781C0.469292 8.91147 0.0996094 10.4554 0.0996094 12.6409C0.0996094 14.8264 0.469292 16.3704 1.45874 18.284C2.10024 19.5235 2.77437 20.4151 3.86167 21.4481C6.13414 23.6118 8.91763 24.71 12.1143 24.71C14.2454 24.71 15.8437 24.3403 17.6052 23.4596C18.4859 23.0138 19.671 22.2527 19.671 22.1222C19.671 22.0787 19.0078 21.3828 18.2032 20.5782L16.7353 19.1104L16.0829 19.4692C14.8652 20.1433 13.9845 20.3825 12.5383 20.4369C11.4402 20.4804 11.0814 20.4586 10.3094 20.2629C6.7539 19.3713 4.34009 16.2942 4.34009 12.6409C4.34009 8.26996 7.79771 4.81234 12.1687 4.81234C17.9205 4.81234 21.6717 10.7055 19.2905 15.9898L18.986 16.6748L20.443 18.1427C21.2368 18.9473 21.9435 19.5996 22.0087 19.5996C22.2479 19.5996 23.2265 17.773 23.6506 16.5226C24.0637 15.3157 24.2377 14.1414 24.2377 12.6409C24.2377 10.4554 23.868 8.91147 22.8786 6.99781C22.2371 5.75829 21.563 4.8667 20.4756 3.83377C18.7903 2.22456 16.7245 1.16988 14.4194 0.734957C13.3538 0.52837 10.8748 0.539242 9.84184 0.745831Z" fill="black"/>
<path d="M53.0513 11.9341V19.9258H54.5191H55.987V11.9341V3.94244H54.5191H53.0513V11.9341Z" fill="black"/>
<path d="M98.4354 4.10551C94.3798 4.98622 91.4875 8.95487 91.9768 12.9344C92.2269 14.9133 92.9336 16.3377 94.358 17.7511C95.7171 19.0885 96.9023 19.73 98.7181 20.0997C100.708 20.502 103.187 19.9801 104.84 18.8167L105.144 18.5992L105.742 19.132C106.84 20.078 106.71 20.0671 107.384 19.3277C108.46 18.1426 108.449 18.2513 107.623 17.5011L106.905 16.8596L107.373 16.0332C109.221 12.7931 108.689 8.98749 106.003 6.33448C104.818 5.14932 103.502 4.44257 101.893 4.10551C100.991 3.90979 99.3161 3.90979 98.4354 4.10551ZM101.643 6.86726C103.818 7.54138 105.459 9.80297 105.459 12.1189C105.459 12.7822 105.198 13.826 104.883 14.4458L104.644 14.9024L103.567 13.9673L102.491 13.0323L102.013 13.565C101.741 13.8695 101.382 14.2827 101.208 14.511L100.893 14.9024L101.937 15.8049L102.969 16.7073L102.48 16.9574C101.817 17.2945 100.86 17.5337 100.186 17.5337C97.3916 17.5337 94.9125 14.9242 94.9125 11.9993C94.9125 11.3578 95.1626 10.3575 95.5106 9.65075C95.8367 8.98749 96.7175 7.96543 97.3807 7.50876C98.5767 6.69329 100.262 6.44321 101.643 6.86726Z" fill="black"/>
<path d="M28.0437 5.51903V6.87816H30.5445H33.0453V13.402V19.9258H34.5675H36.0897V13.402V6.87816H38.5905H41.0913V5.51903V4.1599H34.5675H28.0437V5.51903Z" fill="black"/>
<path d="M110.678 12.0428V19.9258H116.169H121.66V18.621V17.3163H117.637H113.614V10.7381V4.1599H112.146H110.678V12.0428Z" fill="black"/>
<path d="M84.8005 6.44314V8.07409H83.9306H83.0608V9.27013V10.4662H83.9306H84.7896L84.8222 14.1847L84.8548 17.9142L85.1484 18.4578C85.779 19.6539 86.725 20.1975 88.1711 20.1975C89.0083 20.1975 89.1714 20.1649 89.8347 19.8387C90.2479 19.6321 90.6067 19.4038 90.6393 19.3168C90.6719 19.2298 90.5849 18.9036 90.4544 18.5883C90.3131 18.2839 90.1391 17.8707 90.063 17.675L89.9217 17.3379L89.5085 17.5445C89.0301 17.7946 88.5952 17.8054 88.182 17.5989C87.6166 17.2944 87.584 17.0987 87.5405 13.6411L87.5079 10.4662H88.867H90.237V9.27013V8.07409H88.8779H87.5187V6.44314V4.81219H86.1596H84.8005V6.44314Z" fill="black"/>
<path d="M10.5485 7.95473C9.24373 8.44401 8.29778 9.30298 7.67801 10.5643C7.34095 11.2601 7.33008 11.3362 7.33008 12.641C7.33008 13.9675 7.34095 14.0219 7.69976 14.7612C8.18905 15.7616 9.04801 16.6205 10.0483 17.1098C10.7877 17.4686 10.8421 17.4795 12.1686 17.4795C13.4951 17.4795 13.5494 17.4686 14.2888 17.1098C15.2891 16.6205 16.1481 15.7616 16.6374 14.7612C16.9962 14.0219 17.0071 13.9675 17.0071 12.641C17.0071 11.3145 16.9962 11.2601 16.6374 10.5208C16.1481 9.52044 15.2891 8.66147 14.2888 8.18306C13.5821 7.83512 13.4298 7.80251 12.3317 7.78076C11.3531 7.74814 11.0269 7.78076 10.5485 7.95473Z" fill="black"/>
<path d="M45.386 7.82399C44.7119 7.87835 43.7007 8.0632 43.1027 8.25891C42.6352 8.40026 41.3413 8.92216 41.2108 9.02002C41.1564 9.05264 42.0806 11.1185 42.1459 11.1185C42.1676 11.1185 42.3633 11.0315 42.5917 10.9119C44.3314 10.0312 46.4625 10.0095 47.441 10.8793C47.7564 11.162 48.1587 12.0971 48.1587 12.5755C48.1587 12.9561 48.1369 12.9887 47.9195 12.9234C46.3646 12.4885 44.5706 12.3689 43.4833 12.6299C42.1459 12.9561 41.0042 13.8259 40.4714 14.9132C40.2105 15.4351 40.167 15.6526 40.167 16.4463C40.167 17.2183 40.2105 17.4684 40.4497 17.9685C41.0151 19.1428 42.0915 19.9039 43.5485 20.154C44.9837 20.4041 46.3972 20.0888 47.5498 19.2624L48.1587 18.8275V19.3711V19.9257H49.5722H50.9856V15.9461C50.9856 11.7165 50.9422 11.2164 50.4202 10.2052C50.1158 9.60716 49.1699 8.69383 48.5283 8.36764C47.7129 7.96534 46.419 7.737 45.386 7.82399ZM46.6908 14.5979C47.1149 14.6631 47.615 14.761 47.8107 14.8262C48.1587 14.9349 48.1587 14.9458 48.1587 15.6417C48.1587 16.4463 48.0064 16.816 47.4628 17.2835C46.245 18.3599 43.9399 18.3165 43.1897 17.2074C42.7548 16.5768 42.8852 15.6526 43.4833 15.1633C44.2444 14.5435 45.1468 14.3804 46.6908 14.5979Z" fill="black"/>
<path d="M62.8915 7.85678C61.5541 8.009 60.3472 8.58527 59.4121 9.53123C58.5858 10.3576 58.1074 11.1839 57.8355 12.2712C56.9113 15.8919 58.9337 19.3061 62.4783 20.0998C64.3594 20.513 66.9145 19.9258 68.2845 18.7515L68.7303 18.371L67.8822 17.5229L67.045 16.6748L66.7623 16.8705C66.3165 17.1858 65.4358 17.599 64.8813 17.7512C64.218 17.9252 62.8915 17.8491 62.3913 17.599C61.4998 17.175 60.7278 16.2073 60.4886 15.2178L60.4233 14.9242H65.0009H69.5784L69.5349 14.5111C69.5023 14.2936 69.4479 13.7717 69.4153 13.3694C69.2413 11.3035 67.9909 9.19416 66.4687 8.42218C65.5119 7.93289 64.131 7.71543 62.8915 7.85678ZM64.6964 10.3032C65.6206 10.6294 66.2621 11.3579 66.5992 12.4778L66.7406 12.9671H63.5982C61.8586 12.9671 60.4451 12.9454 60.4451 12.9236C60.4451 12.7279 60.8256 11.8907 61.0866 11.521C61.8586 10.3902 63.4352 9.85742 64.6964 10.3032Z" fill="black"/>
<path d="M76.7327 7.8676C75.9389 7.98721 75.0691 8.38951 74.4276 8.9549L73.9274 9.4007V8.73744V8.07419H72.4596H70.9917V14V19.9258H72.4596H73.9165L73.9492 16.0441C73.9818 12.2494 73.9927 12.1407 74.221 11.6949C74.6777 10.8577 75.6345 10.3249 76.7 10.3249C77.6786 10.314 78.3962 10.749 78.8529 11.6079C79.0812 12.032 79.0921 12.1842 79.1247 15.9789L79.1573 19.9258H80.56H81.9734V15.7614C81.9734 12.6517 81.93 11.4666 81.8212 11.0643C81.2232 8.78094 79.1791 7.50879 76.7327 7.8676Z" fill="black"/>
</svg>