<svg width="54" height="54" viewBox="0 0 54 54" fill="none" xmlns="http://www.w3.org/2000/svg">
<path d="M27 5.4C15.0706 5.4 5.4 15.0706 5.4 27C5.4 38.9294 15.0706 48.6 27 48.6C38.9294 48.6 48.6 38.9294 48.6 27C48.6 15.0706 38.9294 5.4 27 5.4ZM0 27C0 12.0883 12.0883 0 27 0C41.9117 0 54 12.0883 54 27C54 41.9117 41.9117 54 27 54C12.0883 54 0 41.9117 0 27ZM24.3 20.0184L18.1092 26.2092C17.0548 27.2636 15.3452 27.2636 14.2908 26.2092C13.2364 25.1548 13.2364 23.4452 14.2908 22.3908L25.0908 11.5908C26.1452 10.5364 27.8548 10.5364 28.9092 11.5908L39.7092 22.3908C40.7636 23.4452 40.7636 25.1548 39.7092 26.2092C38.6548 27.2636 36.9452 27.2636 35.8908 26.2092L29.7 20.0184V40.5C29.7 41.9912 28.4912 43.2 27 43.2C25.5088 43.2 24.3 41.9912 24.3 40.5V20.0184Z" fill="white"/>
</svg>
