<svg width="585" height="600" viewBox="0 0 585 600" fill="none" xmlns="http://www.w3.org/2000/svg">
<g clip-path="url(#clip0)">
<path d="M207.845 104.24L212.631 104.547L216.071 106.265L220.238 106.636L222.937 108.169L222.325 110.935L218.4 112.718L215.024 113.823L209.996 113.573L206.192 113.823H203.244L198.151 112.468L194.226 111.427L191.705 109.581L193.792 106.693L200.238 105.894L202.446 106.636L205.145 105.017L207.845 104.24Z" fill="white"/>
<path d="M267.382 178.492L277.517 186.128L276.263 189.508L273.065 191.726L269.355 192.966L264.853 192.267L261.691 197.665L259.176 192.774L258.856 188.531L267.382 178.492Z" fill="white"/>
<path d="M312.944 407.865L315.359 460.606L314.148 506.637L315.359 530.63C315.359 530.63 310.772 535.742 301.605 531.414L300.43 512.013L216.1 496.021L217.795 485.654L300.558 502.174L299.889 444.257L219.889 432.114L226.199 420.963L246.335 426.867L248.251 427.936L299.518 436.435L300.558 407.865H312.944Z" fill="white"/>
<path d="M235.637 346.367L287.645 354.374L281.819 362.98L239.205 355.822L231.997 353.889L235.637 346.367Z" fill="white"/>
<path d="M305.394 316.387L311.498 326.918L303.578 335.966L298.991 334.019L296.976 325.998L298.991 320.23L305.394 316.387Z" fill="white"/>
<path d="M287.374 285.457L305.394 286.612L306.491 294.911L286.498 292.951L287.374 285.457Z" fill="white"/>
<path d="M237.781 281.777L267.382 284.373L282.253 286.726L293.735 272.758L297.474 276.18L275.138 304.208L268.051 311.01L265.836 307.146L278.5 292.957L242.809 289.699L237.781 281.777Z" fill="white"/>
<path d="M248.243 265.008L246.719 284.166L238.222 347.131L221.256 471.85L217.033 507.963L215.452 517.475L212.759 519.585L204.454 517.296L203.835 512.633L208.236 476.256L213.692 437.233L220.815 388.97L225.131 358.14L226.363 337.178L239.205 289.699L245.067 265.008H248.243Z" fill="white"/>
<path d="M280.807 260.109L284.789 265.008L286.755 268.558L286.171 273.221L285.416 277.114L281.256 274.84L277.752 268.116V263.211L280.807 260.109Z" fill="white"/>
<path d="M286.206 139.156L292.125 134.992L299.511 132.076L302.089 140.775L300.017 144.019L287.666 143.912L286.206 139.156Z" fill="white"/>
<path d="M264.547 213.564H304.96L303.421 224.823L280.074 221.35L264.653 222.299V215.069L264.547 213.564Z" fill="white"/>
<path d="M297.937 130.357L298.521 120.118L300.665 116.475H303.087L306.156 127.619V149.622L307.973 186.128L309.347 232.323L310.202 262.683L311.406 297.356L312.474 309.056L300.701 297.449L302.795 294.91L300.259 192.267L299.048 160.56L297.937 130.357Z" fill="white"/>
<path d="M269.248 147.562L270.195 133.366L271.335 121.145L270.202 113.794L267.382 116.24L264.832 129.252L259.818 151.982L269.248 147.562Z" fill="white"/>
<path d="M282.773 286.112C282.346 286.062 281.805 286.097 281.356 285.905C281.085 285.784 280.829 285.327 280.807 285.006C280.793 284.8 281.235 284.35 281.434 284.372C282.488 284.465 283.535 284.657 284.582 284.864C284.718 284.892 284.91 285.256 284.86 285.406C284.789 285.634 284.575 285.926 284.369 285.976C283.877 286.083 283.357 286.069 282.773 286.112Z" fill="black"/>
<path d="M265.102 375.231C263.165 372.001 261.242 368.971 259.497 365.841C258.144 363.402 256.876 360.899 255.843 358.318C255.259 356.864 254.86 355.338 254.091 353.941C253.436 352.75 252.617 351.83 251.413 351.167C249.568 350.155 249.597 348.215 251.434 347.188C252.46 346.618 253.607 346.404 254.746 346.632C256.99 347.081 259.169 347.737 260.829 349.463C260.95 349.584 261.128 349.684 261.185 349.827C261.847 351.559 263.478 352.179 264.86 353.113C267.118 354.639 268.628 356.885 270.288 358.981C271.563 360.586 272.909 362.133 274.283 363.652C274.803 364.222 275.487 364.65 276.135 365.177C277.738 364.186 278.842 362.874 279.832 361.506C281.733 358.875 283.543 356.179 285.387 353.506C287.275 350.761 289.44 348.279 292.232 346.426C293.065 345.869 294.034 345.42 295.003 345.185C296.128 344.914 297.018 344.372 297.702 343.531C299.219 341.67 300.01 339.495 300.06 337.085C300.067 336.643 299.839 336.037 299.511 335.78C297.182 333.969 296.456 331.403 296.285 328.693C296.014 324.38 297.439 320.629 300.601 317.599C300.722 317.485 300.822 317.342 301.064 317.057C300.793 316.472 300.58 315.766 300.174 315.182C297.203 310.854 294.461 306.39 292.189 301.656C291.085 299.353 290.053 297.014 288.913 294.54C287.496 294.134 286.071 293.321 284.889 292.123C282.488 289.685 283.023 286.448 286.078 284.915C288.856 283.517 291.463 284.088 293.372 286.526C293.585 286.797 293.778 287.075 293.97 287.36C294.825 288.644 295.366 290.177 297.203 290.583C297.83 290.726 298.35 291.482 298.863 292.016C305.145 298.54 311.541 304.957 317.624 311.667C320.245 314.554 322.403 317.913 324.419 321.278C326.869 325.356 328.336 329.855 328.998 334.604C329.219 336.18 329.725 337.72 329.924 339.296C330.416 343.303 330.907 347.324 331.221 351.352C331.762 358.333 332.097 365.334 332.666 372.315C333.094 377.591 333.806 382.846 334.297 388.122C334.746 392.942 335.109 397.776 335.437 402.61C335.743 407.159 336.021 411.715 336.171 416.271C336.448 424.699 336.776 433.134 336.79 441.561C336.805 446.681 336.491 451.821 335.943 456.919C335.423 461.718 334.504 466.488 333.585 471.237C332.46 477.026 330.316 482.495 327.823 487.821C326.719 490.188 325.9 492.698 324.162 494.744C323.899 495.051 323.891 495.714 323.977 496.17C324.461 498.758 322.666 500.883 321.135 501.767C320.088 502.366 318.799 502.338 317.844 501.76C314.041 499.471 310.223 497.133 307.887 493.147C307.467 492.434 307.196 491.564 307.118 490.744C306.954 489.069 307.916 488.021 309.59 487.942C310.259 487.914 310.95 487.999 311.612 488.142C312.218 488.27 312.788 488.534 313.464 488.769C313.493 488.484 313.564 488.27 313.535 488.063C312.09 477.882 311.605 467.643 311.876 457.369C311.997 452.756 312.047 448.135 312.132 443.515C312.218 438.638 311.47 433.861 310.337 429.134C309.846 427.087 309.141 425.091 308.735 423.03C308.015 419.394 305.786 416.941 302.83 415.016C300.829 413.712 298.735 412.542 296.698 411.294C295.451 410.532 294.233 409.726 292.652 408.713C294.839 415.145 295.807 421.412 296.064 427.551C297.289 428.563 298.45 429.319 299.347 430.31C301.598 432.777 301.306 434.638 299.504 436.463C298.108 437.882 296.712 439.315 295.223 440.642C293.051 442.574 290.807 444.413 288.578 446.281C288.144 446.645 287.666 446.966 287.168 447.244C285.758 448.021 284.661 447.779 283.792 446.467C281.997 443.757 281.926 440.848 283.3 438.018C284.134 436.299 285.387 434.788 286.498 433.105C285.772 432.271 284.939 431.351 284.155 430.396C280.978 426.524 278.835 422.025 276.712 417.562C273.122 410.004 269.725 402.353 266.47 394.639C264.839 390.767 263.429 386.753 263.129 382.496C263.03 381.042 263.144 379.552 263.35 378.097C263.521 376.921 264.098 375.908 265.102 375.231ZM321.933 493.746C324.611 487.814 327.659 482.26 329.29 476.113C330.28 472.377 331.242 468.62 332.075 464.848C333.158 459.943 333.664 454.952 333.941 449.939C334.105 446.98 334.333 444.021 334.297 441.062C334.226 435.537 334.013 430.011 333.792 424.485C333.599 419.651 333.336 414.817 333.072 409.983C332.745 403.836 332.488 397.69 332.011 391.551C331.513 385.134 330.786 378.732 330.181 372.322C329.889 369.263 329.646 366.204 329.362 362.989C324.839 362.112 322.994 358.326 320.879 354.597C320.216 356.586 319.426 358.247 318.144 359.687C315.615 362.518 311.206 361.17 309.988 358.661C308.55 355.702 306.876 352.828 306.235 349.534C306.149 349.085 306.121 348.6 305.914 348.215C305.722 347.859 305.373 347.395 305.031 347.338C302.93 346.996 300.964 346.333 299.198 345.121C298.144 345.841 297.773 346.575 298.101 347.88C299.148 352.037 299.632 356.265 299.397 360.579C299.191 364.393 297.773 367.538 294.775 369.898C294.055 370.461 293.77 371.053 293.884 371.922C294.241 374.746 294.604 377.577 294.896 380.407C295.01 381.527 295.444 382.29 296.463 382.81C297.097 383.131 297.745 383.587 297.488 384.514C296.164 384.621 295.921 384.543 294.29 383.644C291.798 382.268 289.29 380.942 286.477 380.286C285.501 380.058 284.782 380.236 283.998 380.906C282.709 382.011 281.32 383.031 279.867 383.908C279.134 384.35 278.165 384.5 277.282 384.578C274.988 384.778 273.258 383.502 271.669 382.09C270.352 380.921 269.191 379.58 267.959 378.318C267.617 377.976 267.261 377.655 266.869 377.284C265.701 378.389 265.38 379.716 265.494 380.985C265.701 383.238 265.879 385.576 266.62 387.687C268.286 392.464 270.223 397.156 272.168 401.833C275.672 410.261 279.682 418.439 284.468 426.218C285.743 428.285 287.31 430.168 288.863 432.299C290.174 431.537 291.335 430.838 292.51 430.182C293.763 429.483 294.219 428.421 294.062 427.045C293.827 424.948 293.685 422.838 293.329 420.77C292.83 417.911 292.275 415.059 291.541 412.25C290.886 409.74 290.352 407.166 288.671 405.006C288.08 404.243 287.631 403.145 288.265 401.733C288.984 402.389 289.568 402.881 290.109 403.416C290.715 404.015 291.206 404.756 291.876 405.248C293.749 406.639 295.658 407.979 297.617 409.248C299.817 410.667 302.118 411.929 304.312 413.355C307.545 415.458 310.117 418.075 311.028 422.032C311.598 424.521 312.446 426.952 313.058 429.433C314.134 433.818 314.789 438.274 314.718 442.795C314.661 446.552 314.447 450.31 314.376 454.075C314.248 461.14 313.97 468.206 314.604 475.265C315.024 479.971 315.259 484.698 316.256 489.34C316.669 491.279 317.617 492.684 319.654 493.154C320.373 493.318 321.078 493.525 321.933 493.746ZM257.659 356.942C258.927 359.466 260.145 361.912 261.392 364.343C263.763 368.971 266.477 373.384 269.96 377.27C271.513 379.003 273.108 380.721 275.252 381.79C276.833 382.575 278.215 382.532 279.696 381.441C283.293 378.803 286.47 375.716 289.568 372.521C290.957 371.088 292.118 369.662 292.004 367.538C291.99 367.267 292.04 366.931 292.189 366.718C292.382 366.432 292.702 366.233 293.065 365.905C293.379 366.497 293.6 366.903 293.849 367.381C296.249 365.399 297.054 362.846 297.061 360.015C297.068 357.513 296.961 354.996 296.762 352.5C296.619 350.768 296.228 349.049 295.907 347.096C295.238 347.438 294.739 347.652 294.283 347.937C291.598 349.648 289.476 351.916 287.624 354.482C285.323 357.67 283.008 360.85 280.651 363.987C280.01 364.842 279.205 365.605 278.393 366.304C276.619 367.83 274.903 367.687 273.293 365.969C272.987 365.634 272.709 365.27 272.417 364.921C270.252 362.276 268.087 359.63 265.921 356.992C264.825 355.652 263.528 354.575 261.954 353.869C260.259 354.646 258.507 355.245 257.659 356.942ZM329.041 360.407C328.884 357.62 328.649 355.01 328.607 352.4C328.5 346.055 327.816 339.802 326.278 333.62C325.152 329.1 323.585 324.807 321.014 320.907C320.686 320.401 320.323 319.916 319.981 319.424C319.86 319.902 319.96 320.273 320.109 320.622C320.964 322.64 321.427 324.75 321.505 326.925C321.648 330.747 321.363 334.54 320.565 338.297C320.202 340.009 319.867 341.798 319.995 343.516C320.181 346.005 320.807 348.458 321.249 350.917C321.292 351.138 321.334 351.381 321.456 351.559C322.866 353.762 324.255 355.98 325.722 358.147C326.463 359.26 327.538 360.001 329.041 360.407ZM317.93 316.522C317.503 315.909 317.275 315.524 317.004 315.196C314.362 311.995 311.712 308.815 308.735 305.906C305.971 303.21 303.322 300.38 300.686 297.564C298.984 295.752 297.389 293.842 295.672 291.895C294.226 292.508 292.56 292.929 291.477 294.355C294.803 301.278 298.144 308.109 302.759 314.241C308.379 310.84 313.122 312.922 317.93 316.522ZM285.893 445.39C286.748 444.734 287.46 444.271 288.08 443.7C290.886 441.134 293.678 438.545 296.463 435.95C298.749 433.818 298.706 433.141 296.156 431.28C295.758 430.988 295.288 430.802 294.796 430.538C293.037 432.264 291.05 433.426 288.813 434.175C288.607 434.246 288.364 434.339 288.236 434.496C286.783 436.25 285.216 437.968 284.732 440.264C284.362 441.996 284.483 443.736 285.893 445.39ZM300.131 333.499C301.762 330.005 303.001 326.461 305.394 323.51C304.191 321.841 303.023 320.216 301.79 318.504C300.295 320.429 299.312 322.333 298.642 324.401C298.329 325.363 298.222 326.276 299.105 327.032C299.169 327.089 299.141 327.246 299.169 327.453C298.877 327.624 298.557 327.809 298.179 328.03C298.215 330.012 298.436 331.937 300.131 333.499ZM321.627 496.869C319.832 496.056 318.122 495.315 316.448 494.516C315.473 494.053 314.476 493.546 314.54 492.192C314.547 492.049 314.44 491.842 314.326 491.757C312.802 490.652 311.185 489.81 309.191 490.053C308.884 491.307 309.29 492.177 310.109 492.897C311.47 494.095 312.788 495.357 314.226 496.455C315.836 497.675 317.56 498.737 319.184 499.835C320.501 498.972 321.441 498.131 321.627 496.869ZM293.165 290.64C292.268 289.514 291.52 288.451 290.644 287.503C289.939 286.74 288.949 286.598 287.951 286.84C286.114 287.289 285.587 288.737 286.826 290.155C287.716 291.168 288.799 292.002 289.789 292.908C290.886 292.166 291.869 291.51 293.165 290.64ZM260.045 351.566C257.239 349.256 254.639 348.465 252.944 349.37C253.714 350.04 254.568 350.625 255.202 351.395C255.829 352.151 256.228 353.085 256.755 354.005C257.88 353.178 258.92 352.4 260.045 351.566ZM291.705 373.527C290.159 375.152 288.856 376.521 287.424 378.026C289.098 378.796 290.629 379.495 292.353 380.286C292.139 378.004 291.94 375.944 291.705 373.527ZM301.748 344.294C301.805 344.222 301.862 344.151 301.926 344.08C301.662 343.595 301.399 343.103 301.043 342.454C300.758 342.889 300.565 343.181 300.28 343.616C300.843 343.88 301.299 344.087 301.748 344.294Z" fill="black"/>
<path d="M227.681 247.39C226.541 246.014 226.221 244.452 226.669 242.848C227.617 239.454 228.464 236.003 229.753 232.738C232.951 224.61 235.523 216.31 237.552 207.818C238.742 202.834 240.152 197.908 241.413 192.938C242.503 188.631 243.372 184.268 244.589 179.997C246.05 174.906 247.695 169.865 249.419 164.86C251.035 160.154 253.364 155.762 256.092 151.612C258.457 148.019 261.84 145.452 265.494 143.313C270.017 140.675 274.718 138.329 279.725 136.739C282.431 135.884 285.166 134.8 288.051 135.228C289.675 135.47 290.85 134.914 292.139 134.187C293.421 133.467 294.796 132.903 296.156 132.34C297.125 131.941 297.196 131.998 298.478 132.426C298.25 133.374 297.389 133.509 296.691 133.737C294.554 134.429 292.702 135.613 291.021 136.811C291.391 138.914 291.733 140.86 292.097 142.935C294.846 143.199 297.709 143.263 300.587 142.293C300.038 140.254 297.844 140.575 296.783 139.449C296.869 138.728 297.317 138.5 297.88 138.65C299.426 139.056 300.957 139.513 302.075 140.775C303.208 142.051 302.973 143.477 301.363 144.019C299.924 144.504 298.386 144.853 296.876 144.953C295.195 145.06 293.485 144.803 291.79 144.739C291.363 144.725 290.879 144.753 290.515 144.946C285.359 147.612 280.181 150.236 275.102 153.038C273.485 153.93 272.047 155.22 270.715 156.518C268.108 159.063 267.531 162.471 267.146 165.894C266.975 167.455 266.911 169.031 266.819 170.4C268.849 170.514 270.701 170.372 272.424 170.771C275.152 171.412 277.723 172.503 279.155 175.234C279.411 175.726 279.889 176.097 280.238 176.539C280.622 177.024 281.057 177.494 281.334 178.043C281.983 179.32 281.776 179.619 280.359 179.797C280.964 181.894 281.577 184.004 282.182 186.122C282.381 186.806 282.609 187.412 283.521 187.398C283.792 187.398 284.305 187.719 284.29 187.869C284.269 188.204 284.077 188.639 283.806 188.831C282.232 189.943 280.522 190.35 278.649 189.637C278.279 189.494 277.909 189.38 277.431 189.216C275.871 190.97 274.013 192.36 271.904 193.394C269.696 194.478 267.41 194.421 265.152 193.622C263.749 195.704 263.557 197.794 264.839 199.79C267.88 204.524 268.742 209.822 269.041 215.269C269.29 219.79 270.216 224.175 271.334 228.545C271.726 230.085 271.926 231.675 272.218 233.237C272.339 233.893 272.46 234.549 272.588 235.233C278.015 232.838 283.592 231.618 289.354 231.098C292.987 230.77 296.235 231.625 298.97 234.15C301.406 236.395 302.574 240.395 301.057 243.896C299.889 246.606 298.557 249.265 297.061 251.811C294.084 256.88 290.408 261.457 286.626 266.049C287.132 266.998 287.716 267.96 288.165 268.994C288.671 270.149 288.827 271.283 287.631 272.231C287.36 272.445 287.253 273.044 287.296 273.436C287.481 275.104 286.926 276.359 285.401 277.101C283.777 277.892 282.296 277.521 280.971 276.402C280.501 276.003 280.116 275.496 279.497 274.833C278.77 275.931 278.115 276.887 277.503 277.871C276.869 278.883 276.292 279.924 275.622 281.065C276.562 281.471 277.438 281.807 278.279 282.22C278.941 282.541 279.625 282.876 280.166 283.354C281.213 284.259 281.819 285.421 281.391 286.855C280.957 288.288 279.974 289.165 278.485 289.421C277.759 289.543 277.018 289.614 276.285 289.714C273.072 290.134 269.86 290.555 266.641 290.976C266.47 290.997 266.306 291.047 266.135 291.068C263.4 291.446 262.389 290.683 261.983 287.917C261.769 286.455 262.047 285.093 262.852 283.824C263.3 283.111 263.692 282.363 264.077 281.692C263.934 281.471 263.899 281.322 263.813 281.293C262.182 280.709 261.705 279.589 262.189 277.956C262.56 276.701 262.752 275.39 263.215 274.177C265.052 269.343 267.666 264.958 270.928 260.951C271.107 260.73 271.277 260.509 271.527 260.188C270.978 259.411 270.43 258.634 269.817 257.764C269.461 257.935 269.162 258.049 268.884 258.213C267.018 259.304 265.173 260.424 263.293 261.493C257.73 264.666 252.495 268.252 247.994 272.858C245.302 275.611 243.564 278.919 242.246 282.463C241.299 285.022 240.686 287.682 240.181 290.384C239.191 295.703 237.923 300.965 236.904 306.277C236.477 308.508 236.327 310.797 236.135 313.065C235.807 317.036 235.394 321.015 235.288 324.993C235.188 328.686 235.309 332.408 235.615 336.087C235.765 337.87 235.223 339.032 233.899 340.03C233.564 340.28 233.286 340.601 232.681 341.178C233.535 341.093 233.963 341.086 234.383 340.993C236.477 340.537 238.478 340.865 240.344 341.841C240.971 342.169 241.591 342.683 241.99 343.267C243.001 344.736 242.624 346.326 240.971 347.125C239.397 347.888 237.731 348.551 236.035 348.978C233.699 349.563 231.434 350.226 229.426 351.609C229.005 351.895 228.543 352.137 228.065 352.315C226.356 352.964 225.238 352.529 224.426 350.861C223.571 349.093 223.393 347.224 224.062 345.378C224.49 344.201 224.212 343.132 223.913 342.055C223.186 339.424 222.225 336.85 221.669 334.191C220.836 330.234 220.124 326.248 219.639 322.234C219.198 318.505 218.977 314.733 218.934 310.975C218.87 305.678 218.913 300.373 219.191 295.083C219.525 288.659 220.031 282.234 220.701 275.832C221.064 272.331 221.762 268.837 222.588 265.415C223.856 260.16 225.345 254.962 226.769 249.743C226.997 248.987 227.346 248.26 227.681 247.39ZM288.457 137.324C285.928 137.274 283.663 138.208 281.505 139.085C276.142 141.253 270.693 143.277 265.765 146.408C262.887 148.233 260.473 150.514 258.678 153.445C256.327 157.288 254.29 161.252 252.595 165.452C250.715 170.108 249.005 174.799 247.681 179.633C246.491 183.968 245.48 188.361 244.312 192.703C242.88 198.036 241.342 203.341 239.889 208.667C238.813 212.624 237.973 216.652 236.712 220.553C235.316 224.88 233.464 229.066 232.011 233.379C230.907 236.659 230.067 240.039 229.233 243.404C228.884 244.816 229.077 245.123 230.423 245.629C232.809 246.534 235.209 247.483 237.674 248.089C243.03 249.415 248.507 249.386 253.977 249.144C254.938 249.101 255.893 248.909 256.84 248.752C258.307 248.509 259.404 247.91 259.39 246.156C259.383 245.6 259.718 245.051 259.753 244.495C259.832 243.098 260.352 241.7 259.803 240.288C259.141 238.592 258.485 236.895 257.866 235.183C255.508 228.681 254.305 221.886 253.023 215.12C252.93 214.628 252.716 214.021 253.407 213.636C254.44 215.519 254.896 217.494 255.352 219.497C256.612 224.987 257.909 230.47 259.867 235.775C261.626 240.545 263.571 245.23 266.377 249.472C269.176 253.7 272.175 257.793 275.116 261.921C275.864 262.969 276.74 263.917 277.645 265.022C278.777 263.996 279.767 263.097 280.765 262.192C280.045 261.215 279.333 260.395 278.785 259.482C276.89 256.352 275.473 253.001 274.134 249.607C272.616 245.757 272.032 241.693 271.206 237.679C270.608 234.784 270.252 231.832 269.561 228.959C268.4 224.132 267.431 219.276 267.125 214.314C266.847 209.772 266.028 205.394 263.742 201.38C263.315 200.624 262.823 200.025 262.132 199.469C259.141 197.066 257.588 193.943 257.951 190.057C258.058 188.91 258.215 187.854 257.759 186.728C257.517 186.136 257.602 185.38 257.674 184.71C257.894 182.792 258.3 180.881 258.421 178.956C258.649 175.298 260.793 173.245 264.041 171.876C264.112 171.32 264.226 170.707 264.262 170.086C264.426 166.892 264.86 163.733 265.743 160.66C266.833 156.882 268.756 153.58 272.31 151.662C277.31 148.967 282.431 146.479 287.503 143.912C288.044 143.641 288.642 143.477 289.276 143.242C289.134 141.195 289.347 139.192 288.457 137.324ZM225.53 339.752C228.051 339.923 230.038 338.918 232.047 337.977C232.909 337.57 233.229 336.957 233.179 335.945C233.008 332.187 232.966 328.43 232.837 324.672C232.595 317.564 233.535 310.555 234.768 303.596C235.75 298.056 237.111 292.573 238.414 287.097C239.476 282.641 241.235 278.448 243.521 274.47C244.817 272.217 246.52 270.334 248.45 268.609C252.78 264.737 257.916 262.128 262.98 259.418C264.91 258.384 266.904 257.472 268.87 256.509C266.555 252.901 264.319 249.429 261.983 245.793C261.84 246.513 261.698 247.062 261.634 247.611C261.434 249.358 260.508 250.37 258.777 250.77C256.833 251.219 254.903 251.483 252.894 251.611C248.372 251.896 243.913 251.404 239.447 250.905C236.035 250.527 232.788 249.536 229.561 248.082C229.233 249.465 228.934 250.734 228.621 251.996C227.239 257.522 225.779 263.026 224.497 268.566C223.315 273.678 222.645 278.883 222.467 284.138C222.389 286.298 222.196 288.459 222.054 290.619C221.783 294.883 221.349 299.147 221.278 303.418C221.142 311.232 221.741 319.018 222.773 326.768C223.357 331.139 224.426 335.389 225.53 339.752ZM285.059 264.088C285.28 263.832 285.522 263.596 285.722 263.326C288.514 259.447 291.406 255.632 294.034 251.647C295.686 249.144 296.983 246.399 298.357 243.718C299.112 242.242 299.297 240.481 298.678 239.055C297.317 235.939 295.864 233.686 291.612 233.665C289.803 233.658 287.98 233.836 286.178 234.043C281.648 234.563 277.332 235.918 272.987 237.351C273.956 242.378 274.789 247.361 277.132 251.975C278.72 250.135 280.565 248.73 282.595 247.568C282.987 247.34 283.371 247.069 283.799 246.941C284.069 246.862 284.554 246.905 284.689 247.083C284.839 247.283 284.803 247.768 284.654 248.003C284.354 248.474 283.92 248.866 283.535 249.279C281.79 251.133 280.038 252.98 278.35 254.762C279.782 258.021 283.044 262.527 285.059 264.088ZM272.673 261.828C269.219 266.612 266.363 271.482 264.853 277.044C264.711 277.564 264.718 278.12 264.646 278.783C267.353 279.532 269.903 280.245 272.617 281.001C274.532 278.356 276.377 275.796 278.172 273.315C277.025 270.976 276.014 268.83 276.057 266.349C276.064 266.056 275.793 265.736 275.587 265.472C274.689 264.317 273.756 263.176 272.673 261.828ZM264.903 288.601C267.78 288.266 270.594 287.96 273.407 287.61C274.981 287.411 276.555 287.197 278.115 286.905C279.262 286.691 279.49 285.935 278.663 285.129C278.272 284.744 277.766 284.352 277.253 284.224C276.05 283.924 274.817 283.739 273.585 283.575C272.139 283.382 270.665 283.325 269.226 283.097C268.129 282.926 267.054 282.577 265.993 282.32C264.703 284.274 263.272 286.085 264.903 288.601ZM278.478 266.641C278.678 267.432 278.827 268.096 279.012 268.744C279.604 270.791 280.579 272.616 282.075 274.149C282.638 274.726 283.265 274.997 284.062 274.748C284.91 274.477 284.789 273.75 284.889 273.079C285.003 272.324 285.152 271.511 285.544 270.876C285.9 270.299 285.886 269.878 285.665 269.315C284.817 267.112 283.101 265.543 281.74 263.582C280.601 264.652 279.575 265.614 278.478 266.641ZM226.876 350.647C227.567 350.233 227.866 350.076 228.137 349.884C230.401 348.23 232.837 346.989 235.615 346.369C237.018 346.055 238.343 345.428 239.981 344.836C238.393 343.431 236.854 342.968 235.188 343.374C233.557 343.766 231.84 343.909 230.359 344.843C229.903 345.128 229.283 345.171 228.728 345.278C227.033 345.592 226.712 345.834 226.598 347.531C226.534 348.444 226.755 349.385 226.876 350.647ZM269.711 192.154C272.154 191.469 274.219 190.257 275.9 188.425C275.444 187.648 275.024 186.927 274.561 186.129C270.622 186.5 266.983 187.434 264.547 190.999C265.401 191.84 266.562 192.282 267.916 192.275C267.866 191.74 267.816 191.277 267.773 190.82C267.88 190.749 267.987 190.685 268.101 190.614C268.592 191.084 269.091 191.555 269.711 192.154ZM262.196 196.368C262.716 195.063 263.151 193.965 263.635 192.746C262.916 192.168 262.203 191.512 261.413 190.992C261.099 190.785 260.544 190.721 260.195 190.856C259.561 191.098 259.753 191.726 259.903 192.196C260.373 193.651 260.993 195.041 262.196 196.368ZM226.363 342.733C227.859 343.317 229.219 342.975 230.565 341.777C229.176 342.091 227.873 342.39 226.363 342.733Z" fill="black"/>
<path d="M221.128 484.705C247.025 489.867 272.93 495.036 299.084 500.249C299.696 482.281 298.763 464.442 298.756 446.417C296.968 446.096 295.302 445.811 293.642 445.49C292.638 445.297 291.634 445.105 290.651 444.82C290.01 444.634 289.283 444.378 289.326 443.501C289.354 442.93 290.366 442.182 291.142 442.217C293.471 442.317 295.793 442.474 298.122 442.609C298.229 442.617 298.343 442.595 298.656 442.581C298.685 442.018 298.735 441.426 298.742 440.827C298.806 433.868 298.841 426.916 298.927 419.957C298.955 417.74 299.105 415.515 299.233 413.298C299.269 412.692 299.44 412.1 299.575 411.344C300.309 411.63 300.871 411.851 301.512 412.1C301.569 412.941 301.662 413.733 301.676 414.524C301.769 424.613 301.804 434.709 301.94 444.798C302.061 453.804 302.332 462.809 302.453 471.814C302.545 478.88 302.531 485.953 302.538 493.026C302.552 504.883 302.552 516.747 302.552 528.605C302.552 530.052 302.602 530.223 303.92 530.544C307.203 531.35 310.508 531.977 313.856 530.216C313.813 529.282 313.749 528.327 313.72 527.371C313.542 522.074 313.379 516.769 313.2 511.471C313.086 508.17 312.916 504.862 312.83 501.56C312.802 500.548 312.923 499.514 313.094 498.516C313.186 497.946 313.585 497.354 314.255 497.525C314.661 497.625 315.088 498.074 315.294 498.473C315.544 498.965 315.636 499.564 315.665 500.127C315.971 505.475 316.277 510.822 316.52 516.177C316.719 520.562 316.833 524.947 317.004 529.339C317.018 529.731 317.111 530.123 317.189 530.515C317.445 531.785 317.203 532.298 316.135 532.897C311.562 535.457 306.847 535.578 301.968 533.867C300.309 533.289 299.376 532.227 299.312 530.501C299.205 527.778 299.077 525.04 299.141 522.316C299.205 519.471 299.198 516.64 298.82 513.81C290.202 512.512 281.783 510.608 273.4 508.527C267.937 507.172 262.403 506.131 256.89 504.983C253.607 504.298 250.309 503.642 247.011 503.051C240.352 501.853 233.678 500.705 227.011 499.528C224.782 499.136 222.552 498.701 220.159 498.259C219.739 500.491 219.269 502.644 218.948 504.812C218.307 509.147 217.738 513.496 217.139 517.838C216.94 519.307 215.43 520.861 213.742 520.99C211.883 521.132 209.988 521.104 208.129 520.94C205.786 520.74 204.048 519.271 202.517 517.632C202.082 517.168 201.933 516.255 201.968 515.564C202.125 512.377 202.31 509.19 202.645 506.017C203.108 501.653 203.699 497.304 204.262 492.955C204.853 488.377 205.537 483.814 206.085 479.236C206.534 475.507 206.748 471.743 207.232 468.014C207.552 465.533 208.222 463.101 208.642 460.634C209.205 457.383 209.682 454.11 210.181 450.852C210.864 446.346 211.527 441.832 212.211 437.326C212.901 432.763 213.635 428.207 214.297 423.644C214.924 419.301 215.38 414.938 216.071 410.603C216.976 404.92 218.065 399.273 219.027 393.598C219.362 391.63 219.525 389.641 219.817 387.666C220.323 384.172 220.893 380.685 221.384 377.192C221.698 374.938 222.025 372.685 222.161 370.418C222.431 365.962 223.364 361.62 224.155 357.242C224.354 356.122 224.447 354.982 224.639 353.855C224.753 353.185 224.924 352.522 225.152 351.88C225.352 351.31 225.743 350.875 226.441 351.032C227.075 351.174 227.146 351.695 227.132 352.237C227.082 354.005 227.125 355.773 226.947 357.527C226.463 362.404 225.929 367.274 225.344 372.136C225.109 374.111 224.661 376.065 224.362 378.033C223.614 382.988 222.937 387.951 222.146 392.899C221.213 398.689 220.095 404.457 219.226 410.261C218.108 417.754 217.211 425.284 216.114 432.777C215.266 438.524 214.233 444.242 213.315 449.975C212.809 453.119 212.396 456.285 211.897 459.436C211.342 462.923 210.658 466.388 210.181 469.889C209.39 475.65 208.735 481.425 207.987 487.186C207.524 490.744 206.897 494.281 206.513 497.846C205.993 502.658 205.786 507.514 205.145 512.305C204.853 514.516 205.75 515.571 207.353 516.712C209.312 518.102 211.37 518.124 213.542 517.781C214.397 517.646 214.675 517.111 214.789 516.234C215.359 511.835 216.021 507.443 216.669 503.044C216.933 501.254 217.225 499.464 217.538 497.461C215.929 497.083 214.447 496.748 212.98 496.391C212.374 496.241 211.748 496.135 211.206 495.856C210.85 495.671 210.523 495.258 210.38 494.873C209.625 492.848 209.468 490.751 210.117 488.677C210.401 487.771 210.829 486.88 211.349 486.081C212.688 484.013 214.582 483.329 216.968 484.056C217.446 484.199 217.958 484.213 218.429 484.277C220.494 467.429 222.552 450.659 224.625 433.733C223.87 433.526 223.072 433.262 222.246 433.098C220.088 432.684 219.162 431.85 218.948 429.619C218.713 427.18 219.426 425.034 221.285 423.294C222.695 421.968 224.248 421.027 226.228 420.934C229.468 399.594 232.702 378.332 235.95 356.985C234.654 356.636 233.578 356.315 232.488 356.058C231.47 355.816 230.978 355.16 230.736 354.19C230.259 352.308 230.537 350.568 231.669 348.992C231.933 348.629 232.26 348.272 232.638 348.051C233.471 347.566 234.29 347.98 234.34 348.95C234.376 349.548 234.205 350.183 234.027 350.768C233.763 351.645 233.428 352.493 233.899 353.527C235.971 353.827 238.094 354.261 240.23 354.404C245.359 354.739 250.366 355.794 255.409 356.686C256.926 356.949 257.588 357.67 257.766 359.309C257.296 359.352 256.812 359.481 256.356 359.416C253.927 359.11 251.513 358.739 249.084 358.425C245.708 357.998 242.324 357.605 239.005 357.206C238.186 358.447 229.497 419.686 229.255 421.604C231.277 422.21 233.3 422.952 235.394 423.408C242.339 424.927 249.283 426.467 256.27 427.765C263.094 429.034 269.974 429.982 276.812 431.159C280.059 431.715 283.279 432.463 286.505 433.155C287.047 433.269 287.559 433.533 288.236 433.775C287.78 434.289 287.332 434.631 287.096 435.087C286.356 436.52 285.223 436.692 283.785 436.414C275.181 434.774 266.562 433.191 257.951 431.551C252.588 430.531 247.203 429.583 241.876 428.385C237.332 427.366 232.859 426.032 228.35 424.834C227.966 424.735 227.552 424.706 227.196 424.542C225.701 423.843 224.703 424.685 223.742 425.626C222.602 426.738 222.51 428.157 222.745 429.597C222.795 429.882 223.243 430.21 223.578 430.317C224.333 430.567 225.117 430.71 225.9 430.859C230.936 431.793 235.971 432.713 241.007 433.64C249.732 435.237 258.457 436.841 267.182 438.438C271.94 439.308 276.698 440.178 281.448 441.062C282.339 441.226 283.279 441.34 283.535 442.495C283.77 443.565 283.514 444.078 282.431 444.085C281.128 444.093 279.81 444.007 278.528 443.793C275.558 443.308 272.602 442.724 269.639 442.167C266.171 441.519 262.709 440.856 259.24 440.2C253.763 439.166 248.286 438.125 242.809 437.098C238.614 436.314 234.426 435.544 230.223 434.788C229.34 434.631 228.436 434.567 227.567 434.467C226.805 436.635 220.914 482.987 221.128 484.705ZM213.478 493.946C213.585 493.988 213.685 494.053 213.792 494.074C221.299 495.357 228.806 496.605 236.306 497.917C240.886 498.723 245.451 499.642 250.024 500.477C251.812 500.805 253.635 500.954 255.416 501.332C260.031 502.316 264.618 503.421 269.233 504.391C273.122 505.211 277.061 505.817 280.943 506.68C285.323 507.657 289.661 508.826 294.027 509.874C295.558 510.238 297.089 510.666 298.785 510.516V503.379C298.265 503.229 297.738 503.029 297.196 502.937C295.572 502.666 293.92 502.516 292.31 502.181C285.8 500.805 279.319 499.336 272.802 497.988C266.626 496.712 260.451 495.364 254.226 494.381C247.709 493.347 241.249 492.078 234.803 490.694C228.863 489.418 222.894 488.256 216.933 487.058C215.352 486.737 213.756 487.479 213.3 488.855C212.731 490.545 212.382 492.284 213.478 493.946Z" fill="black"/>
<path d="M312.474 309.056C311.171 308.514 310.765 307.466 310.523 306.375C310.352 305.605 310.387 304.793 310.352 303.994C310.081 298.475 309.81 292.957 309.554 287.438C309.49 286.012 309.49 284.586 309.461 283.167C309.362 277.641 309.283 272.123 309.155 266.597C309.055 262.105 308.906 257.606 308.77 253.114C308.421 241.606 308.115 230.099 307.709 218.591C307.495 212.494 307.061 206.413 306.819 200.316C306.584 194.277 306.548 188.231 306.285 182.199C305.978 175.197 305.508 168.203 305.145 161.201C305.067 159.725 305.138 158.235 305.109 156.759C305.01 151.576 304.889 146.392 304.789 141.209C304.732 138.364 304.832 135.512 304.661 132.674C304.39 128.239 304.055 123.804 302.98 119.462C302.78 118.649 302.659 117.772 301.805 117.287C300.758 117.658 300.458 118.599 300.316 119.455C299.967 121.53 299.654 123.619 299.561 125.722C299.39 129.594 299.376 133.472 299.96 137.323C300.117 138.342 300.166 139.383 299.098 140.132C298.222 139.747 297.894 138.97 297.731 138.136C297.51 137.016 297.275 135.89 297.211 134.763C296.954 130.036 296.691 125.301 297.474 120.603C297.709 119.177 298.286 117.758 298.927 116.453C299.547 115.198 300.736 114.428 302.168 114.728C303.628 115.034 304.988 115.704 305.43 117.373C305.615 118.086 305.843 118.799 305.95 119.526C306.598 123.975 307.745 128.353 307.816 132.881C307.958 141.487 308.108 150.093 308.315 158.691C308.393 161.936 308.649 165.18 308.792 168.424C309.034 173.836 309.262 179.24 309.468 184.652C309.76 192.288 310.067 199.917 310.309 207.553C310.544 215.076 310.722 222.598 310.907 230.12C311.05 235.931 311.107 241.749 311.292 247.56C311.377 250.405 311.762 253.243 311.84 256.087C312.018 262.64 312.161 269.192 312.196 275.745C312.225 281.164 312.289 286.561 312.681 291.973C313.015 296.629 312.901 301.313 312.916 305.99C312.937 306.967 312.645 307.951 312.474 309.056Z" fill="black"/>
<path d="M302.538 298.333C300.352 297.813 301.078 296.23 300.701 294.989C300.366 294.89 299.91 294.825 299.54 294.612C299.191 294.405 298.713 294.063 298.678 293.742C298.614 293.157 299.119 292.879 299.703 292.858C299.981 292.85 300.266 292.858 300.665 292.858V287.146C298.236 287.075 295.857 286.997 293.478 286.925C293.08 286.911 292.681 286.925 292.289 286.868C291.619 286.769 291.064 286.483 291.042 285.706C291.021 284.922 291.605 284.622 292.246 284.487C292.745 284.387 293.265 284.352 293.77 284.366C295.651 284.43 297.524 284.523 299.404 284.601C299.796 284.615 300.188 284.601 300.758 284.601C300.793 284.009 300.857 283.46 300.85 282.904C300.779 276.066 300.615 269.229 300.636 262.384C300.672 251.325 300.85 240.267 300.921 229.215C300.936 227.582 300.729 225.942 300.622 224.253C300.295 224.21 300.074 224.146 299.86 224.153C294.226 224.267 288.592 224.431 282.958 224.502C279.148 224.552 275.33 224.474 271.52 224.431C270.9 224.424 270.259 224.395 269.661 224.231C268.642 223.953 268.286 223.304 268.471 222.292C268.642 221.351 268.97 221.044 269.974 221.058C271.911 221.087 273.842 221.151 275.772 221.208C281.292 221.372 286.812 221.557 292.332 221.686C295.003 221.75 297.674 221.693 300.287 221.693C300.807 220.374 300.807 217.721 300.359 215.796C298.023 215.796 295.701 215.789 293.372 215.796C286.541 215.818 279.711 215.853 272.88 215.868C271.684 215.868 270.487 215.803 269.297 215.697C267.937 215.575 267.353 215.09 267.36 214.221C267.367 213.308 268.094 212.745 269.468 212.723C271.178 212.702 272.887 212.766 274.59 212.78C279.433 212.816 284.269 212.823 289.112 212.88C292.41 212.923 295.708 213.03 299.013 213.101C299.404 213.108 299.796 213.051 300.245 213.023C300.316 212.773 300.437 212.566 300.43 212.367C300.081 205.137 299.711 197.914 299.369 190.684C299.219 187.497 299.205 184.303 298.998 181.116C298.713 176.852 298.136 172.603 297.98 168.339C297.773 162.699 297.837 157.052 297.809 151.412C297.795 149.188 297.83 146.97 297.859 144.746C297.866 144.047 297.901 143.298 298.777 143.141C299.468 143.02 300.209 143.961 300.238 144.86C300.458 152.204 300.629 159.555 300.936 166.899C301.128 171.512 301.634 176.104 301.847 180.717C302.303 190.57 302.681 200.424 303.044 210.278C303.222 215.119 303.35 219.96 303.407 224.809C303.507 233.244 303.571 241.678 303.564 250.113C303.557 255.468 303.357 260.822 303.322 266.177C303.265 275.182 303.272 284.188 303.243 293.193C303.236 294.276 303.25 295.367 303.136 296.437C303.079 297.079 302.766 297.678 302.538 298.333Z" fill="black"/>
<path d="M243.265 291.86C241.078 290.891 240.209 288.231 240.48 286.349C240.779 284.295 242.944 282.413 245.686 281.814C245.815 280.374 245.914 278.905 246.078 277.443C246.299 275.575 246.691 273.721 246.783 271.853C246.862 270.32 247.538 269.344 248.863 268.566C249.39 269.55 249.461 270.556 249.347 271.568C249.034 274.342 248.678 277.108 248.357 279.882C248.279 280.552 248.265 281.229 248.208 281.985C248.685 282.092 249.048 282.22 249.426 282.242C253.571 282.541 257.716 282.826 261.855 283.112C262.196 283.133 262.538 283.169 262.866 283.247C263.457 283.383 263.963 283.675 263.998 284.345C264.034 285.122 263.457 285.45 262.823 285.593C262.332 285.707 261.805 285.721 261.299 285.693C259.141 285.579 256.983 285.422 254.825 285.308C251.812 285.151 248.799 285.001 245.793 284.887C244.468 284.837 244.034 285.115 243.749 286.406C243.585 287.14 243.721 287.932 243.721 288.801C244.49 288.887 245.095 288.994 245.715 289.03C252.246 289.415 258.785 289.75 265.316 290.192C268.607 290.413 271.883 290.833 275.166 291.14C276.071 291.226 276.997 291.176 277.887 291.304C278.279 291.361 278.735 291.661 278.948 291.989C279.055 292.153 278.678 292.637 278.5 292.965C278.044 293.792 277.232 293.921 276.434 293.871C274.682 293.771 272.93 293.579 271.185 293.429C270.786 293.393 270.394 293.343 269.996 293.322C262.552 292.894 255.117 292.459 247.674 292.038C247.396 292.024 247.111 292.038 246.612 292.038C246.384 293.7 246.128 295.368 245.929 297.037C245.124 303.71 244.319 310.384 243.535 317.058C243.144 320.395 242.852 323.746 242.389 327.068C241.883 330.676 241.214 334.262 240.665 337.863C240.423 339.439 240.337 341.029 240.138 342.612C240.095 342.961 239.946 343.474 239.696 343.596C239.141 343.867 239.048 343.218 238.735 342.94C237.745 342.063 237.723 340.986 237.859 339.831C238.806 331.803 239.768 323.774 240.694 315.739C241.548 308.323 242.353 300.908 243.179 293.486C243.222 292.965 243.229 292.452 243.265 291.86Z" fill="black"/>
<path d="M259.589 150.578C259.874 149.081 260.138 147.719 260.394 146.364C261.534 140.382 262.659 134.4 263.813 128.425C264.418 125.302 264.974 122.158 265.743 119.071C266.078 117.723 266.804 116.447 267.517 115.227C268.072 114.279 268.955 113.545 270.195 113.794C271.527 114.065 272.068 115.163 272.161 116.311C272.36 118.857 272.567 121.431 272.388 123.969C272.011 129.366 271.391 134.742 270.864 140.118C270.85 140.232 270.85 140.346 270.843 140.461C270.608 143.434 270.565 143.491 267.723 145.038C267.681 144.532 267.581 144.118 267.631 143.726C268.407 137.687 269.262 131.655 269.953 125.609C270.23 123.185 270.188 120.718 270.216 118.272C270.223 117.573 269.981 116.874 269.817 115.955C268.578 116.974 268.122 118.136 267.844 119.341C266.997 122.999 266.178 126.664 265.43 130.343C264.312 135.862 263.25 141.395 262.175 146.927C261.89 148.453 261.384 149.844 259.589 150.578Z" fill="black"/>
<path d="M260.523 352.307C260.444 351.266 261.028 350.824 261.904 350.738C262.581 350.674 263.272 350.717 263.949 350.788C267.061 351.095 270.174 351.387 273.272 351.751C276.99 352.186 280.708 352.664 284.419 353.184C285.722 353.369 286.256 353.918 286.185 354.646C286.107 355.43 285.316 355.915 284.013 355.801C282.204 355.644 280.409 355.337 278.6 355.166C274.696 354.803 270.779 354.517 266.876 354.111C265.836 354.004 264.818 353.583 263.799 353.291C262.724 352.984 261.648 352.649 260.523 352.307Z" fill="black"/>
<path d="M252.802 351.465C252.204 351.465 251.641 351.537 251.1 351.451C247.567 350.938 244.034 350.403 240.501 349.861C239.661 349.733 238.827 349.562 238.001 349.369C237.41 349.234 236.926 348.913 236.94 348.221C236.961 347.423 237.581 347.123 238.222 347.123C239.696 347.123 241.185 347.123 242.638 347.33C245.33 347.715 248.015 348.193 250.686 348.727C251.819 348.955 252.894 349.44 252.944 350.888C252.944 351.002 252.887 351.116 252.802 351.465Z" fill="black"/>
<path d="M272.04 359.545C274.02 359.816 276.328 360.08 278.621 360.45C279.903 360.657 280.48 361.22 280.43 361.919C280.373 362.689 279.625 363.11 278.236 362.953C275.815 362.682 273.407 362.319 270.993 361.983C270.772 361.955 270.487 361.926 270.359 361.784C270.038 361.442 269.54 361.007 269.568 360.65C269.597 360.294 270.131 359.887 270.53 359.673C270.85 359.502 271.306 359.595 272.04 359.545Z" fill="black"/>
<path d="M288.101 294.832C287.31 294.775 286.505 294.789 285.736 294.632C285.387 294.561 285.102 294.14 284.789 293.884C285.074 293.577 284.782 293.014 285.124 292.786C285.323 292.657 286.213 292.914 286.498 292.95C287.339 293.049 288.193 293.121 289.012 293.335C289.376 293.427 289.653 293.834 289.967 294.098C289.682 294.333 289.433 294.639 289.105 294.789C288.813 294.925 288.443 294.875 288.101 294.91C288.101 294.882 288.101 294.86 288.101 294.832Z" fill="black"/>
<path d="M300.017 314.232C301.57 314.311 301.591 314.304 301.691 315.523C301.74 316.143 301.776 316.771 301.733 317.398C301.691 318.011 301.413 318.546 300.715 318.539C300.06 318.532 299.96 317.954 299.874 317.441C299.839 317.22 299.824 316.985 299.839 316.764C299.881 315.915 299.953 315.074 300.017 314.232Z" fill="black"/>
<path d="M295.615 277.243C294.839 276.608 294.176 276.073 293.486 275.503C284.668 286.241 275.829 296.993 266.912 307.852C267.389 308.437 267.752 308.893 267.93 309.107C269.682 307.531 271.449 306.162 272.944 304.544C276.157 301.078 279.219 297.478 282.353 293.934C282.88 293.335 283.407 292.729 283.998 292.202C284.34 291.902 284.825 291.767 285.223 291.567C285.95 292.53 285.466 293.207 285.053 293.763C283.664 295.631 282.275 297.521 280.736 299.267C277.318 303.16 273.806 306.975 270.337 310.825C269.063 312.237 267.624 312.387 266.385 310.989C265.658 310.169 265.195 309.078 264.768 308.044C264.469 307.324 264.789 306.626 265.295 305.998C266.37 304.672 267.367 303.274 268.443 301.948C273.45 295.745 278.464 289.542 283.5 283.36C286.52 279.653 289.568 275.967 292.602 272.273C293.557 271.111 294.504 270.883 295.708 271.788C296.741 272.565 297.666 273.528 298.514 274.505C299.184 275.275 299.112 276.209 298.493 277.029C296.947 279.068 295.387 281.107 293.813 283.125C293.115 284.023 292.36 284.886 291.612 285.742C291.356 286.041 291.064 286.412 290.722 286.505C290.345 286.612 289.803 286.555 289.504 286.334C289.312 286.191 289.298 285.564 289.44 285.264C289.675 284.758 290.095 284.344 290.444 283.888C292.161 281.699 293.87 279.496 295.615 277.243Z" fill="black"/>
<path d="M348.813 217.55C349.397 217.992 349.725 218.392 349.547 219.254C349.383 220.053 349.447 220.987 349.703 221.764C350.537 224.231 352.51 225.657 354.824 226.399C359.169 227.789 363.777 225.75 366.391 222.47C367.823 220.68 368.143 220.466 370.28 221.151C372.175 221.757 374.091 221.778 376.021 221.543C378.008 221.301 379.333 220.117 380.131 218.342C380.857 216.723 380.451 215.176 379.055 214.085C378.029 213.287 376.804 213.108 375.558 212.866C374.525 212.666 374.077 213.479 373.143 213.957C372.096 210.171 370.565 206.812 367.011 204.909C363.492 203.019 359.903 202.698 356.092 204.452C357.232 206.328 356.833 207.148 354.824 207.333C354.653 207.347 354.483 207.347 354.312 207.361C351.812 207.554 349.718 208.623 348.072 210.492C345.551 213.372 345.765 215.276 348.813 217.55Z" fill="white"/>
<path d="M346.555 219.889C346.576 221.729 346.947 223.519 348.136 225.016C352.574 230.584 360.565 230.862 364.839 227.547C366.17 226.513 367.445 225.408 368.898 224.21C369.511 224.396 370.366 224.688 371.242 224.895C374.96 225.779 378.314 225.372 381.064 222.349C385.252 217.743 382.93 212.068 377.958 211.048C376.868 210.82 375.722 210.834 374.539 210.727C373.792 209.358 373.136 207.833 372.196 206.499C369.668 202.884 365.928 201.358 361.705 200.931C359.233 200.681 356.84 201.166 354.639 202.407C353.82 202.87 353.108 203.419 353.136 204.567C349.903 205.337 347.396 206.884 345.43 209.33C343.2 212.103 343.321 215.64 345.829 218.128C346.37 218.649 346.548 219.126 346.555 219.889ZM348.086 210.485C349.725 208.617 351.819 207.547 354.326 207.355C354.497 207.341 354.668 207.348 354.839 207.326C356.854 207.141 357.246 206.321 356.106 204.446C359.917 202.699 363.507 203.013 367.025 204.902C370.579 206.813 372.111 210.171 373.158 213.95C374.091 213.472 374.539 212.66 375.572 212.859C376.819 213.094 378.044 213.273 379.069 214.078C380.465 215.169 380.871 216.717 380.145 218.335C379.347 220.11 378.022 221.301 376.035 221.536C374.105 221.772 372.189 221.75 370.294 221.144C368.151 220.46 367.837 220.674 366.405 222.463C363.784 225.743 359.183 227.782 354.839 226.392C352.517 225.65 350.544 224.224 349.71 221.757C349.447 220.98 349.39 220.046 349.554 219.248C349.732 218.392 349.411 217.986 348.82 217.544C345.765 215.276 345.551 213.373 348.086 210.485Z" fill="black"/>
<path d="M195.85 231.126C194.155 230.77 192.318 230.777 191.014 229.201C190.63 228.73 189.611 228.759 188.877 228.616C188.272 228.495 187.652 228.488 187.04 228.388C185.644 228.167 184.967 228.666 184.86 230.057C184.825 230.463 184.853 230.869 184.853 231.447C184.319 231.647 183.927 231.754 183.564 231.932C183.201 232.117 182.845 232.338 182.531 232.609C181.427 233.572 181.449 234.47 182.667 235.254C184.383 236.367 186.142 236.745 188.108 235.689C188.821 235.304 189.803 235.29 190.651 235.311C192.489 235.354 194.326 235.639 196.164 235.611C197.353 235.597 198.4 235.012 198.97 233.8C198.415 232.303 197.424 231.454 195.85 231.126Z" fill="black"/>
<path d="M196.541 229.393C194.989 229.137 193.45 228.83 192.261 227.59C191.876 227.183 191.157 226.969 190.565 226.919C189.276 226.805 187.973 226.862 186.677 226.841C184.846 226.805 183.742 227.704 183.179 229.429C183.001 229.964 182.574 230.449 182.182 230.876C181.762 231.326 181.192 231.632 180.786 232.089C179.775 233.236 179.761 235.062 180.694 236.053C182.709 238.192 185.993 238.677 188.664 237.308C189.148 237.058 189.81 236.965 190.352 237.044C191.698 237.229 193.03 237.557 194.362 237.828C196.969 237.643 198.336 237.265 199.632 236.167C201.171 234.869 201.313 233.486 200.188 231.818C199.298 230.491 198.151 229.664 196.541 229.393ZM196.171 235.604C194.333 235.632 192.496 235.347 190.658 235.304C189.803 235.283 188.828 235.297 188.108 235.682C186.142 236.737 184.39 236.359 182.667 235.247C181.449 234.463 181.42 233.557 182.524 232.602C182.83 232.338 183.187 232.11 183.557 231.925C183.913 231.739 184.312 231.632 184.846 231.44C184.846 230.862 184.818 230.456 184.853 230.049C184.96 228.666 185.637 228.16 187.033 228.381C187.638 228.481 188.265 228.488 188.87 228.609C189.611 228.752 190.622 228.723 191.007 229.194C192.31 230.769 194.148 230.762 195.843 231.119C197.417 231.447 198.414 232.295 198.97 233.778C198.407 234.998 197.36 235.589 196.171 235.604Z" fill="black"/>
<path d="M356.334 140.068C358.955 140.638 361.619 141.123 364.29 141.337C367.794 141.615 371.327 141.544 374.846 141.701C381.049 141.972 387.253 142.293 393.207 142.585C397.089 143.084 399.995 141.744 402.053 138.777C404.347 135.483 405.294 131.733 404.817 127.762C404.368 124.025 401.277 121.216 397.531 120.988C396.049 120.902 395.301 120.182 394.696 118.999C390.914 111.655 382.274 108.147 374.568 109.159C369.653 109.808 365.487 111.919 362.267 115.755C361.47 116.71 360.572 117.195 359.283 117.323C355.743 117.673 353.136 119.676 351.17 122.507C348.656 126.136 349.069 130.143 350.074 134.093C350.886 137.302 353.101 139.362 356.334 140.068ZM353.065 128.097C353.343 124.696 355.244 122.307 358.435 121.138C361.897 119.876 364.945 120.845 367.559 123.32C368.158 123.883 368.599 124.603 369.133 125.238C369.717 125.936 370.472 126.35 371.313 125.836C372.118 125.352 372.353 124.432 371.932 123.648C371.327 122.514 370.643 121.345 369.717 120.489C368.564 119.434 367.132 118.685 365.7 117.737C372.26 110.264 383.898 110.507 389.917 118.4C390.964 119.769 391.954 121.195 392.837 122.671C393.563 123.89 394.532 124.41 395.9 124.346C396.377 124.325 396.868 124.339 397.346 124.389C399.083 124.582 400.565 125.722 400.828 127.441C401.398 131.113 400.9 134.578 398.343 137.523C397.424 138.585 396.306 139.184 394.917 139.155C390.166 139.063 385.415 138.963 380.665 138.82C377.217 138.713 373.777 138.499 370.33 138.371C365.772 138.207 361.27 137.658 356.79 136.774C354.831 136.389 353.649 135.384 353.414 133.423C353.207 131.655 352.923 129.851 353.065 128.097Z" fill="black"/>
<path d="M356.797 136.774C361.27 137.658 365.779 138.207 370.337 138.371C373.785 138.492 377.225 138.713 380.672 138.82C385.423 138.97 390.173 139.07 394.924 139.155C396.313 139.184 397.431 138.578 398.35 137.515C400.907 134.57 401.406 131.105 400.836 127.433C400.572 125.715 399.084 124.581 397.346 124.382C396.869 124.325 396.377 124.31 395.9 124.339C394.532 124.41 393.564 123.883 392.837 122.663C391.954 121.187 390.964 119.761 389.917 118.392C383.898 110.5 372.26 110.257 365.7 117.729C367.125 118.685 368.564 119.433 369.718 120.489C370.644 121.337 371.327 122.514 371.933 123.647C372.353 124.432 372.118 125.351 371.313 125.836C370.473 126.342 369.718 125.936 369.134 125.237C368.599 124.603 368.158 123.883 367.559 123.319C364.946 120.845 361.897 119.875 358.436 121.138C355.245 122.3 353.343 124.695 353.065 128.096C352.923 129.85 353.208 131.654 353.421 133.423C353.656 135.376 354.839 136.381 356.797 136.774Z" fill="white"/>
<path d="M222.688 106.942C222.353 106.657 221.969 106.422 221.591 106.186C220.138 105.295 218.5 105.067 216.84 104.91C216.249 104.853 215.58 104.803 215.117 104.497C213.899 103.691 212.56 103.313 211.157 103.092C208.009 102.6 205.152 103.185 202.617 105.416C200.01 104.882 197.403 104.718 194.818 105.431C193.272 105.851 191.869 106.571 190.957 107.969C190.202 109.138 190.33 110.201 191.335 111.135C192.175 111.919 193.137 112.539 194.312 112.646C196.791 112.882 199.134 113.623 201.442 114.486C203.329 115.185 205.224 115.185 207.154 114.742C207.688 114.621 208.272 114.586 208.813 114.643C211.028 114.899 213.244 115.006 215.459 114.707C216.128 114.614 216.926 114.529 217.396 114.129C218.429 113.252 219.604 113.06 220.857 112.953C221.171 112.924 221.491 112.81 221.783 112.682C223.799 111.848 225.046 108.946 222.688 106.942ZM220.722 110.607C220.117 110.814 219.454 110.864 218.813 110.907C217.959 110.971 217.261 111.185 216.812 112.019C216.506 112.596 215.886 112.796 215.245 112.775C213.429 112.718 211.612 112.668 209.803 112.546C208.671 112.468 207.567 112.375 206.456 112.789C204.996 113.331 203.507 113.217 202.075 112.632C199.939 111.755 197.781 110.978 195.494 110.621C194.86 110.522 194.198 110.443 193.628 110.179C192.61 109.723 192.581 109.202 193.457 108.482C194.148 107.919 194.91 107.491 195.815 107.313C198.735 106.743 201.591 106.707 204.348 108.047C204.917 108.325 205.658 108.775 206.093 108.083C206.556 107.342 205.708 107.006 205.245 106.6C205.16 106.522 205.103 106.408 204.981 106.244C206.577 105.288 208.272 104.846 210.095 105.074C211.612 105.267 213.13 105.452 214.419 106.465C214.818 106.778 215.487 106.75 216.036 106.857C217.147 107.071 218.272 107.206 219.362 107.498C219.967 107.662 220.558 108.012 221.071 108.383C222.047 109.103 221.876 110.215 220.722 110.607Z" fill="black"/>
<path d="M283.799 73.2668C284.433 73.5021 285.124 73.6732 285.793 73.6946C288.742 73.7802 291.698 73.8087 294.654 73.8443C296.904 73.8729 299.205 73.331 301.32 74.5787C301.505 74.6857 301.762 74.7142 301.983 74.7071C304.881 74.6429 307.773 74.5716 310.672 74.4789C311.007 74.4646 311.399 74.4433 311.662 74.2721C313.236 73.2597 315.059 73.06 316.797 72.5823C319.183 71.9264 320.722 70.3649 321.22 67.8765C321.719 65.3739 320.344 63.4416 317.823 63.1707C317.097 63.0923 316.306 62.9996 315.615 63.1778C314.027 63.5842 312.787 63.0138 311.434 62.2723C307.189 59.9551 302.837 59.4417 298.464 61.9942C298.122 62.1939 297.787 62.4506 297.417 62.5575C297.075 62.6573 296.555 62.7572 296.349 62.5789C296.064 62.3294 295.765 61.7376 295.879 61.4452C296.128 60.7821 296.562 60.169 297.04 59.6342C297.403 59.2278 297.937 58.9854 298.621 58.5148C296.363 57.2742 294.262 56.9961 291.997 57.6235C289.119 58.4221 287.396 60.4328 286.164 62.9853C285.708 63.9265 285.152 64.7179 284.312 65.3739C283.186 66.2509 282.239 67.3061 281.748 68.7107C281.028 70.8283 281.74 72.511 283.799 73.2668Z" fill="black"/>
<path d="M280.857 74.8072C282.688 76.0906 284.725 76.5897 286.94 76.7679C291.74 77.1601 296.605 76.1405 301.356 77.4952C304.654 77.3882 307.994 77.6021 311.228 77.0888C314.084 76.6325 316.918 75.5986 319.575 74.4079C322.773 72.9748 324.134 70.0443 323.849 66.6932C323.514 62.7717 322.097 61.2601 319.39 60.8965C317.958 60.704 316.448 60.8181 315.003 61.0177C314.226 61.1247 313.706 61.0534 313.186 60.5043C312.011 59.2566 310.508 58.6363 308.856 58.2798C306.277 57.7236 303.692 57.4955 301.099 57.8449C298.094 54.8502 293.186 54.1729 289.162 56.0481C286.748 57.1746 285.202 59.0783 284.027 61.3314C283.478 62.3795 282.802 63.228 281.833 63.8626C280.458 64.7681 279.532 66.0444 278.856 67.5274C277.681 70.08 278.55 73.1958 280.857 74.8072ZM281.755 68.7395C282.246 67.3278 283.193 66.2797 284.319 65.4027C285.159 64.7467 285.715 63.9624 286.171 63.0141C287.396 60.4616 289.127 58.4509 292.004 57.6523C294.269 57.0249 296.377 57.303 298.628 58.5436C297.944 59.0142 297.41 59.2566 297.047 59.663C296.57 60.1978 296.135 60.8181 295.886 61.474C295.779 61.7664 296.071 62.3582 296.356 62.6077C296.555 62.786 297.082 62.6861 297.424 62.5863C297.795 62.4722 298.129 62.2227 298.471 62.023C302.852 59.4634 307.196 59.9839 311.441 62.3011C312.787 63.0355 314.034 63.613 315.622 63.2066C316.313 63.0284 317.097 63.1211 317.83 63.1995C320.344 63.4633 321.726 65.4027 321.228 67.9053C320.729 70.3937 319.191 71.9552 316.805 72.604C315.06 73.0817 313.236 73.2813 311.669 74.2938C311.406 74.4649 311.014 74.4863 310.679 74.5006C307.78 74.5861 304.889 74.6574 301.99 74.7287C301.769 74.7359 301.513 74.7073 301.327 74.6004C299.212 73.3455 296.904 73.8945 294.661 73.866C291.705 73.8304 288.756 73.8018 285.8 73.7163C285.131 73.6949 284.44 73.5238 283.806 73.2885C281.74 72.5113 281.028 70.8286 281.755 68.7395Z" fill="black"/>
<path d="M434.689 197.08C433.599 196.838 433.058 196.132 432.852 195.084C432.552 193.572 431.562 192.731 430.145 192.31C429.654 192.168 429.169 191.947 428.671 191.904C426.413 191.683 424.155 191.39 421.89 191.362C420.487 191.34 419.091 191.968 418.55 193.351C418.008 194.734 417.175 195.768 416.121 196.752C415.209 197.608 415.28 198.321 416.128 199.283C416.926 200.182 417.987 200.667 419.134 200.709C420.772 200.774 422.417 200.631 424.055 200.581C424.732 200.56 425.416 200.453 426.078 200.545C427.46 200.745 428.827 201.059 429.91 201.273C431.676 201.059 433.094 200.966 434.483 200.695C435.494 200.503 436.021 199.59 436.057 198.528C436.085 197.551 435.444 197.251 434.689 197.08Z" fill="black"/>
<path d="M435.821 194.949C435.657 194.899 435.508 194.834 435.308 194.763C434.731 192.624 433.521 190.97 431.398 190.136C429.347 189.33 427.189 189.266 425.024 189.259C424.183 189.252 423.336 189.316 422.509 189.195C420.031 188.824 417.167 190.207 416.298 192.446C415.928 193.408 415.358 194.05 414.596 194.685C412.395 196.517 412.21 198.713 413.948 200.995C414.817 202.136 415.971 202.813 417.353 203.12C419.489 203.597 421.633 203.64 423.798 203.291C424.404 203.191 425.038 203.134 425.65 203.184C426.89 203.291 428.115 203.59 429.347 203.612C431.619 203.64 433.912 203.626 436.085 202.799C437.908 202.107 438.927 200.503 438.834 198.521C438.756 196.496 437.972 195.576 435.821 194.949ZM434.475 200.695C433.086 200.966 431.669 201.059 429.902 201.273C428.827 201.066 427.459 200.752 426.071 200.546C425.415 200.446 424.724 200.56 424.048 200.581C422.41 200.631 420.764 200.774 419.126 200.71C417.979 200.667 416.911 200.182 416.12 199.284C415.273 198.321 415.202 197.608 416.113 196.752C417.167 195.769 417.994 194.728 418.542 193.351C419.09 191.968 420.479 191.341 421.883 191.362C424.147 191.398 426.405 191.683 428.663 191.904C429.162 191.954 429.653 192.168 430.137 192.318C431.555 192.738 432.545 193.587 432.844 195.091C433.051 196.139 433.592 196.838 434.682 197.088C435.437 197.259 436.085 197.558 436.049 198.535C436.014 199.59 435.486 200.503 434.475 200.695Z" fill="black"/>
<path d="M149.853 185.187C151.712 185.664 153.657 186.014 155.566 186.064C160.516 186.185 165.466 186.107 170.423 186.107C170.423 186.071 170.423 186.035 170.423 185.992C173.721 185.992 177.026 186 180.323 185.992C182.204 185.985 184.084 185.978 185.957 185.95C188.792 185.907 191.15 184.873 192.902 182.57C195.801 178.763 194.661 174.043 190.053 172.517C189.675 172.396 189.234 172.395 188.913 172.196C188.514 171.953 188.115 171.618 187.866 171.226C187.097 170.043 186.534 168.702 185.658 167.611C183.372 164.788 180.601 162.528 177.14 161.266C175.231 160.567 173.244 160.303 171.292 160.995C168.821 161.879 166.47 163.048 164.405 164.695C163.778 165.194 163.222 165.394 162.403 165.258C159.426 164.752 156.641 165.508 153.977 166.77C150.217 168.552 148.123 171.74 146.869 175.533C146.392 176.973 146.05 178.513 146.007 180.025C145.922 182.706 147.289 184.531 149.853 185.187ZM149.782 176.923C150.715 173.928 152.118 171.262 154.953 169.558C157.859 167.818 160.957 167.362 164.127 168.36C165.295 168.724 166.249 169.807 167.261 170.62C167.695 170.969 167.98 171.504 168.407 171.868C168.92 172.303 169.519 172.474 170.095 171.939C170.608 171.461 170.558 170.884 170.188 170.399C169.433 169.415 168.635 168.453 167.795 167.547C167.382 167.105 166.826 166.791 166.313 166.399C170.444 162.898 175.63 162.563 179.754 165.494C181.306 166.592 182.752 167.775 183.778 169.372C184.355 170.271 184.818 171.255 185.181 172.253C185.601 173.408 186.264 174.228 187.481 174.534C187.923 174.649 188.372 174.748 188.792 174.92C190.031 175.426 191.207 176.01 191.328 177.586C191.463 179.426 191 180.973 189.219 181.878C187.823 182.584 186.356 182.962 184.782 182.948C183.358 182.934 181.94 182.912 180.516 182.919C172.382 182.919 164.248 182.976 156.114 182.905C154.433 182.891 152.731 182.499 151.078 182.121C149.761 181.821 149.269 181.123 149.312 179.775C149.341 178.813 149.497 177.836 149.782 176.923Z" fill="black"/>
<path d="M151.078 182.113C152.731 182.491 154.433 182.883 156.114 182.897C164.248 182.969 172.382 182.919 180.516 182.912C181.94 182.912 183.357 182.933 184.782 182.94C186.349 182.954 187.823 182.577 189.219 181.871C191 180.972 191.47 179.418 191.327 177.578C191.206 176.003 190.031 175.418 188.792 174.912C188.372 174.741 187.923 174.641 187.481 174.534C186.256 174.227 185.601 173.407 185.181 172.245C184.818 171.247 184.355 170.256 183.778 169.365C182.752 167.767 181.299 166.584 179.753 165.486C175.622 162.563 170.437 162.898 166.313 166.391C166.826 166.784 167.382 167.09 167.795 167.539C168.635 168.452 169.433 169.407 170.188 170.391C170.558 170.876 170.608 171.461 170.095 171.931C169.518 172.466 168.913 172.295 168.407 171.86C167.98 171.496 167.695 170.962 167.261 170.612C166.249 169.8 165.295 168.716 164.127 168.352C160.95 167.354 157.859 167.81 154.953 169.55C152.118 171.247 150.715 173.921 149.782 176.915C149.497 177.828 149.34 178.805 149.312 179.753C149.269 181.115 149.761 181.814 151.078 182.113Z" fill="white"/>
<path d="M321.883 493.632C324.561 487.7 327.609 482.146 329.24 476C330.23 472.264 331.192 468.513 332.025 464.734C333.108 459.829 333.614 454.838 333.891 449.826C334.055 446.867 334.283 443.908 334.247 440.949C334.176 435.423 333.963 429.897 333.742 424.371C333.549 419.537 333.286 414.703 333.022 409.869C332.695 403.723 332.438 397.57 331.961 391.438C331.463 385.021 330.736 378.618 330.131 372.208C329.839 369.157 329.596 366.098 329.312 362.875C324.789 361.998 322.944 358.212 320.829 354.483C320.166 356.472 319.376 358.133 318.094 359.574C315.565 362.404 311.156 361.057 309.938 358.547C308.5 355.588 306.826 352.708 306.185 349.413C306.099 348.964 306.071 348.487 305.864 348.094C305.679 347.738 305.323 347.274 304.981 347.217C302.88 346.875 300.914 346.212 299.148 345C298.094 345.72 297.723 346.447 298.051 347.759C299.098 351.916 299.582 356.144 299.347 360.458C299.141 364.272 297.716 367.417 294.725 369.777C294.005 370.34 293.72 370.925 293.834 371.802C294.191 374.625 294.554 377.449 294.846 380.286C294.96 381.406 295.394 382.169 296.413 382.689C297.047 383.01 297.695 383.474 297.438 384.393C296.114 384.5 295.871 384.422 294.24 383.523C291.748 382.147 289.24 380.821 286.427 380.165C285.451 379.937 284.732 380.115 283.948 380.786C282.659 381.891 281.27 382.91 279.817 383.78C279.084 384.222 278.115 384.372 277.232 384.45C274.938 384.65 273.208 383.367 271.619 381.962C270.302 380.793 269.141 379.445 267.909 378.19C267.574 377.848 267.211 377.527 266.819 377.156C265.651 378.262 265.33 379.588 265.444 380.857C265.651 383.11 265.829 385.449 266.57 387.559C268.236 392.336 270.174 397.028 272.118 401.705C275.622 410.133 279.632 418.311 284.418 426.09C285.693 428.157 287.26 430.04 288.813 432.172C290.124 431.409 291.285 430.71 292.46 430.054C293.713 429.355 294.169 428.293 294.012 426.917C293.777 424.821 293.635 422.71 293.279 420.642C292.78 417.783 292.225 414.924 291.491 412.122C290.836 409.612 290.302 407.038 288.621 404.878C288.03 404.115 287.581 403.017 288.215 401.605C288.934 402.254 289.518 402.753 290.06 403.295C290.665 403.894 291.156 404.628 291.826 405.127C293.699 406.511 295.608 407.858 297.567 409.127C299.767 410.546 302.068 411.808 304.262 413.241C307.495 415.345 310.067 417.961 310.978 421.919C311.548 424.407 312.396 426.838 313.008 429.32C314.084 433.705 314.739 438.161 314.668 442.681C314.611 446.439 314.397 450.196 314.326 453.961C314.191 461.027 313.92 468.093 314.547 475.151C314.967 479.857 315.202 484.584 316.199 489.226C316.612 491.165 317.559 492.57 319.596 493.041C320.323 493.205 321.028 493.411 321.883 493.632Z" fill="black"/>
<path d="M264.917 288.6C267.795 288.265 270.608 287.958 273.421 287.609C274.996 287.409 276.57 287.188 278.129 286.903C279.276 286.689 279.504 285.933 278.678 285.128C278.279 284.743 277.78 284.35 277.268 284.222C276.064 283.923 274.832 283.737 273.6 283.573C272.154 283.381 270.679 283.324 269.241 283.096C268.144 282.924 267.068 282.575 266.007 282.318C264.725 284.272 263.293 286.083 264.917 288.6ZM226.897 350.645C227.588 350.232 227.887 350.075 228.158 349.882C230.423 348.228 232.866 346.988 235.637 346.367C237.033 346.054 238.365 345.426 240.003 344.834C238.414 343.43 236.876 342.966 235.209 343.373C233.578 343.765 231.862 343.907 230.38 344.841C229.924 345.127 229.305 345.169 228.749 345.276C227.054 345.59 226.734 345.833 226.62 347.529C226.555 348.442 226.776 349.383 226.897 350.645Z" fill="black"/>
<path d="M293.179 290.527C292.282 289.4 291.534 288.338 290.658 287.389C289.953 286.627 288.963 286.477 287.966 286.726C286.128 287.176 285.594 288.623 286.84 290.042C287.73 291.054 288.82 291.889 289.803 292.794C290.907 292.06 291.883 291.397 293.179 290.527ZM260.06 351.46C257.253 349.15 254.654 348.358 252.958 349.264C253.728 349.934 254.582 350.519 255.216 351.289C255.843 352.044 256.242 352.979 256.769 353.898C257.894 353.064 258.934 352.294 260.06 351.46Z" fill="white"/>
<path d="M225.523 339.751C228.044 339.922 230.031 338.916 232.04 337.975C232.902 337.569 233.222 336.956 233.179 335.943C233.009 332.186 232.966 328.428 232.838 324.671C232.595 317.562 233.536 310.553 234.768 303.594C235.751 298.054 237.111 292.571 238.415 287.095C239.476 282.639 241.235 278.447 243.521 274.468C244.818 272.215 246.52 270.333 248.443 268.607C252.773 264.736 257.909 262.126 262.973 259.417C264.903 258.383 266.897 257.47 268.863 256.508C266.548 252.9 264.312 249.427 261.976 245.791C261.833 246.511 261.691 247.06 261.627 247.609C261.427 249.356 260.501 250.369 258.771 250.768C256.826 251.217 254.896 251.481 252.887 251.609C248.365 251.894 243.906 251.402 239.44 250.903C236.028 250.518 232.781 249.534 229.554 248.08C229.226 249.463 228.927 250.732 228.614 251.994C227.239 257.52 225.772 263.024 224.49 268.564C223.308 273.684 222.638 278.882 222.46 284.136C222.382 286.297 222.189 288.457 222.047 290.618C221.776 294.881 221.342 299.145 221.271 303.416C221.135 311.23 221.734 319.016 222.766 326.767C223.35 331.137 224.419 335.387 225.523 339.751ZM285.053 264.087C285.273 263.83 285.516 263.595 285.715 263.324C288.5 259.445 291.399 255.631 294.027 251.645C295.679 249.142 296.976 246.397 298.35 243.716C299.105 242.24 299.29 240.479 298.671 239.06C297.31 235.937 295.857 233.692 291.605 233.67C289.796 233.663 287.973 233.841 286.171 234.048C281.641 234.569 277.325 235.923 272.98 237.356C273.956 242.383 274.782 247.367 277.125 251.98C278.714 250.14 280.558 248.736 282.588 247.574C282.98 247.346 283.365 247.075 283.792 246.946C284.063 246.868 284.547 246.911 284.682 247.089C284.832 247.288 284.796 247.773 284.647 248.009C284.347 248.479 283.913 248.871 283.528 249.285C281.783 251.139 280.031 252.985 278.343 254.768C279.775 258.019 283.037 262.525 285.053 264.087ZM272.667 261.827C269.212 266.611 266.356 271.481 264.846 277.042C264.704 277.563 264.718 278.126 264.64 278.782C267.346 279.53 269.896 280.243 272.61 280.999C274.526 278.354 276.37 275.794 278.172 273.313C277.026 270.974 276.014 268.828 276.057 266.347C276.064 266.055 275.793 265.734 275.587 265.477C274.682 264.315 273.749 263.174 272.667 261.827Z" fill="black"/>
<path d="M288.621 137.324C286.093 137.281 283.828 138.208 281.669 139.085C276.306 141.252 270.858 143.284 265.929 146.407C263.051 148.233 260.637 150.514 258.842 153.445C256.491 157.288 254.454 161.252 252.759 165.444C250.872 170.1 249.17 174.792 247.845 179.626C246.655 183.961 245.644 188.353 244.476 192.695C243.044 198.029 241.499 203.333 240.053 208.66C238.977 212.617 238.137 216.645 236.883 220.545C235.487 224.873 233.635 229.059 232.182 233.372C231.078 236.652 230.238 240.032 229.405 243.397C229.056 244.809 229.248 245.115 230.594 245.622C232.98 246.527 235.373 247.475 237.845 248.081C243.201 249.408 248.678 249.379 254.148 249.137C255.11 249.094 256.064 248.901 257.011 248.745C258.479 248.502 259.575 247.903 259.561 246.149C259.561 245.593 259.889 245.044 259.924 244.488C260.003 243.09 260.523 241.693 259.974 240.281C259.312 238.584 258.657 236.887 258.037 235.176C255.679 228.673 254.476 221.879 253.194 215.112C253.101 214.62 252.887 214.014 253.578 213.629C254.611 215.511 255.067 217.486 255.523 219.49C256.783 224.98 258.08 230.463 260.038 235.768C261.798 240.538 263.742 245.222 266.548 249.465C269.348 253.693 272.346 257.785 275.288 261.914C276.036 262.962 276.912 263.91 277.816 265.015C278.949 263.988 279.939 263.09 280.936 262.185C280.216 261.208 279.504 260.388 278.956 259.475C277.061 256.345 275.644 252.994 274.305 249.6C272.788 245.75 272.204 241.679 271.377 237.672C270.779 234.777 270.423 231.825 269.732 228.952C268.571 224.125 267.603 219.269 267.296 214.307C267.018 209.765 266.199 205.387 263.913 201.373C263.486 200.617 262.994 200.018 262.303 199.462C259.312 197.066 257.759 193.936 258.122 190.05C258.229 188.902 258.386 187.847 257.93 186.72C257.688 186.129 257.773 185.373 257.845 184.703C258.066 182.778 258.471 180.874 258.593 178.949C258.82 175.291 260.964 173.238 264.212 171.869C264.283 171.312 264.397 170.699 264.433 170.079C264.597 166.885 265.031 163.726 265.914 160.66C267.004 156.881 268.927 153.58 272.481 151.662C277.481 148.967 282.595 146.479 287.674 143.912C288.215 143.641 288.813 143.477 289.447 143.242C289.298 141.195 289.511 139.192 288.621 137.324Z" fill="white"/>
<path d="M285.964 445.283C286.819 444.628 287.531 444.164 288.151 443.594C290.964 441.027 293.749 438.439 296.534 435.843C298.82 433.711 298.77 433.034 296.22 431.173C295.829 430.881 295.359 430.695 294.86 430.432C293.101 432.15 291.114 433.319 288.877 434.061C288.671 434.132 288.428 434.225 288.3 434.389C286.847 436.143 285.28 437.861 284.796 440.157C284.433 441.89 284.554 443.629 285.964 445.283ZM321.698 496.755C319.896 495.942 318.193 495.201 316.52 494.402C315.544 493.939 314.547 493.432 314.611 492.078C314.618 491.935 314.511 491.728 314.397 491.643C312.873 490.538 311.256 489.696 309.262 489.939C308.955 491.194 309.361 492.064 310.181 492.784C311.541 493.982 312.859 495.244 314.297 496.334C315.907 497.554 317.631 498.616 319.255 499.714C320.572 498.858 321.512 498.017 321.698 496.755Z" fill="white"/>
<path d="M257.681 356.828C258.949 359.352 260.167 361.798 261.413 364.229C263.785 368.857 266.499 373.27 269.981 377.156C271.534 378.889 273.13 380.607 275.273 381.677C276.855 382.461 278.236 382.411 279.718 381.327C283.315 378.682 286.491 375.602 289.59 372.407C290.979 370.974 292.14 369.548 292.026 367.424C292.011 367.153 292.061 366.825 292.211 366.604C292.403 366.318 292.724 366.119 293.087 365.791C293.4 366.383 293.614 366.789 293.87 367.267C296.271 365.285 297.075 362.732 297.083 359.901C297.09 357.399 296.983 354.882 296.776 352.386C296.634 350.654 296.242 348.943 295.929 346.982C295.259 347.324 294.761 347.538 294.305 347.83C291.62 349.542 289.497 351.809 287.645 354.376C285.345 357.563 283.03 360.736 280.672 363.88C280.031 364.736 279.226 365.498 278.414 366.197C276.641 367.723 274.924 367.588 273.315 365.862C273.009 365.527 272.731 365.163 272.439 364.814C270.273 362.169 268.108 359.524 265.943 356.885C264.846 355.545 263.55 354.468 261.976 353.762C260.281 354.533 258.528 355.131 257.681 356.828ZM329.063 360.294C328.906 357.499 328.671 354.896 328.628 352.287C328.521 345.941 327.837 339.688 326.299 333.506C325.174 328.986 323.6 324.693 321.035 320.793C320.708 320.287 320.345 319.802 320.003 319.31C319.882 319.788 319.981 320.159 320.131 320.508C320.986 322.526 321.449 324.636 321.527 326.811C321.669 330.633 321.384 334.426 320.587 338.183C320.224 339.895 319.889 341.684 320.017 343.403C320.202 345.884 320.829 348.337 321.271 350.804C321.313 351.025 321.356 351.26 321.477 351.445C322.887 353.648 324.276 355.873 325.743 358.033C326.484 359.146 327.56 359.887 329.063 360.294ZM317.951 316.415C317.524 315.802 317.296 315.417 317.026 315.082C314.383 311.888 311.733 308.701 308.756 305.792C305.993 303.089 303.343 300.266 300.708 297.45C299.013 295.639 297.41 293.728 295.694 291.781C294.248 292.394 292.581 292.815 291.499 294.241C294.825 301.164 298.165 307.995 302.781 314.127C308.4 310.726 313.151 312.808 317.951 316.415Z" fill="white"/>
</g>
<defs>
<clipPath id="clip0">
<rect width="292.848" height="480" fill="white" transform="translate(146 55)"/>
</clipPath>
</defs>
</svg>
