<svg width="130" height="102" viewBox="0 0 130 102" fill="none" xmlns="http://www.w3.org/2000/svg">
<path d="M93.9686 70.5832L53.0789 73.9615C53.4483 77.4605 56.7737 80.115 60.4686 79.8736L94.5844 76.9779C96.1855 79.753 99.3877 81.5628 102.959 81.2008C107.763 80.8389 111.211 76.8572 110.842 72.2723C110.472 67.8081 106.162 64.4298 101.482 64.7918C97.9098 65.2744 95.0771 67.5668 93.9686 70.5832ZM106.285 72.755C106.531 74.8061 104.807 76.616 102.713 76.8573C101.358 76.9779 100.004 76.3746 99.2645 75.4094C98.7719 74.8061 98.5256 74.2028 98.4025 73.3582C98.2793 72.6343 98.5256 71.9104 98.8951 71.1865C99.5109 70.1006 100.619 69.3766 102.097 69.256C104.068 69.1353 106.038 70.7038 106.285 72.755Z" fill="#124923"/>
<path d="M88.549 23.769C86.5784 20.3907 86.7015 16.5297 88.9184 12.6688C90.889 9.29043 94.2143 6.3947 98.6481 4.10226C103.328 1.68916 108.994 0.24131 114.905 0L115.029 3.01637C109.61 3.25768 104.437 4.58486 100.126 6.75665C96.3081 8.68712 93.3522 11.3415 91.7511 14.1166C90.0269 17.0123 89.9037 19.9081 91.3817 22.3212L88.549 23.769Z" fill="white"/>
<path d="M108.505 20.4069C108.427 18.3008 107.249 16.3902 105.403 15.3738L80.5441 1.68896C78.6966 0.723717 76.4797 0.723717 74.6322 1.68896L3.44479 42.4704C0.735231 44.0389 -0.126871 47.2965 1.47423 49.9509L27.7077 90.6117C29.3088 93.1454 32.8805 93.99 35.59 92.4215L106.777 51.6401C108.625 50.6749 109.61 48.7444 109.487 46.8139L108.505 20.4069ZM86.2095 30.0428C83.7462 27.0265 84.8547 22.6829 88.5496 20.9938C91.2591 19.7872 94.5845 20.5111 96.3087 22.8035C98.772 25.8199 97.6635 30.1635 93.9687 31.8527C91.2591 33.0592 87.9337 32.3353 86.2095 30.0428Z" fill="#00B000"/>
<path d="M100.619 29.5605C95.0771 29.5605 90.7665 27.5093 88.5496 23.769L91.3823 22.3211C92.3676 24.0103 95.0771 26.7854 101.358 26.5441C105.423 26.4234 109.733 24.9755 113.551 22.6831C117.739 20.1493 124.143 10.3763 126.114 6.39465L129.07 7.6012C126.853 13.8753 120.079 22.3211 115.276 25.2168C110.965 27.8712 106.039 29.4398 101.482 29.5605C101.112 29.5605 100.866 29.5605 100.619 29.5605Z" fill="white"/>
<path d="M67.242 67.6872C66.9956 67.6872 66.7493 67.5666 66.6262 67.3253L64.1629 63.8263C63.9166 63.4643 64.0398 63.1024 64.4093 62.861C64.7787 62.6197 65.2714 62.7404 65.3945 63.1024L67.8578 66.6014C68.1041 66.9634 67.981 67.3253 67.6115 67.5666C67.4884 67.6873 67.3651 67.6872 67.242 67.6872ZM62.3155 60.6893C62.0692 60.6893 61.8229 60.5686 61.6997 60.3273L59.2365 56.8283C58.9901 56.4663 59.1133 56.1044 59.4828 55.8631C59.8523 55.6218 60.3449 55.7424 60.4681 56.1044L62.9313 59.6033C63.1776 59.9653 63.0545 60.3273 62.685 60.5686C62.5619 60.5686 62.4387 60.6893 62.3155 60.6893ZM57.389 53.5706C57.1427 53.5706 56.8964 53.45 56.7732 53.2086L54.31 49.7097C54.0637 49.3477 54.1868 48.9857 54.5563 48.7444C54.9258 48.5031 55.4184 48.6238 55.5416 48.9857L58.0048 52.4847C58.2512 52.8467 58.1281 53.2087 57.7586 53.45C57.6354 53.5706 57.5122 53.5706 57.389 53.5706ZM52.4626 46.452C52.2162 46.452 51.9699 46.3314 51.8468 46.09L49.3835 42.591C49.1372 42.2291 49.2604 41.8671 49.6299 41.6258C49.9993 41.3845 50.492 41.5052 50.6151 41.8671L53.0784 45.3661C53.3247 45.728 53.2016 46.09 52.8321 46.3313C52.7089 46.452 52.5857 46.452 52.4626 46.452ZM47.413 39.454C47.1666 39.454 46.9203 39.3333 46.7971 39.092L44.3339 35.593C44.0876 35.2311 44.2108 34.8691 44.5803 34.6278C44.9497 34.3865 45.4424 34.5071 45.5655 34.8691L48.0288 38.3681C48.2751 38.7301 48.1519 39.092 47.7824 39.3333C47.7824 39.454 47.6593 39.454 47.413 39.454ZM42.4865 32.3353C42.2402 32.3353 41.9938 32.2147 41.8707 31.9734L39.4074 28.4744C39.1611 28.1124 39.2843 27.7505 39.6538 27.5091C40.0233 27.2678 40.5159 27.3885 40.6391 27.7505L43.1023 31.2494C43.3486 31.6114 43.2254 31.9734 42.856 32.2147C42.856 32.3354 42.7328 32.3353 42.4865 32.3353Z" fill="white"/>
<path d="M83.8694 96.2826C85.9632 100.385 91.136 102.195 95.4467 100.264C99.7573 98.3338 101.605 93.5076 99.6342 89.4053C98.1563 86.3889 94.8308 84.5791 91.5055 84.6998L76.9724 55.5013C75.3713 52.2436 71.3069 50.9163 67.8584 52.3642L85.2243 87.4748C83.0073 89.7673 82.3915 93.2663 83.8694 96.2826ZM88.1801 94.4728C87.5643 93.2663 87.6875 91.939 88.4264 90.9738C88.7959 90.3705 89.4118 89.888 90.1507 89.526C90.8897 89.164 91.6286 89.164 92.4908 89.164C93.7224 89.2846 94.954 90.1293 95.5698 91.3358C96.5551 93.2663 95.693 95.438 93.5992 96.4033C91.5055 97.1272 89.1654 96.4033 88.1801 94.4728Z" fill="#124923"/>
<path d="M82.7617 75.8917C83.4419 75.8917 83.9933 75.3515 83.9933 74.6851C83.9933 74.0188 83.4419 73.4786 82.7617 73.4786C82.0814 73.4786 81.53 74.0188 81.53 74.6851C81.53 75.3515 82.0814 75.8917 82.7617 75.8917Z" fill="#CEEBF0"/>
</svg>
