<svg xmlns="http://www.w3.org/2000/svg" width="129" height="123" viewBox="0 0 129 123" fill="none">
<path fill-rule="evenodd" clip-rule="evenodd" d="M82.7045 21.0749C85.1558 21.0749 87.1401 22.9895 87.1401 25.3546L87.4903 97.547C87.4903 99.9121 85.5059 101.827 83.0547 101.939L48.3871 102.052C45.9358 102.052 43.9515 100.137 43.9515 97.7722L43.6013 25.5799C43.6013 23.2148 45.5856 21.3001 48.0369 21.1875L82.7045 21.0749Z" fill="#383837"/>
<path d="M65.6627 99.9124C67.5322 99.9124 69.0477 98.4501 69.0477 96.6463C69.0477 94.8424 67.5322 93.3802 65.6627 93.3802C63.7931 93.3802 62.2776 94.8424 62.2776 96.6463C62.2776 98.4501 63.7931 99.9124 65.6627 99.9124Z" fill="black"/>
<path fill-rule="evenodd" clip-rule="evenodd" d="M57.9587 25.017C57.9587 24.6791 58.1922 24.4539 58.5424 24.4539H68.5807C68.9309 24.4539 69.1644 24.6791 69.1644 25.017C69.1644 25.3549 68.9309 25.5801 68.5807 25.5801H58.5424C58.1922 25.5801 57.9587 25.3549 57.9587 25.017Z" fill="black"/>
<path fill-rule="evenodd" clip-rule="evenodd" d="M70.4487 25.017C70.4487 24.6791 70.6822 24.4539 71.0324 24.4539H72.1996C72.5498 24.4539 72.7833 24.6791 72.7833 25.017C72.7833 25.3549 72.5498 25.5801 72.1996 25.5801H71.0324C70.6822 25.4675 70.4487 25.2422 70.4487 25.017Z" fill="black"/>
<path fill-rule="evenodd" clip-rule="evenodd" d="M84.3388 27.6071L46.4028 27.7197L46.6363 90.9021L84.6889 90.6769L84.3388 27.6071Z" fill="#ECF6FF"/>
<path d="M77.2182 39.9961V49.344C77.2182 50.9207 75.9342 52.1596 74.4168 52.1596L62.1606 52.2722L61.6937 53.0606L60.7598 54.5247C60.2929 55.2005 59.2424 55.2005 58.7755 54.5247L57.8417 53.0606L57.3748 52.2722H54.6901C53.1727 52.2722 51.8887 51.0334 51.772 49.5692V40.2214C51.772 38.7573 53.056 37.5184 54.5734 37.4058L74.1833 37.2932C75.9342 37.2932 77.2182 38.532 77.2182 39.9961Z" fill="#70CA51"/>
<path d="M54.3406 67.4761V76.8239C54.3406 78.4007 55.6246 79.5269 57.2587 79.5269L69.5149 79.4143L69.9819 80.2027L70.9156 81.6668C71.3826 82.3425 72.4331 82.3425 72.9 81.6668L73.7171 80.2027L74.184 79.4143H76.8687C78.3861 79.4143 79.6701 78.1754 79.6701 76.5987V67.2508C79.6701 65.7867 78.3861 64.5479 76.7519 64.5479L57.142 64.6605C55.6246 64.7731 54.3406 66.012 54.3406 67.4761Z" fill="#A5CDF5"/>
<path opacity="0.1" fill-rule="evenodd" clip-rule="evenodd" d="M87.1401 25.4664V29.5209L43.7181 60.2674L43.6013 25.6917C43.6013 23.3266 45.5856 21.412 48.0369 21.412L82.7045 21.2993C85.1558 21.0741 87.1401 22.9887 87.1401 25.4664Z" fill="white"/>
<path fill-rule="evenodd" clip-rule="evenodd" d="M37.6479 103.291L27.3761 111.4C21.423 107.345 16.2871 102.277 12.085 96.5335L20.3725 89.6634C20.8394 89.3255 21.3063 88.875 21.6565 88.5371C27.6095 95.0694 34.4963 100.813 37.6479 103.291Z" fill="#B77A46"/>
<path fill-rule="evenodd" clip-rule="evenodd" d="M43.7177 68.152L43.8344 99.7995H41.8501L37.4145 103.291C34.2629 100.813 27.4928 95.0693 21.4231 88.5371C26.7925 83.6942 31.1114 77.7251 33.796 71.0803C34.4964 69.3909 34.8466 67.5889 34.8466 65.6743L34.7298 45.7397C34.7298 45.7397 41.1497 44.163 43.2508 48.5553C45.5853 52.9477 43.7177 68.152 43.7177 68.152Z" fill="#CE905F"/>
<path fill-rule="evenodd" clip-rule="evenodd" d="M37.5308 114.553L35.5465 116.355C24.3408 110.837 14.8859 102.277 8.69946 91.6905L15.0027 85.7214C15.703 85.0456 16.7535 84.7077 17.6874 84.8204C18.7379 84.933 19.555 85.3835 20.1386 86.1718L37.7643 110.161C39.0482 111.512 38.8148 113.427 37.5308 114.553Z" fill="#0E491F"/>
<path d="M118.849 83.8408C118.721 83.5905 118.593 83.4029 118.464 83.2152C117.63 81.6512 115.898 80.5252 113.974 80.5252C112.498 80.5252 111.215 81.0882 110.253 82.0266C110.06 82.2143 109.675 82.2143 109.483 82.0266C108.585 81.0882 107.237 80.4626 105.762 80.4626C104.286 80.4626 103.003 81.0257 102.041 81.964C101.849 82.1517 101.464 82.1517 101.271 81.964C100.373 81.0257 99.0258 80.4001 97.5503 80.4001C96.0748 80.4001 94.7276 80.9631 93.7653 81.964C93.637 82.0891 93.3803 82.1517 93.1879 82.0892C87.4782 80.0247 82.7309 75.7707 80.2289 70.0779C79.1383 67.6381 76.2514 66.5121 73.7494 67.6382C71.3757 68.7017 70.4134 71.5793 71.4398 73.9566C74.1984 80.1498 78.7533 85.0919 84.3988 88.4075C84.5913 88.5327 84.7838 88.7829 84.7838 89.0331C85.3612 97.6036 89.2104 97.0406 84.1422 99.7932C83.8856 99.9183 83.5648 99.9809 83.2441 99.9183C81.3195 99.4804 79.3307 99.3553 77.342 99.4804C74.7117 99.6681 72.5305 101.92 72.7229 104.485C72.9154 107.113 75.2891 109.114 77.9835 108.864C80.6138 108.614 83.3082 109.427 85.297 111.116C85.4253 111.241 85.6178 111.367 85.7461 111.429C85.9385 111.617 86.131 111.742 86.3234 111.867C89.9802 114.244 94.3426 115.62 99.09 115.558C111.343 115.433 121.287 105.486 121.095 93.5373C121.223 89.9715 120.389 86.7185 118.849 83.8408Z" fill="#CE905F"/>
</svg>