<svg width="94" height="100" viewBox="0 0 94 100" fill="none" xmlns="http://www.w3.org/2000/svg">
<path d="M53.2219 12.4379C53.2219 12.9354 53.2219 13.5573 53.2219 14.0548C53.0931 16.6667 52.0628 19.0299 50.3885 20.7712C48.3279 21.8906 46.1385 22.5125 43.6915 22.6369C43.1763 22.6369 42.6611 22.6369 42.1459 22.6369C40.7292 22.5125 39.4413 22.2638 38.1534 21.8906L43.8203 14.801C43.8203 14.801 43.8202 14.801 43.949 14.801C46.5248 14.9254 48.8431 14.4279 51.0325 13.5573C51.8052 13.3085 52.5779 12.9354 53.2219 12.4379Z" fill="#278D00"/>
<path d="M91.2166 53.9802C87.4817 54.3533 83.8756 52.4876 82.2013 49.2538C78.5952 42.2886 72.0269 36.9403 64.1707 34.8259L61.3373 29.1046C60.8222 28.1095 59.5343 27.8608 58.7615 28.7314L53.4812 33.9553C53.2236 33.9553 33.261 33.9553 33.261 33.9553C25.4048 33.9553 18.1926 37.0648 13.041 42.0399C10.0788 44.9006 7.76067 48.2588 6.34398 52.1145C5.82882 51.7413 5.44238 51.4926 5.31359 51.1195L5.05608 50.7464C4.54091 50.0001 3.63932 49.5025 2.73779 49.6269C1.44989 49.7513 0.677145 50.8707 0.805935 52.1145C0.934725 52.9851 1.19227 53.7314 1.57865 54.4777C1.96502 55.224 2.48015 55.8459 2.99531 56.3434C3.63926 56.9653 4.28321 57.4627 4.92716 57.9603C4.79837 59.0797 4.66964 60.3234 4.66964 61.5672C4.66964 70.0249 8.66217 77.6119 14.8441 82.7114C19.7381 86.6915 22.829 92.413 23.473 98.6319C23.6018 99.3781 24.2458 100 25.0186 100H34.2914C35.0641 100 35.8368 99.3781 35.8368 98.6319L36.8672 89.3035H53.0947L54.1251 98.6319C54.2539 99.3781 54.8978 100 55.6705 100H64.9435C65.7163 100 66.4889 99.3781 66.4889 98.6319C67.1329 92.413 70.2238 86.6915 75.1178 82.7114C75.7618 82.2139 76.4058 81.7164 76.9209 81.0945C79.2391 78.8557 81.171 76.2438 82.5877 73.2587C84.0044 70.398 87.0953 68.5324 90.4439 68.7812C90.5727 68.7812 90.7015 68.7811 90.8303 68.9055L91.0878 69.0299C91.4742 69.1542 91.8606 69.1542 92.1182 69.0299C92.7622 68.7811 93.1485 68.2836 93.1485 67.6617V55.7215C93.0197 54.6021 92.2469 53.9802 91.2166 53.9802Z" fill="#F7A99D"/>
<path d="M33.5192 38.1844C33.004 38.1844 32.6176 37.8112 32.4888 37.3137C32.4888 36.8162 32.8752 36.3187 33.3904 36.3187C36.095 36.1943 38.7995 36.0699 41.5042 36.0699C44.2088 36.0699 46.9134 36.1943 49.6181 36.3187C50.1332 36.3187 50.5195 36.8162 50.5195 37.3137C50.5195 37.8112 50.0045 38.1844 49.4893 38.1844C46.7847 38.06 44.2088 37.9356 41.5042 37.9356C38.9283 37.9356 36.2238 37.9356 33.5192 38.1844Z" fill="#0E491F"/>
<path d="M69.8374 54.2285C70.7621 54.2285 71.5117 53.5046 71.5117 52.6116C71.5117 51.7186 70.7621 50.9946 69.8374 50.9946C68.9127 50.9946 68.1632 51.7186 68.1632 52.6116C68.1632 53.5046 68.9127 54.2285 69.8374 54.2285Z" fill="#0E491F"/>
<path d="M6.86003 73.01C13.4283 85.4478 23.3453 89.1791 37.5122 89.1791C49.361 89.1791 52.9671 89.1791 52.9671 89.1791C52.9671 86.6916 25.4059 88.5573 4.67065 63.6817C4.67065 63.8061 5.18575 69.9006 6.86003 73.01Z" fill="#E34653"/>
<path d="M31.8419 14.4285C30.5539 14.1798 29.266 13.8066 27.9781 13.5579C29.0085 14.6773 30.1675 15.5479 31.3267 16.2942L25.016 20.523C21.4099 18.4086 17.8036 13.8066 16.387 9.70215C15.3566 9.20464 14.4551 8.83151 13.6824 8.45837C15.3567 14.5529 19.478 19.9011 25.1448 23.2593L34.9329 16.7917C33.9025 16.0454 32.8722 15.2992 31.8419 14.4285Z" fill="#43AD2A"/>
<path d="M16.0028 7.83578L22.3135 3.60695C23.0862 6.84077 25.4045 10.6965 28.1091 13.5572C29.2682 13.8059 30.5561 14.1791 31.9728 14.4278C27.4651 10.6965 24.3742 5.72138 23.2151 0L13.427 6.46762C13.5558 7.08951 13.6845 7.58705 13.8133 8.20894C14.586 8.58207 15.4875 9.07958 16.5179 9.45272C16.2603 9.07958 16.1316 8.45767 16.0028 7.83578Z" fill="#278D00"/>
<path d="M25.1457 20.5226L31.4564 16.2937C30.2973 15.5475 29.1381 14.6768 28.1078 13.5574C23.3426 12.3136 19.4789 10.9455 16.5167 9.57733C17.9334 13.8062 21.5396 18.2838 25.1457 20.5226Z" fill="#70CD51"/>
<path d="M22.3158 3.73151L16.0051 7.96035C16.1339 8.58224 16.2626 9.07974 16.5202 9.70163C19.3536 10.9454 23.2173 12.438 28.1113 13.6817C25.2779 10.6967 23.0885 6.84096 22.3158 3.73151Z" fill="#43AD2A"/>
<path d="M32.2306 30.2241C31.3291 30.7216 30.5563 31.4678 29.9123 32.3384H20.897C22.4425 30.3484 24.7608 28.9803 27.5942 28.9803C27.9806 28.9803 32.1019 28.9803 32.1019 28.9803L32.2306 30.2241Z" fill="#43AD2A"/>
<path d="M27.5941 28.9801H39.4427C43.9504 28.9801 47.6853 32.587 47.6853 36.9403V37.0647H35.8365V36.9403C35.8365 32.587 32.1018 28.9801 27.5941 28.9801Z" fill="#278D00"/>
<path d="M33.2628 28.9801C35.3235 29.9751 38.0281 33.3334 38.0281 37.0647H45.2403C45.2403 36.9404 45.2403 36.6916 45.2403 36.5672C45.2403 33.209 42.4069 29.602 38.9296 28.9801H33.2628Z" fill="#43AD2A"/>
<path d="M53.8652 13.93C53.8652 14.3031 53.8652 14.5519 53.8652 14.8007C53.7365 16.5419 53.0926 17.4126 52.835 18.4076C51.8047 19.2782 45.6226 21.6414 42.1453 20.8952L45.2363 16.5419C48.0697 16.5419 51.0319 15.4225 52.4486 14.6763C52.835 14.4275 53.3501 14.1787 53.8652 13.93Z" fill="#43AD2A"/>
<path d="M57.987 5.09937C58.1158 5.72125 58.2445 6.4675 58.2445 7.21377C58.2445 7.83566 58.2445 8.33316 58.2445 8.95505C57.9869 14.1789 54.896 18.5322 50.5172 20.8953C52.0627 19.0297 53.0931 16.6665 53.3507 14.1789C53.3507 13.6814 53.3507 13.0595 53.3507 12.562C53.3507 12.0645 53.2218 11.6914 53.093 11.1939L57.987 5.09937Z" fill="#70CD51"/>
</svg>
