<svg width="139" height="124" viewBox="0 0 139 124" fill="none" xmlns="http://www.w3.org/2000/svg">
<path d="M108.816 64.1419H21.2764C20.1123 64.1419 18.9483 63.3528 18.599 62.451L13.3607 44.7528C13.1278 43.851 13.8262 43.0619 14.9903 43.0619H102.53C103.694 43.0619 104.858 43.851 105.207 44.7528L110.445 62.451C110.678 63.4655 109.98 64.1419 108.816 64.1419Z" fill="#00A800"/>
<path d="M110.329 63.3528C110.329 63.4656 110.329 63.4656 110.213 63.5783C110.213 63.5783 110.213 63.5783 110.213 63.691C110.213 63.691 110.213 63.8037 110.096 63.8037C110.096 63.8037 110.096 63.8037 109.98 63.9165L109.863 64.0292C109.863 64.0292 109.864 64.0292 109.747 64.0292C109.747 64.0292 109.631 64.0292 109.631 64.1419C109.631 64.1419 109.631 64.1419 109.514 64.1419H109.398H109.281H109.165H109.049H108.932C108.932 64.1419 108.932 64.1419 108.816 64.1419C108.699 64.1419 108.583 64.1419 108.583 64.1419H21.0436C20.9272 64.1419 20.8107 64.1419 20.5779 64.1419H20.4615C20.3451 64.1419 20.2287 64.1419 20.2287 64.0292H20.1123C19.9959 64.0292 19.9959 63.9165 19.8795 63.9165H19.7631C19.6467 63.9165 19.5303 63.8037 19.5303 63.8037C19.5303 63.8037 19.5302 63.8037 19.4138 63.8037C19.2974 63.691 19.181 63.691 19.0646 63.5783C19.0646 63.5783 19.0646 63.5783 18.9482 63.4656C18.8318 63.3528 18.8318 63.3528 18.7154 63.2401C18.7154 63.2401 18.7154 63.1274 18.599 63.1274C18.599 63.0147 18.4826 63.0147 18.4826 62.9019V62.7892C18.4826 62.6765 18.3662 62.5637 18.3662 62.451L13.1278 44.7528C13.0114 44.4147 13.0114 44.1892 13.1278 43.9637L11.1488 53.4328C11.0324 53.6583 11.0324 53.9965 11.1488 54.2219L15.8052 71.9201C15.8052 72.0328 15.9216 72.1456 15.9216 72.2583V72.371C15.9216 72.4837 16.038 72.4838 16.038 72.5965C16.038 72.5965 16.038 72.7092 16.1544 72.7092C16.2708 72.8219 16.2708 72.8219 16.3872 72.9347C16.3872 72.9347 16.3872 72.9347 16.5036 73.0474C16.62 73.1601 16.7365 73.1601 16.8529 73.2728C16.8529 73.2728 16.8529 73.2728 16.9693 73.2728C17.0857 73.2728 17.2021 73.3856 17.2021 73.3856H17.3185C17.4349 73.3856 17.4349 73.4983 17.5513 73.4983H17.6677C17.6677 73.4983 17.6677 73.4983 17.7841 73.4983C17.9006 73.4983 17.9006 73.4983 18.017 73.4983H18.1334C18.2498 73.4983 18.3662 73.4983 18.599 73.4983H105.673C105.789 73.4983 105.906 73.4983 105.906 73.4983C105.906 73.4983 105.906 73.4983 106.022 73.4983H106.138H106.255H106.371H106.488H106.604C106.604 73.4983 106.604 73.4983 106.72 73.4983C106.72 73.4983 106.837 73.4983 106.837 73.3856C106.837 73.3856 106.837 73.3856 106.953 73.3856C106.953 73.3856 107.07 73.3856 107.07 73.2728C107.07 73.2728 107.07 73.2728 107.186 73.1601C107.186 73.1601 107.186 73.0474 107.302 73.0474C107.302 73.0474 107.302 73.0474 107.302 72.9347C107.302 72.9347 107.303 72.8219 107.419 72.8219L110.329 63.3528Z" fill="#0E491F"/>
<path d="M42.6959 56.1379L41.0662 55.0106C40.9498 54.8979 40.6005 54.8979 40.6005 55.0106C40.2513 55.4615 39.6692 55.5743 38.8544 55.687C37.2247 55.687 35.4785 54.5597 34.7801 53.0943C34.4308 52.4179 34.5473 51.7415 34.8965 51.1779C35.2457 50.727 35.8278 50.3888 36.6427 50.3888C37.4575 50.3888 38.156 50.6143 38.9708 51.0652C39.2037 51.1779 39.32 51.1779 39.4364 51.0652L40.1349 49.9379C40.1349 49.8252 40.2513 49.8252 40.1349 49.7125C40.1349 49.5997 40.0185 49.487 39.9021 49.3743C38.5052 48.4725 37.2246 48.1343 35.7113 48.1343C34.198 48.1343 32.9175 48.6979 32.219 49.7125C31.5206 50.6143 31.5207 51.8543 31.9863 53.0943C33.034 55.7997 36.4098 57.9415 39.5529 57.9415C41.0662 57.9415 42.1139 57.4906 42.8123 56.5888C42.8123 56.5888 42.8123 56.4761 42.8123 56.3634C42.9287 56.3634 42.8123 56.2506 42.6959 56.1379Z" fill="white"/>
<path d="M53.5218 56.0257C53.4054 55.8002 53.289 55.6875 53.0562 55.6875H49.4475L46.5373 48.5857C46.4209 48.473 46.3045 48.2475 46.0717 48.2475H44.2091C44.0927 48.2475 43.9763 48.2475 43.9763 48.3602C43.9763 48.473 43.9763 48.473 43.9763 48.5857L47.585 57.3784C47.7014 57.6039 47.8178 57.7166 48.0506 57.7166H53.7546C53.871 57.7166 53.9874 57.7166 53.9874 57.6039C53.9874 57.4911 53.9874 57.4911 53.9874 57.3784L53.5218 56.0257Z" fill="white"/>
<path d="M58.8768 48.247C58.7604 48.1343 58.644 48.1343 58.5276 48.1343H58.4111C58.2947 48.1343 58.1784 48.247 58.1784 48.3597L57.0143 57.3779C57.0143 57.4906 57.0143 57.6034 57.1307 57.6034C57.2471 57.7161 57.3635 57.7161 57.4799 57.7161H59.1096C59.4589 57.7161 59.5752 57.6034 59.5752 57.2652L59.6917 56.2506H63.766L64.6972 57.2652C64.9301 57.4906 65.1628 57.6034 65.3957 57.6034H67.1418C67.2582 57.6034 67.3746 57.6034 67.3746 57.4906C67.3746 57.3779 67.3747 57.2652 67.2583 57.1525L58.8768 48.247ZM59.9245 54.447L60.1573 52.5306L62.0199 54.447H59.9245Z" fill="white"/>
<path d="M70.1682 48.4725C70.0518 48.3597 69.9354 48.1343 69.7025 48.1343H67.84C67.7236 48.1343 67.6072 48.1343 67.6072 48.247C67.6072 48.3597 67.6072 48.3597 67.6072 48.4725L71.2159 57.2652C71.3323 57.3779 71.4487 57.6034 71.6815 57.6034H73.5441C73.6605 57.6034 73.7769 57.6034 73.7769 57.4906C73.7769 57.3779 73.7769 57.3779 73.7769 57.2652L70.1682 48.4725Z" fill="white"/>
<path d="M90.5392 57.1529L85.1844 48.2474C85.068 48.1347 84.9516 48.022 84.7188 48.022H84.4859C84.3695 48.022 84.2531 48.1347 84.2531 48.2474L83.089 53.8838L77.2686 48.2474C77.1522 48.1347 77.0358 48.1347 76.9194 48.1347H76.6865C76.5701 48.1347 76.4537 48.1347 76.4537 48.2474C76.4537 48.3602 76.3373 48.3602 76.4537 48.4729L78.4327 57.4911C78.4327 57.7165 78.6655 57.8292 78.8983 57.8292H80.7609C80.8773 57.8292 80.9937 57.8292 80.9937 57.7165C80.9937 57.6038 81.1101 57.6038 80.9937 57.4911L80.0624 53.6583L84.2531 57.8292C84.3695 57.942 84.4859 58.0547 84.6023 58.0547H84.8352C84.9516 58.0547 85.068 57.942 85.068 57.8292L85.8829 53.6583L88.211 57.6038C88.3275 57.7165 88.4438 57.8292 88.6766 57.8292H90.5392C90.6556 57.8292 90.772 57.8292 90.772 57.7165C90.5392 57.3783 90.6556 57.2656 90.5392 57.1529Z" fill="white"/>
<path d="M135.222 72.1744C135.054 71.8536 134.886 71.613 134.718 71.3724C133.628 69.3673 131.363 67.9236 128.846 67.9236C126.916 67.9236 125.238 68.6455 123.98 69.8485C123.728 70.0891 123.225 70.0891 122.973 69.8485C121.799 68.6455 120.037 67.8435 118.108 67.8435C116.178 67.8435 114.5 68.5652 113.242 69.7683C112.99 70.0089 112.487 70.0089 112.235 69.7683C111.061 68.5652 109.299 67.7632 107.369 67.7632C105.44 67.7632 103.678 68.485 102.42 69.7683C102.252 69.9287 101.916 70.0089 101.664 69.9287C94.198 67.282 87.9899 61.8282 84.7181 54.5297C83.2919 51.4018 79.5167 49.9582 76.2449 51.4018C73.1409 52.7653 71.8825 56.4546 73.2248 59.5023C76.8322 67.4424 82.7886 73.7784 90.1711 78.0292C90.4228 78.1896 90.6745 78.5104 90.6745 78.8312C91.4296 89.8191 96.4631 89.0972 89.8356 92.6262C89.5 92.7866 89.0805 92.8668 88.6611 92.7866C86.1443 92.2252 83.5436 92.0648 80.9429 92.2252C77.5033 92.4658 74.6509 95.3531 74.9026 98.6414C75.1543 102.01 78.2584 104.576 81.7819 104.256C85.2215 103.935 88.745 104.977 91.3457 107.143C91.5134 107.303 91.7651 107.464 91.9329 107.544C92.1846 107.785 92.4362 107.945 92.6879 108.105C97.4698 111.153 103.175 112.918 109.383 112.837C125.406 112.677 138.41 99.9247 138.158 84.6059C138.326 80.0343 137.235 75.8637 135.222 72.1744Z" fill="#EAC2AA"/>
</svg>
