<?xml version="1.0" encoding="UTF-8" standalone="no" ?>
<!DOCTYPE svg PUBLIC "-//W3C//DTD SVG 1.1//EN" "http://www.w3.org/Graphics/SVG/1.1/DTD/svg11.dtd">
<svg xmlns="http://www.w3.org/2000/svg" xmlns:xlink="http://www.w3.org/1999/xlink" version="1.1" width="659.7716999999999" height="371.12111734860326" viewBox="0 0 659.7716999999999 371.12111734860326" xml:space="preserve">
<desc>Created with Fabric.js 5.3.0</desc>
<defs>
</defs>
<rect x="0" y="0" width="100%" height="100%" fill="#ffffff"></rect>
<g transform="matrix(0.6108997222222221 0 0 0.3436306642116697 329.88584999999995 185.56055867430163)"  >
	<image style="stroke: none; stroke-width: 0; stroke-dasharray: none; stroke-linecap: butt; stroke-dashoffset: 0; stroke-linejoin: miter; stroke-miterlimit: 4; fill: rgb(0,0,0); fill-rule: nonzero; opacity: 1;"  xlink:href="https://images.unsplash.com/photo-1678537378341-f9a017d75515?crop=entropy;cs=tinysrgb;fit=max;fm=jpg;ixid=MnwxMzcwOTd8MHwxfGFsbHwyfHx8fHx8Mnx8MTY3ODU0MzM1Nw;ixlib=rb-4.0.3;q=80;w=1080" x="-540" y="-540" width="1080" height="1080"></image>
</g>
<g transform="matrix(1 0 0 1 382.3497970528256 163.48397577575568)"  >
<filter id="SVGID_2" y="-20%" height="140%" x="-20%" width="140%" >
	<feGaussianBlur in="SourceAlpha" stdDeviation="0"></feGaussianBlur>
	<feOffset dx="0" dy="0" result="oBlur" ></feOffset>
	<feFlood flood-color="rgb(0,94,122)" flood-opacity="1"/>
	<feComposite in2="oBlur" operator="in" />
	<feMerge>
		<feMergeNode></feMergeNode>
		<feMergeNode in="SourceGraphic"></feMergeNode>
	</feMerge>
</filter>
<path style="stroke: rgb(0,94,122); stroke-width: 30; stroke-dasharray: none; stroke-linecap: round; stroke-dashoffset: 0; stroke-linejoin: round; stroke-miterlimit: 10; fill: none; fill-rule: nonzero; opacity: 1;filter: url(#SVGID_2);"  transform=" translate(-382.3497970528256, -163.48397577575568)" d="M 397.56935464772056 260.6719098143236 Q 397.56935464772056 260.64190981432364 397.56935464772056 259.6422045387563 Q 397.56935464772056 258.64249926318894 397.56935464772056 255.64338343648689 Q 397.56935464772056 252.64426760978486 397.56935464772056 249.64515178308284 Q 397.56935464772056 246.64603595638079 397.56935464772056 241.64750957854406 Q 397.56935464772056 236.64898320070733 398.56819419775013 223.65281461833186 Q 399.56703374777976 210.65664603595638 402.56355239786853 197.6604774535809 Q 405.56007104795736 184.66430887120544 409.5554292480758 175.66696139109933 Q 413.5507874481942 166.66961391099323 417.54614564831263 157.67226643088713 Q 421.54150384843103 148.67491895078103 425.53686204854944 141.67698202180964 Q 429.53222024866784 134.6790450928382 433.52757844878624 128.68081343943413 Q 437.5229366489047 122.68258178603007 440.51945529899353 118.68376068376068 Q 443.5159739490823 114.6849395814913 445.5136530491415 111.68582375478928 Q 447.5113321492007 108.68670792808724 447.5113321492007 107.68700265251991 Q 447.5113321492007 106.68729737695256 449.5090112492599 105.6875921013852 Q 451.5066903493191 104.68788682581787 455.5020485494375 102.68847627468318 Q 459.497406749556 100.68906572354848 467.4881231497928 99.68936044798113 Q 475.4788395500296 98.6896551724138 490.46143280047363 98.6896551724138 Q 505.4440260509177 98.6896551724138 524.4219775014801 100.68906572354848 Q 543.3999289520426 102.68847627468317 559.3813617525163 106.68729737695256 Q 575.36279455299 110.68611847922193 584.3523505032564 113.68523430592396 Q 593.3419064535228 116.684350132626 600.3337833037301 118.68376068376068 Q 607.3256601539373 120.68317123489538 613.318697454115 122.68258178603007 Q 619.3117347542925 124.68199233716476 621.3094138543518 124.68199233716476 Q 623.3070929544109 124.68199233716476 625.30477205447 125.68169761273211 Q 627.3024511545293 126.68140288829944 628.3012907045589 127.68110816386678 Q 629.3001302545886 128.68081343943413 630.2989698046181 128.68081343943413 Q 631.2978093546477 128.68081343943413 632.2966489046773 128.68081343943413 Q 633.295488454707 128.68081343943413 633.295488454707 129.68051871500148 Q 633.295488454707 130.68022399056883 634.2943280047366 130.68022399056883 Q 635.2931675547661 130.68022399056883 631.2978093546477 131.67992926613618 Q 627.3024511545293 132.6796345417035 622.3082534043813 133.67933981727086 Q 617.3140556542332 134.6790450928382 610.3221788040261 134.6790450928382 Q 603.3303019538189 134.6790450928382 598.3361042036709 134.6790450928382 Q 593.3419064535228 134.6790450928382 591.3442273534636 134.6790450928382 Q 589.3465482534044 134.6790450928382 587.3488691533453 134.6790450928382 Q 585.351190053286 134.6790450928382 584.3523505032564 134.6790450928382 Q 583.3535109532268 134.6790450928382 582.3546714031972 134.6790450928382 Q 581.3558318531676 134.6790450928382 580.356992303138 134.6790450928382 Q 579.3581527531084 134.6790450928382 578.3593132030787 134.6790450928382 Q 577.3604736530492 134.6790450928382 576.3616341030196 135.67875036840553 Q 575.36279455299 136.67845564397288 574.3639550029603 140.67727674624228 Q 573.3651154529307 144.67609784851166 572.3662759029012 151.67403477748306 Q 571.3674363528716 158.67197170645446 570.3685968028419 171.66814028882993 Q 569.3697572528123 184.66430887120544 567.3720781527531 196.6607721780136 Q 565.3743990526939 208.6572354848217 565.3743990526939 220.65369879162984 Q 565.3743990526939 232.65016209843796 566.3732386027235 243.64692012967873 Q 567.3720781527531 254.64367816091954 567.3720781527531 262.6413203654583 Q 567.3720781527531 270.63896256999703 567.3720781527531 275.63748894783373 Q 567.3720781527531 280.6360153256705 568.3709177027827 285.63454170350724 Q 569.3697572528123 290.63306808134394 569.3697572528123 292.63247863247864 Q 569.3697572528123 294.63188918361334 569.3697572528123 295.6315944591807 Q 569.3697572528123 296.63129973474804 569.3697572528123 297.63100501031533 Q 569.3697572528123 298.6307102858827 569.3697572528123 299.63041556145004 Q 569.3697572528123 300.6301208370174 569.3697572528123 301.62982611258474 Q 569.3697572528123 302.6295313881521 569.3697572528123 303.62923666371944 Q 569.3697572528123 304.6289419392868 568.3709177027827 302.6295313881521 Q 567.3720781527531 300.6301208370174 561.3790408525756 294.63188918361334 Q 555.3860035523979 288.6336575302093 545.3976080521019 279.63631005010313 Q 535.4092125518058 270.63896256999703 517.4301006512729 256.64308871205424 Q 499.4509887507401 242.6472148541114 474.48 222.65310934276454 Q 449.5090112492599 202.65900383141764 419.54382474837183 181.66519304450338 Q 389.57863824748375 160.67138225758916 359.6134517465956 139.67757147067493 Q 329.64826524570753 118.68376068376068 298.6842391947898 102.68847627468317 Q 267.7202131438721 86.69319186560566 245.74574304322084 74.69672855879753 Q 223.77127294256957 62.70026525198939 206.79100059206633 54.702623047450636 Q 189.81072824156306 46.70498084291188 178.82349319123742 41.706454465075154 Q 167.83625814091178 36.707928087238436 157.84786264061574 33.708812260536405 Q 147.8594671403197 30.709696433834367 138.8699111900533 26.71087533156499 L 129.85035523978686 22.68205422929561" stroke-linecap="round" />
</g>
<g transform="matrix(1 0 0 1 417.2771936056838 121.21536693191865)" style=""  >
		<text xml:space="preserve" font-family="Josefin Sans" font-size="72" font-style="normal" font-weight="normal" style="stroke: none; stroke-width: 1; stroke-dasharray: none; stroke-linecap: butt; stroke-dashoffset: 0; stroke-linejoin: miter; stroke-miterlimit: 4; fill: rgb(0,0,0); fill-rule: nonzero; opacity: 1; white-space: pre;" ><tspan x="-225" y="22.61808" >Add a heading</tspan></text>
</g>
</svg>